STARTFONT 2.1
COMMENT
COMMENT Converted from OpenType font "BeVietnam-Italic.ttf" by "otf2bdf 3.0".
COMMENT
FONT -FreeType-Be Vietnam-Medium-I-Normal--66-480-100-100-P-339-ISO10646-1
SIZE 48 100 100
FONTBOUNDINGBOX 96 90 -17 -17
STARTPROPERTIES 19
FOUNDRY "FreeType"
FAMILY_NAME "Be Vietnam"
WEIGHT_NAME "Medium"
SLANT "I"
SETWIDTH_NAME "Normal"
ADD_STYLE_NAME ""
PIXEL_SIZE 66
POINT_SIZE 480
RESOLUTION_X 100
RESOLUTION_Y 100
SPACING "P"
AVERAGE_WIDTH 339
CHARSET_REGISTRY "ISO10646"
CHARSET_ENCODING "1"
FONT_ASCENT 80
FONT_DESCENT 17
COPYRIGHT "Copyright 2019 The Bevietnam Project Authors (https://github.com/bettergui/beVietnam)"
_OTF_FONTFILE "BeVietnam-Italic.ttf"
_OTF_PSNAME "BeVietnam-Italic"
ENDPROPERTIES
CHARS 445
STARTCHAR 000D
ENCODING 13
SWIDTH 600 0
DWIDTH 40 0
BBX 0 0 0 0
BITMAP
ENDCHAR
STARTCHAR 0020
ENCODING 32
SWIDTH 225 0
DWIDTH 15 0
BBX 0 0 0 0
BITMAP
ENDCHAR
STARTCHAR 0021
ENCODING 33
SWIDTH 240 0
DWIDTH 16 0
BBX 14 51 5 -1
BITMAP
00FC
00FC
00FC
00FC
00FC
01FC
01F8
01F8
01F8
01F8
01F8
01F0
03F0
03F0
03F0
03F0
03E0
03E0
03E0
03E0
07E0
07C0
07C0
07C0
07C0
07C0
0780
0780
0F80
0F80
0F80
0F00
0F00
0F00
0F00
0F00
1E00
1E00
0000
0000
0000
0000
0000
1C00
7E00
7E00
FE00
FE00
FE00
7C00
1000
ENDCHAR
STARTCHAR 0022
ENCODING 34
SWIDTH 555 0
DWIDTH 37 0
BBX 23 16 11 34
BITMAP
01800E
07801E
0F0078
1C00F0
3800E0
3801C0
7001C0
7003C0
7003C0
FE03F0
FF03FC
FF83FC
FF83FC
FF83FC
FF03F8
7E03F8
ENDCHAR
STARTCHAR 0023
ENCODING 35
SWIDTH 870 0
DWIDTH 58 0
BBX 51 47 8 0
BITMAP
000001F0007800
000001F000F800
000003F000F800
000003E001F000
000003E001F000
000007C001F000
000007C003E000
000007C003E000
00000F8007E000
00000F8007C000
00001F0007C000
00001F000F8000
00001F000F8000
01FFFFFFFFFFE0
03FFFFFFFFFFC0
03FFFFFFFFFFC0
03FFFFFFFFFFC0
07FFFFFFFFFF80
0000F8003E0000
0000F8007C0000
0001F8007C0000
0001F000F80000
0001F000F80000
0003E000F80000
0003E001F00000
0003E001F00000
0007C001F00000
0007C003E00000
000F8003E00000
000F8007C00000
7FFFFFFFFFF800
7FFFFFFFFFF800
FFFFFFFFFFF000
FFFFFFFFFFF000
003E001F000000
003E001F000000
007C001F000000
007C003E000000
007C003E000000
00F8007E000000
00F8007C000000
01F0007C000000
01F000F8000000
01F000F8000000
03E000F8000000
03E001F0000000
03E001F0000000
ENDCHAR
STARTCHAR 0024
ENCODING 36
SWIDTH 555 0
DWIDTH 37 0
BBX 35 56 5 -5
BITMAP
0000070000
0000070000
0000070000
0000070000
0000060000
0000FFF000
0003FFFC00
000FFFFE00
003FFFFF00
007FFFFF80
00FF0C3FC0
01FE0C1FC0
01F81C0FC0
03F01C0FE0
03F01C07E0
07E01C07E0
07E01807E0
07C01807E0
07C03807E0
07C0380000
07E0380000
07E0300000
07F0300000
07F8300000
03FF700000
03FFF80000
01FFFF8000
007FFFE000
001FFFF800
0003FFFC00
0000FFFE00
0000E1FF00
0000E07F00
0000C03F00
0000C03F80
0000C01F80
FC01C01F80
FC01C01F80
FC01C01F00
FE01801F00
7E01803F00
7E03803F00
7F03807E00
7F0380FC00
3F8381FC00
3FE307F800
1FFFFFF000
0FFFFFE000
07FFFF8000
03FFFF0000
00FFF80000
0007000000
0006000000
000E000000
000E000000
000E000000
ENDCHAR
STARTCHAR 0025
ENCODING 37
SWIDTH 825 0
DWIDTH 55 0
BBX 47 48 8 -1
BITMAP
01FE000007C0
07FF80000F80
0FFF80001F80
1F87C0001F00
3E03C0003E00
3C03C0007E00
7C03E0007C00
7803E000F800
7803E001F000
7803C001F000
F803C003E000
F803C007C000
F8078007C000
7807800F8000
7C0F001F0000
7F7F001F0000
3FFE003E0000
1FF8007C0000
07E0007C0000
000000F80000
000001F00000
000003F00000
000003E00000
000007C00000
00000FC00000
00000F800000
00001F000000
00003E000000
00003E000180
00007C001FF0
0000F8007FF8
0000F800FFFC
0001F001F07C
0003E003E03C
0003E003C03E
0007C007C01E
000F8007803E
001F8007803E
001F0007803C
003E000F803C
007E000F803C
007C00078078
00F8000780F8
01F00007C1F0
01F00003FFE0
03E00003FFC0
07C00001FF80
000000003800
ENDCHAR
STARTCHAR 0026
ENCODING 38
SWIDTH 630 0
DWIDTH 42 0
BBX 38 47 6 1
BITMAP
00001FFC00
00007FFF00
0001FFFF80
0003FFFFC0
0007FFFFE0
000FF00FE0
000FC007F0
001FC007F0
001F8003F0
003F0003F0
003F0003F0
003F0003F0
003F0003F0
003F000000
003F000000
003F000000
001F800000
001F800000
001FC00000
000FE00000
0007E00000
0007F00000
0007F80000
003FF801F8
00FFFC01F8
03FFFE03F0
07F87E07E0
0FE03F0FC0
1F803F8F80
3F001FDF80
7E000FFF00
7E000FFE00
FC0007FC00
FC0003FC00
F80003F800
F80001FC00
F80003FE00
F80007FE00
FC000FFF00
FC001FBF80
FE003F1F80
FF00FE1FC0
7FFFFC0FE0
7FFFF807E0
3FFFF003F0
1FFFC003F8
07FF0001FC
ENDCHAR
STARTCHAR 0027
ENCODING 39
SWIDTH 300 0
DWIDTH 20 0
BBX 9 17 10 33
BITMAP
0C00
3F00
7F80
FF80
FF80
FF80
FF00
1F00
0700
0700
0E00
0E00
1C00
3C00
7800
F000
C000
ENDCHAR
STARTCHAR 0028
ENCODING 40
SWIDTH 450 0
DWIDTH 30 0
BBX 24 67 10 -14
BITMAP
000002
000007
00001F
00003E
00007C
0000F8
0001F0
0003E0
0007C0
000F80
001F80
001F00
003E00
007E00
00FC00
00FC00
01F800
01F000
03F000
03E000
07E000
07E000
0FC000
0FC000
1F8000
1F8000
3F8000
3F0000
3F0000
3F0000
7E0000
7E0000
7E0000
7E0000
FE0000
FC0000
FC0000
FC0000
FC0000
FC0000
FC0000
FC0000
FC0000
FC0000
FC0000
FC0000
FC0000
FC0000
FC0000
7C0000
7C0000
7C0000
7E0000
3E0000
3E0000
3E0000
1F0000
1F0000
0F8000
0F8000
07C000
03C000
03E000
01F000
00F000
007800
003000
ENDCHAR
STARTCHAR 0029
ENCODING 41
SWIDTH 465 0
DWIDTH 31 0
BBX 24 67 4 -14
BITMAP
001000
003C00
003E00
001F00
000F00
000F80
0007C0
0007E0
0003E0
0001F0
0001F0
0001F8
0000F8
0000F8
0000FC
00007C
00007C
00007E
00007E
00007E
00003E
00003E
00003E
00003E
00003E
00003F
00003F
00003F
00003E
00003E
00007E
00007E
00007E
00007E
00007E
00007E
00007E
0000FC
0000FC
0000FC
0001F8
0001F8
0001F8
0003F0
0003F0
0003F0
0007E0
0007E0
000FC0
000FC0
001F80
001F00
003F00
003E00
007E00
00FC00
00F800
01F000
03F000
03E000
07C000
0F8000
1F0000
3E0000
7C0000
F00000
600000
ENDCHAR
STARTCHAR 002A
ENCODING 42
SWIDTH 465 0
DWIDTH 31 0
BBX 24 24 12 27
BITMAP
000F00
000F00
000F00
000F00
080E02
1C0E0E
3E1E1F
7F9C7F
3FDDFE
0FFFF0
03FFC0
00FF00
01FF00
07FFC0
3FB7F0
FF73FC
FC71FC
F070F8
E0F030
00F000
00F000
00E000
01E000
01E000
ENDCHAR
STARTCHAR 002B
ENCODING 43
SWIDTH 570 0
DWIDTH 38 0
BBX 27 26 9 8
BITMAP
0007C000
0007C000
0007C000
0007C000
0007C000
0007C000
000F8000
000F8000
000F8000
000F8000
000F8000
7FFFFFE0
7FFFFFE0
7FFFFFE0
FFFFFFE0
FFFFFFE0
001F0000
003F0000
003E0000
003E0000
003E0000
003E0000
003E0000
007E0000
007C0000
007C0000
ENDCHAR
STARTCHAR 002C
ENCODING 44
SWIDTH 285 0
DWIDTH 19 0
BBX 9 18 5 -11
BITMAP
1E00
3F80
7F80
7F80
FF80
FF80
7F80
0F80
0780
0700
0700
0700
0E00
1C00
3800
F000
E000
8000
ENDCHAR
STARTCHAR 002D
ENCODING 45
SWIDTH 600 0
DWIDTH 40 0
BBX 26 5 14 18
BITMAP
7FFFFFC0
7FFFFF80
7FFFFF80
FFFFFF80
FFFFFF00
ENDCHAR
STARTCHAR 002E
ENCODING 46
SWIDTH 270 0
DWIDTH 18 0
BBX 8 7 6 0
BITMAP
3E
7E
FF
FF
FE
FE
7C
ENDCHAR
STARTCHAR 002F
ENCODING 47
SWIDTH 510 0
DWIDTH 34 0
BBX 43 64 1 -10
BITMAP
0000000003E0
0000000007E0
0000000007C0
000000000FC0
000000001F80
000000001F00
000000003F00
000000003E00
000000007E00
00000000FC00
00000000F800
00000001F800
00000001F000
00000003F000
00000007E000
00000007E000
0000000FC000
0000000F8000
0000001F8000
0000001F0000
0000003F0000
0000007E0000
0000007C0000
000000FC0000
000000F80000
000001F80000
000003F00000
000003E00000
000007E00000
000007C00000
00000FC00000
00001F800000
00001F000000
00003F000000
00003E000000
00007E000000
0000FC000000
0000F8000000
0001F8000000
0001F0000000
0003F0000000
0007E0000000
0007E0000000
000FC0000000
000F80000000
001F80000000
001F00000000
003F00000000
007E00000000
007C00000000
00FC00000000
00F800000000
01F800000000
03F000000000
03E000000000
07E000000000
07C000000000
0FC000000000
1F8000000000
1F0000000000
3F0000000000
3E0000000000
7E0000000000
FC0000000000
ENDCHAR
STARTCHAR 0030
ENCODING 48
SWIDTH 600 0
DWIDTH 40 0
BBX 36 49 6 -1
BITMAP
0000070000
0001FFF800
0007FFFC00
000FFFFF00
003FFFFF80
007FFBFF80
00FF803FC0
00FE001FC0
01FC000FE0
03F80007E0
03F00007E0
07E00007F0
07E00007F0
0FC00003F0
0FC00003F0
1FC00003F0
1F800003F0
1F800003F0
3F800003F0
3F800007F0
3F000007E0
3F000007E0
3F000007E0
3F000007E0
7F000007E0
7E00000FE0
7E00000FC0
7E00000FC0
7E00000FC0
7E00000FC0
FE00001FC0
FE00001F80
FE00001F80
FE00001F80
FE00003F00
FE00003F00
FE00007F00
7E00007E00
7E0000FE00
7F0001FC00
7F0003F800
3F8007F800
3FC00FF000
1FFCFFE000
0FFFFFC000
0FFFFF8000
03FFFE0000
01FFF80000
000F000000
ENDCHAR
STARTCHAR 0031
ENCODING 49
SWIDTH 480 0
DWIDTH 32 0
BBX 25 47 6 0
BITMAP
00007E00
0000FE00
0001FE00
0003FE00
000FFE00
001FFC00
003FFC00
007F7C00
01FEFC00
01FCFC00
03F0F800
03E0F800
03C0F800
0380F800
0201F800
0401F800
0001F000
0001F000
0001F000
0001F000
0003F000
0003F000
0003E000
0003E000
0003E000
0003E000
0007E000
0007E000
0007C000
0007C000
0007C000
000FC000
000FC000
000FC000
000F8000
000F8000
000F8000
001F8000
001F8000
001F8000
001F0000
001F0000
7FFFFF80
7FFFFF80
7FFFFF00
7FFFFF00
FFFFFF00
ENDCHAR
STARTCHAR 0032
ENCODING 50
SWIDTH 585 0
DWIDTH 39 0
BBX 36 48 5 0
BITMAP
000007C000
00007FFC00
0003FFFF00
0007FFFF80
000FFFFFC0
001FFCFFC0
003F801FE0
007F0007E0
00FC0007F0
00FC0003F0
01F80003F0
01F00003F0
03F00003F0
03F00003F0
03F00003F0
03F00003F0
00000003E0
00000007E0
00000007E0
0000000FC0
0000000F80
0000001F80
0000003F00
0000007E00
000000FE00
000001FC00
000003F800
000007F000
00001FE000
00003F8000
00007F0000
0001FE0000
0003FC0000
0007F00000
001FE00000
003FC00000
007F000000
00FE000000
03FC000000
07F8000000
0FE0000000
3FC0000000
7F80000000
FFFFFFFE00
FFFFFFFE00
FFFFFFFE00
FFFFFFFE00
FFFFFFFE00
ENDCHAR
STARTCHAR 0033
ENCODING 51
SWIDTH 585 0
DWIDTH 39 0
BBX 35 49 6 -1
BITMAP
00001FC000
0001FFF800
0007FFFE00
001FFFFF00
003FFFFF80
007FE1FFC0
00FF001FC0
01FC000FE0
01F80007E0
03F00007E0
03F00007E0
07E00007E0
00000007E0
00000007E0
00000007E0
00000007E0
0000000FC0
0000000FC0
0000001F80
0000003F00
000000FE00
00001FFC00
0003FFF800
0003FFC000
0003FFE000
0003FFF800
000007FC00
000001FC00
0000007E00
0000003F00
0000003F00
0000003F00
0000003F00
0000003F00
0000003F00
0000003F00
0000003F00
FC00007E00
FC00007E00
FE0000FC00
7E0001FC00
7F8003F800
3FC00FF000
3FFFFFF000
1FFFFFC000
0FFFFF8000
07FFFE0000
01FFF80000
000A000000
ENDCHAR
STARTCHAR 0034
ENCODING 52
SWIDTH 600 0
DWIDTH 40 0
BBX 35 47 5 0
BITMAP
0000003F80
0000007F80
000000FF80
000001FF80
000003FF00
000003FF00
000007FF00
00000FFF00
00001FBF00
00003F3F00
00007F3E00
00007E3E00
0000FC7E00
0001F87E00
0003F07E00
0007E07E00
000FC07C00
001FC07C00
001F80FC00
003F00FC00
007E00FC00
00FC00FC00
01F800F800
03F800F800
03F001F800
07E001F800
0FC001F800
1F8001F800
3F0001F000
7E0001F000
7E0003F000
7FFFFFFFE0
FFFFFFFFC0
FFFFFFFFC0
FFFFFFFFC0
000007E000
000007E000
000007E000
000007E000
000007C000
000007C000
00000FC000
00000FC000
00000FC000
00000FC000
00000F8000
00000F8000
ENDCHAR
STARTCHAR 0035
ENCODING 53
SWIDTH 600 0
DWIDTH 40 0
BBX 34 47 7 0
BITMAP
00FFFFFFC0
00FFFFFFC0
01FFFFFFC0
01FFFFFFC0
01FFFFFFC0
01FFFFFFC0
01F0000000
03E0000000
03E0000000
03E0000000
03E0000000
07E0000000
07C0000000
07C0000000
07C0000000
07C0000000
0F81FFC000
0F8FFFF000
0F9FFFF800
0FBFFFFC00
1F7C03FE00
1FF000FE00
1FE0007F00
1FC0003F00
1F80003F00
0F80001F80
0000001F80
0000001F80
0000001F80
0000001F80
0000001F80
0000001F00
0000003F00
0000003F00
0000003F00
FC00007E00
FC00007E00
FC0000FC00
7E0001FC00
7F0003F800
7F800FF000
3FE03FE000
1FFFFFC000
1FFFFF8000
07FFFF0000
03FFFC0000
00FFE00000
ENDCHAR
STARTCHAR 0036
ENCODING 54
SWIDTH 585 0
DWIDTH 39 0
BBX 32 48 6 -1
BITMAP
000007E0
00000FC0
00001F80
00003F00
00007E00
00007C00
0000FC00
0001F800
0003F000
0007E000
000FC000
000F8000
001F8000
003F0000
007E0000
00FC0000
00F80000
01F07F00
03E3FFC0
07EFFFF0
07DFFFF8
0FFFFFFC
0FF803FE
1FE000FE
1FC0007F
3F80007F
3F00003F
7F00003F
7E00001F
7E00001F
7C00001F
FC00001F
FC00003F
FC00003F
FC00003F
FC00007E
FC00007E
FC0000FC
7E0000FC
7E0001F8
7F0007F0
3F800FF0
3FF0FFE0
1FFFFF80
0FFFFF00
03FFFC00
00FFF000
00080000
ENDCHAR
STARTCHAR 0037
ENCODING 55
SWIDTH 510 0
DWIDTH 34 0
BBX 31 47 8 0
BITMAP
3FFFFFFE
3FFFFFFE
7FFFFFFE
7FFFFFFE
7FFFFFFE
7FFFFFFE
000000FC
000000FC
000001F8
000001F0
000003F0
000007E0
000007E0
00000FC0
00001F80
00001F80
00003F00
00003F00
00007E00
0000FC00
0000FC00
0001F800
0001F800
0003F000
0007E000
0007E000
000FC000
001F8000
001F8000
003F0000
003F0000
007E0000
00FC0000
00FC0000
01F80000
01F80000
03F00000
07E00000
07E00000
0FC00000
1FC00000
1F800000
3F000000
3F000000
7E000000
FE000000
FC000000
ENDCHAR
STARTCHAR 0038
ENCODING 56
SWIDTH 600 0
DWIDTH 40 0
BBX 36 49 6 -1
BITMAP
0000070000
0000FFF800
0003FFFE00
000FFFFF00
001FFFFF80
003FF0FFC0
007F001FE0
00FE000FE0
01FC0007E0
01F80003E0
03F00003F0
03F00003F0
03E00003E0
03E00003E0
07E00003E0
07E00007E0
07E00007C0
03E0000FC0
03F0001F80
03F8003F00
01FC007F00
00FF87FC00
007FFFF800
003FFFE000
00FFFFF800
01FF8FFC00
07F800FE00
0FE0007F00
1F80003F80
3F00001F80
3E00001F80
7E00000FC0
7C00000FC0
FC00000FC0
FC00000FC0
FC00000F80
FC00001F80
FC00001F80
FC00003F80
FC00007F00
FE0000FF00
7F0001FE00
7F8007FC00
3FF03FF800
3FFFFFF000
1FFFFFC000
07FFFF8000
01FFFC0000
000FC00000
ENDCHAR
STARTCHAR 0039
ENCODING 57
SWIDTH 585 0
DWIDTH 39 0
BBX 32 48 9 0
BITMAP
00007800
000FFF80
003FFFE0
00FFFFF0
01FFFFF8
03FF07FC
07F801FE
0FE000FE
1FC0007F
1F80003F
3F00003F
3E00003F
7E00001F
7C00001F
7C00001F
FC00001F
FC00003F
FC00003F
FC00003F
FC00007E
FC00007E
FC0000FE
FE0001FC
7E0003FC
7F0007F8
3FC01FF8
3FFDFFF0
1FFFFDF0
0FFFFBE0
03FFE7C0
00FF0FC0
00001F80
00003F00
00007E00
00007E00
0000FC00
0001F800
0003F000
0007E000
000FE000
001FC000
001F8000
003F0000
007E0000
00FC0000
01F80000
03F80000
07F00000
ENDCHAR
STARTCHAR 003A
ENCODING 58
SWIDTH 285 0
DWIDTH 19 0
BBX 8 35 5 0
BITMAP
1C
3F
7F
FF
FF
FF
7E
38
00
00
00
00
00
00
00
00
00
00
00
00
00
00
00
00
00
00
00
00
3E
7F
7F
FF
FF
7E
7C
ENDCHAR
STARTCHAR 003B
ENCODING 59
SWIDTH 315 0
DWIDTH 21 0
BBX 13 45 6 -11
BITMAP
00E0
03F0
03F8
07F8
07F8
07F0
07E0
03C0
0000
0000
0000
0000
0000
0000
0000
0000
0000
0000
0000
0000
0000
0000
0000
0000
0000
0000
0000
0000
1E00
3F80
7F80
FF80
FF80
FF80
7F80
0F80
0700
0700
0700
0E00
0E00
1C00
7800
F000
C000
ENDCHAR
STARTCHAR 003C
ENCODING 60
SWIDTH 555 0
DWIDTH 37 0
BBX 27 30 10 7
BITMAP
00000020
000000E0
000003E0
00000FE0
00003FE0
0000FFC0
0003FF00
000FFC00
003FF000
00FFC000
03FF0000
0FFC0000
3FF00000
7FC00000
7F000000
FE000000
FF800000
7FC00000
3FF00000
0FFC0000
03FF0000
01FF8000
007FE000
001FF800
000FFE00
0003FE00
0000FE00
00007E00
00001E00
00000400
ENDCHAR
STARTCHAR 003D
ENCODING 61
SWIDTH 705 0
DWIDTH 47 0
BBX 35 20 10 11
BITMAP
1FFFFFFFE0
1FFFFFFFC0
1FFFFFFFC0
1FFFFFFFC0
1FFFFFFFC0
0000000000
0000000000
0000000000
0000000000
0000000000
0000000000
0000000000
0000000000
0000000000
0000000000
7FFFFFFF00
FFFFFFFF00
FFFFFFFF00
FFFFFFFE00
FFFFFFFE00
ENDCHAR
STARTCHAR 003E
ENCODING 62
SWIDTH 555 0
DWIDTH 37 0
BBX 27 30 8 7
BITMAP
04000000
06000000
07800000
0FE00000
0FF80000
0FFC0000
03FF0000
00FFC000
007FE000
001FF800
0007FE00
0001FF00
0000FFC0
00003FE0
00000FE0
00000FE0
00003FE0
0000FFC0
0003FF00
000FFC00
003FF000
00FFC000
03FF0000
0FFC0000
7FF00000
7FC00000
7F000000
FC000000
F0000000
C0000000
ENDCHAR
STARTCHAR 003F
ENCODING 63
SWIDTH 570 0
DWIDTH 38 0
BBX 31 49 10 -1
BITMAP
0001F800
003FFF00
00FFFFC0
03FFFFE0
07FFFFF0
0FFFFFF8
1FF007FC
3FC001FC
3F8000FC
7F0000FC
7E0000FE
7C00007E
FC00007E
FC00007C
F80000FC
F80000FC
000000FC
000001F8
000001F8
000003F0
000007E0
00000FE0
00001F80
00007F00
0000FE00
0001FC00
0003F800
0007F000
000FE000
001F8000
003F0000
003F0000
007E0000
007E0000
007C0000
007C0000
00000000
00000000
00000000
00000000
00000000
00E00000
01F80000
03F80000
03F80000
03F80000
03F00000
03F00000
00800000
ENDCHAR
STARTCHAR 0040
ENCODING 64
SWIDTH 1005 0
DWIDTH 67 0
BBX 60 58 7 -11
BITMAP
0000001FFFE00000
000001FFFFFC0000
000007FFFFFF0000
00001FFFFFFFC000
00007FF801FFE000
0001FF80001FF800
0003FC000007FC00
0007F0000001FE00
000FC00000007E00
001F800000003F00
003F000000001F80
007C000000000F80
00F8000000000FC0
01F80000000007C0
03F00000000007E0
03E0007F87C003E0
07C001FFE7C003E0
078003FFF7C003E0
0F8007FFF78001E0
0F000FC07F8001F0
1F001F803F8001F0
1E003F001F8001F0
3E003E001F8001F0
3E007C001F8001F0
3C007C001F0001F0
7C00F8000F0001E0
7C00F8001F0001E0
7C00F8001F0001E0
7801F0001F0003E0
7801F0001F0003E0
F801F0001F0003C0
F801F0001E0007C0
F801F0003E000780
F801F0003E000F80
F801F8007F000F00
F800F800FF001F00
F800FC01FF003E00
F800FE03CF807C00
F8007FFF8FE3F800
7C007FFF07FFF000
7C003FFE03FFC000
7C000FFC01FF0000
7E00018000000000
3E00000000000000
3F00000000000000
3F00000000000000
1F80000000000000
0FC0000000000000
0FE0000000000000
07F0000000000000
03FC000000000000
01FF000000000000
00FFE00000000000
007FFFC000000000
001FFFFFFFF00000
0007FFFFFFF00000
0001FFFFFFF00000
00001FFFFFF00000
ENDCHAR
STARTCHAR 0041
ENCODING 65
SWIDTH 675 0
DWIDTH 45 0
BBX 40 47 3 0
BITMAP
0000007C00
000000FE00
000000FE00
000001FE00
000001FE00
000003FE00
000007FF00
000007FF00
00000FDF00
00000F9F00
00001F9F00
00001F1F80
00003F1F80
00003E0F80
00007E0F80
00007C0F80
0000FC0FC0
0001F80FC0
0001F007C0
0003F007C0
0003E007E0
0007E007E0
0007C007E0
000FC003E0
000F8003E0
001F8003F0
001F0003F0
003F0003F0
007E0001F0
007FFFFFF0
00FFFFFFF8
00FFFFFFF8
01FFFFFFF8
01F00000F8
03F00000F8
03E00000FC
07E00000FC
07C00000FC
0FC000007C
1F8000007E
1F8000007E
3F0000007E
3F0000007E
7E0000003E
7E0000003F
FC0000003F
FC0000003F
ENDCHAR
STARTCHAR 0042
ENCODING 66
SWIDTH 615 0
DWIDTH 41 0
BBX 38 47 5 0
BITMAP
00FFFFF800
00FFFFFF80
00FFFFFFE0
01FFFFFFF0
01FFFFFFF0
01F8001FF8
01F80003F8
01F00001FC
01F00000FC
03F00000FC
03F00000FC
03F00000FC
03E00000FC
03E00000F8
03E00000F8
07E00001F8
07E00001F0
07E00003E0
07C00007E0
07C0001FC0
0FC000FF00
0FFFFFFE00
0FFFFFF000
0FFFFFFE00
0FFFFFFF80
0F8000FFC0
1F80000FE0
1F800007E0
1F800003F0
1F800003F0
1F000001F0
1F000001F0
3F000001F0
3F000001F0
3F000003F0
3F000003F0
3E000003F0
3E000007E0
7E00000FE0
7E00001FC0
7E00003F80
7E0000FF80
7FFFFFFF00
7FFFFFFC00
FFFFFFF800
FFFFFFE000
FFFFFF0000
ENDCHAR
STARTCHAR 0043
ENCODING 67
SWIDTH 705 0
DWIDTH 47 0
BBX 43 48 7 0
BITMAP
000001F00000
00003FFF8000
0000FFFFE000
0003FFFFF800
000FFFFFFC00
001FFFFFFE00
003FE003FF00
007F8000FF00
00FF00007F80
01FC00003F80
03F800001FC0
03F000000FC0
07E000000FC0
0FE0000007C0
0FC0000007E0
1FC0000007E0
1F80000007E0
3F8000000000
3F0000000000
3F0000000000
7E0000000000
7E0000000000
7E0000000000
7E0000000000
7E0000000000
FC0000000000
FC0000000000
FC0000000000
FC0000000000
FC0000000000
FC0000000000
FC0000000000
FC0000000000
FE0000003F00
FE0000007E00
7E0000007E00
7E000000FC00
7F000001F800
3F000003F800
3F800007F000
1FC0000FE000
1FF0003FC000
0FFC01FF8000
07FFFFFF0000
03FFFFFE0000
01FFFFF80000
007FFFE00000
001FFF000000
ENDCHAR
STARTCHAR 0044
ENCODING 68
SWIDTH 675 0
DWIDTH 45 0
BBX 42 47 5 0
BITMAP
00FFFFE00000
00FFFFFF0000
00FFFFFFC000
01FFFFFFF000
01FFFFFFF800
01FFFFFFFC00
01F80007FE00
01F00001FF00
01F00000FF00
03F000007F80
03F000003F80
03F000001FC0
03E000001FC0
03E000000FC0
03E000000FC0
07E000000FC0
07E000000FC0
07E000000FC0
07C000000FC0
07C000000FC0
0FC000000FC0
0FC000000FC0
0FC000000FC0
0FC000000FC0
0F8000000FC0
0F8000000FC0
1F8000001F80
1F8000001F80
1F8000001F80
1F8000003F00
1F0000003F00
1F0000007F00
3F0000007E00
3F000000FE00
3F000001FC00
3F000001F800
3E000003F800
3E000007F000
7E00001FE000
7E00003FC000
7E0000FF8000
7E000FFF0000
7FFFFFFE0000
7FFFFFFC0000
FFFFFFF00000
FFFFFFC00000
FFFFFC000000
ENDCHAR
STARTCHAR 0045
ENCODING 69
SWIDTH 555 0
DWIDTH 37 0
BBX 37 47 5 0
BITMAP
00FFFFFFF8
00FFFFFFF8
00FFFFFFF0
01FFFFFFF0
01FFFFFFF0
01FFFFFFF0
01F8000000
01F8000000
01F0000000
03F0000000
03F0000000
03F0000000
03F0000000
03F0000000
03E0000000
07E0000000
07E0000000
07E0000000
07E0000000
07E0000000
0FC0000000
0FFFFFFC00
0FFFFFFC00
0FFFFFFC00
0FFFFFFC00
0FFFFFFC00
1F80000000
1F80000000
1F80000000
1F80000000
1F80000000
1F00000000
3F00000000
3F00000000
3F00000000
3F00000000
3F00000000
3E00000000
7E00000000
7E00000000
7E00000000
7E00000000
7FFFFFF800
7FFFFFF800
FFFFFFF800
FFFFFFF800
FFFFFFF800
ENDCHAR
STARTCHAR 0046
ENCODING 70
SWIDTH 510 0
DWIDTH 34 0
BBX 36 47 5 0
BITMAP
00FFFFFFF0
00FFFFFFF0
00FFFFFFE0
01FFFFFFE0
01FFFFFFE0
01FFFFFFE0
01F8000000
01F8000000
01F0000000
03F0000000
03F0000000
03F0000000
03F0000000
03F0000000
03E0000000
07E0000000
07E0000000
07E0000000
07E0000000
07E0000000
0FC0000000
0FFFFFFC00
0FFFFFF800
0FFFFFF800
0FFFFFF800
0FFFFFF800
1F80000000
1F80000000
1F80000000
1F80000000
1F80000000
1F00000000
3F00000000
3F00000000
3F00000000
3F00000000
3F00000000
3E00000000
7E00000000
7E00000000
7E00000000
7E00000000
7E00000000
7C00000000
FC00000000
FC00000000
FC00000000
ENDCHAR
STARTCHAR 0047
ENCODING 71
SWIDTH 705 0
DWIDTH 47 0
BBX 42 48 7 0
BITMAP
000001F00000
00003FFF8000
0000FFFFE000
0003FFFFF000
000FFFFFF800
001FFFFFFC00
003FE003FE00
007F8000FF00
00FE00007F00
01FC00003F80
03F800001F80
03F000001F80
07E000001FC0
0FE000000FC0
0FC000000FC0
1F8000000000
1F8000000000
3F0000000000
3F0000000000
3F0000000000
7E0000000000
7E0000000000
7E0000000000
7E0000000000
FC0003FFFF80
FC0003FFFF00
FC0003FFFF00
FC0003FFFF00
FC0000003F00
FC0000003F00
FC0000003F00
FC0000003E00
FC0000007E00
FC0000007E00
FC0000007E00
7E000000FE00
7E000000FE00
7E000001FC00
7F000003FC00
3F800007FC00
3FC0000FFC00
1FE0003F7C00
0FF800FE7C00
0FFF9FFC7800
07FFFFF87800
01FFFFF0F800
00FFFFC0F800
003FFF00F800
ENDCHAR
STARTCHAR 0048
ENCODING 72
SWIDTH 675 0
DWIDTH 45 0
BBX 43 47 5 0
BITMAP
00FC000007E0
00F8000007E0
00F8000007E0
01F8000007E0
01F8000007E0
01F8000007C0
01F800000FC0
01F000000FC0
01F000000FC0
03F000000FC0
03F000000F80
03F000000F80
03F000001F80
03E000001F80
03E000001F80
07E000001F80
07E000001F00
07E000003F00
07E000003F00
07C000003F00
0FC000003F00
0FFFFFFFFF00
0FFFFFFFFE00
0FFFFFFFFE00
0FFFFFFFFE00
0FFFFFFFFE00
1F8000007E00
1F8000007E00
1F8000007C00
1F800000FC00
1F800000FC00
1F000000FC00
3F000000FC00
3F000000FC00
3F000000F800
3F000001F800
3F000001F800
3E000001F800
7E000001F800
7E000001F800
7E000001F000
7E000003F000
7E000003F000
7C000003F000
FC000003F000
FC000003F000
FC000003E000
ENDCHAR
STARTCHAR 0049
ENCODING 73
SWIDTH 240 0
DWIDTH 16 0
BBX 14 47 5 0
BITMAP
00FC
00FC
00FC
00F8
01F8
01F8
01F8
01F8
01F8
01F0
03F0
03F0
03F0
03F0
03F0
03E0
07E0
07E0
07E0
07E0
07E0
07C0
0FC0
0FC0
0FC0
0FC0
0FC0
1F80
1F80
1F80
1F80
1F80
1F00
3F00
3F00
3F00
3F00
3F00
3E00
7E00
7E00
7E00
7E00
7E00
7C00
FC00
FC00
ENDCHAR
STARTCHAR 004A
ENCODING 74
SWIDTH 345 0
DWIDTH 23 0
BBX 22 47 3 0
BITMAP
00007C
0000FC
0000FC
0000FC
0000FC
0000F8
0000F8
0001F8
0001F8
0001F8
0001F8
0001F0
0001F0
0003F0
0003F0
0003F0
0003F0
0003E0
0003E0
0007E0
0007E0
0007E0
0007E0
0007C0
0007C0
000FC0
000FC0
000FC0
000FC0
000F80
001F80
001F80
001F80
001F80
001F80
001F00
003F00
003F00
003F00
003F00
007E00
00FE00
03FC00
7FFC00
7FF800
7FF000
FFC000
ENDCHAR
STARTCHAR 004B
ENCODING 75
SWIDTH 615 0
DWIDTH 41 0
BBX 39 47 5 0
BITMAP
00FC0000FE
00F80001FC
01F80003F8
01F80007F0
01F8000FE0
01F8001FC0
01F0003F80
01F0007F00
03F000FE00
03F001F800
03F003F000
03F00FE000
03E01FC000
03E03F8000
07E07F0000
07E0FE0000
07E1FC0000
07E3F80000
07C7F00000
07CFE00000
0FDFC00000
0FFFC00000
0FFFE00000
0FFFE00000
0FFFF00000
1FF3F80000
1FE3F80000
1FC1FC0000
1F80FC0000
1F80FE0000
1F007E0000
3F007F0000
3F003F8000
3F003F8000
3F001FC000
3F000FC000
3E000FE000
7E0007E000
7E0007F000
7E0003F800
7E0003F800
7E0001FC00
7C0000FC00
FC0000FE00
FC00007E00
FC00007F00
FC00003F80
ENDCHAR
STARTCHAR 004C
ENCODING 76
SWIDTH 525 0
DWIDTH 35 0
BBX 28 47 5 0
BITMAP
00FC0000
00FC0000
00F80000
01F80000
01F80000
01F80000
01F80000
01F80000
01F00000
03F00000
03F00000
03F00000
03F00000
03E00000
03E00000
07E00000
07E00000
07E00000
07E00000
07C00000
0FC00000
0FC00000
0FC00000
0FC00000
0FC00000
0F800000
1F800000
1F800000
1F800000
1F800000
1F800000
1F000000
3F000000
3F000000
3F000000
3F000000
3F000000
3E000000
7E000000
7E000000
7E000000
7E000000
7FFFFFF0
7FFFFFF0
FFFFFFF0
FFFFFFF0
FFFFFFF0
ENDCHAR
STARTCHAR 004D
ENCODING 77
SWIDTH 810 0
DWIDTH 54 0
BBX 53 47 5 0
BITMAP
00FF0000000FF8
00FF8000000FF8
00FF8000001FF0
01FF8000001FF0
01FF8000003FF0
01FFC000007FF0
01FFC000007FF0
01FFC00000FFF0
01FFC00000FFE0
03FFC00001FBE0
03F7E00001FFE0
03F7E00003F7E0
03F7E00003F7E0
03E7E00007E7E0
03E3E0000FC7C0
07E3F0000FC7C0
07E3F0001F8FC0
07E3F0001F8FC0
07E3F0003F0FC0
07C1F8003F0FC0
0FC1F8007E0F80
0FC1F800FE0F80
0FC1F800FC1F80
0FC1F801F81F80
0FC0FC01F81F80
0F80FC03F01F80
1F80FC03F01F00
1F80FC07E01F00
1F80FC07E03F00
1F807E0FC03F00
1F807E1FC03F00
1F007E1F803F00
3F007E3F803E00
3F007F3F007E00
3F003F7E007E00
3F003F7E007E00
3E003FFC007E00
3E003FFC007E00
7E001FF8007C00
7E001FF800FC00
7E001FF000FC00
7E001FF000FC00
7C001FE000FC00
7C000FC000F800
FC000FC000F800
FC000F8001F800
FC000F8001F800
ENDCHAR
STARTCHAR 004E
ENCODING 78
SWIDTH 705 0
DWIDTH 47 0
BBX 45 47 5 0
BITMAP
00FC000000F8
00FE000001F8
00FE000001F8
01FF000001F8
01FF000001F8
01FF800001F0
01FF800001F0
01FFC00003F0
01FFC00003F0
03FFE00003F0
03FFE00003F0
03F7F00003E0
03F7F00003E0
03E3F80007E0
03E3F80007E0
07E1FC0007E0
07E0FC0007E0
07E0FE0007C0
07E07E0007C0
07C07F000FC0
0FC03F000FC0
0FC03F800FC0
0FC01F800FC0
0FC01FC00F80
0FC00FC01F80
0F800FE01F80
1F8007E01F80
1F8007F01F80
1F8003F01F80
1F8003F81F00
1F8001F83F00
1F0001FC3F00
3F0000FC3F00
3F0000FE3F00
3F00007E3F00
3F00007F3E00
3E00003F7E00
3E00003FFE00
7E00001FFE00
7E00001FFE00
7E00000FFE00
7E00000FFC00
7C000007FC00
7C000007FC00
FC000003FC00
FC000003FC00
FC000001FC00
ENDCHAR
STARTCHAR 004F
ENCODING 79
SWIDTH 735 0
DWIDTH 49 0
BBX 43 48 7 0
BITMAP
000001F80000
00003FFF8000
0000FFFFE000
0003FFFFF800
000FFFFFFC00
001FFFFFFE00
003FE003FE00
007F8000FF00
00FF00007F80
01FC00003F80
03F800001FC0
07F000001FC0
07F000000FC0
0FE000000FC0
0FC000000FE0
1FC0000007E0
1F80000007E0
3F80000007E0
3F00000007E0
3F00000007E0
7E00000007E0
7E00000007E0
7E00000007E0
7E00000007E0
FC0000000FE0
FC0000000FC0
FC0000000FC0
FC0000000FC0
FC0000000FC0
FC0000001F80
FC0000001F80
FC0000003F80
FC0000003F00
FC0000007F00
FE0000007E00
FE000000FE00
7E000001FC00
7F000003F800
7F800007F800
3F80000FF000
3FC0001FE000
1FF0007FC000
0FFC01FF8000
0FFFFFFF0000
07FFFFFC0000
01FFFFF80000
00FFFFE00000
001FFF000000
ENDCHAR
STARTCHAR 0050
ENCODING 80
SWIDTH 585 0
DWIDTH 39 0
BBX 38 47 5 0
BITMAP
00FFFFC000
00FFFFFE00
00FFFFFF80
01FFFFFFC0
01FFFFFFE0
01FFFFFFF0
01F8000FF0
01F00007F8
01F00001F8
03F00001F8
03F00000F8
03F00000FC
03E00000FC
03E00000FC
03E00000FC
07E00000F8
07E00000F8
07E00001F8
07C00001F8
07C00001F0
0FC00003F0
0FC00007E0
0FC0000FE0
0FC0001FC0
0F80007F80
0F8003FF00
1FFFFFFE00
1FFFFFFC00
1FFFFFF000
1FFFFFC000
1FFFFE0000
1F00000000
3F00000000
3F00000000
3F00000000
3F00000000
3E00000000
3E00000000
7E00000000
7E00000000
7E00000000
7E00000000
7C00000000
7C00000000
FC00000000
FC00000000
FC00000000
ENDCHAR
STARTCHAR 0051
ENCODING 81
SWIDTH 720 0
DWIDTH 48 0
BBX 43 52 7 -4
BITMAP
000001F80000
00003FFF8000
0000FFFFE000
0003FFFFF800
000FFFFFFC00
001FFFFFFE00
003FE003FE00
007F8000FF00
00FF00007F80
01FC00003F80
03F800001FC0
07F000001FC0
07F000000FC0
0FE000000FC0
0FC000000FE0
1FC0000007E0
1F80000007E0
3F80000007E0
3F00000007E0
3F00000007E0
7E00000007E0
7E00000007E0
7E00000007E0
7E00000007E0
FC0000000FE0
FC0000000FC0
FC0000000FC0
FC0000000FC0
FC0000001FC0
FC0000001F80
FC003E001F80
FC001F003F80
FC001F803F00
FC000F807F00
FE000FC07E00
FE0007E0FE00
7E0003E1FC00
7F0003F3FC00
7F8001F7F800
3F8000FFF000
3FC000FFE000
1FF0007FC000
0FFC01FF8000
0FFFFFFF0000
07FFFFFF0000
01FFFFFF8000
00FFFFEF8000
001FFF0FC000
00000007E000
00000003E000
00000003F000
00000001F000
ENDCHAR
STARTCHAR 0052
ENCODING 82
SWIDTH 600 0
DWIDTH 40 0
BBX 38 47 5 0
BITMAP
00FFFFE000
00FFFFFE00
00FFFFFF80
01FFFFFFC0
01FFFFFFE0
01FFFFFFF0
01F8000FF8
01F00003F8
01F00001F8
03F00000FC
03F00000FC
03F00000FC
03F00000FC
03E00000FC
03E00000FC
07E00000F8
07E00001F8
07E00001F8
07E00003F0
07C00003F0
0FC00007E0
0FC0001FE0
0FC0007FC0
0FFFFFFF80
0FFFFFFF00
0FFFFFFC00
1FFFFFF000
1FFFFFC000
1F807F0000
1F803F0000
1F803F8000
1F001F8000
3F001F8000
3F000FC000
3F000FC000
3F0007E000
3F0007E000
3E0003F000
7E0003F000
7E0001F800
7E0001F800
7E0001FC00
7E0000FC00
7C0000FE00
FC00007E00
FC00007F00
FC00003F00
ENDCHAR
STARTCHAR 0053
ENCODING 83
SWIDTH 585 0
DWIDTH 39 0
BBX 37 49 5 -1
BITMAP
00000FC000
0000FFFC00
0003FFFE00
000FFFFF80
001FFFFFC0
003FF9FFE0
007F801FE0
00FE000FF0
01FC0007F0
01F80003F8
03F00003F8
03F00003F8
03F00001F8
07E00001F8
07E00001F8
07E0000000
07E0000000
07F0000000
03F8000000
03FC000000
03FF000000
01FFF00000
00FFFF8000
007FFFF000
001FFFFC00
0007FFFE00
00003FFF00
000001FF80
0000007F80
0000003FC0
0000001FC0
0000000FC0
0000000FC0
FE00000FC0
FE00000FC0
7E00000FC0
7E00001FC0
7F00001F80
7F00003F80
7F00003F00
3F8000FF00
3FC001FE00
1FF007FC00
1FFFFFF800
0FFFFFF000
07FFFFC000
01FFFF8000
007FFC0000
0001800000
ENDCHAR
STARTCHAR 0054
ENCODING 84
SWIDTH 585 0
DWIDTH 39 0
BBX 34 47 10 0
BITMAP
7FFFFFFFC0
7FFFFFFFC0
7FFFFFFFC0
FFFFFFFFC0
FFFFFFFFC0
FFFFFFFF80
0003E00000
0007E00000
0007E00000
0007E00000
0007E00000
0007E00000
0007C00000
000FC00000
000FC00000
000FC00000
000FC00000
000FC00000
000F800000
001F800000
001F800000
001F800000
001F800000
001F000000
001F000000
003F000000
003F000000
003F000000
003F000000
003E000000
003E000000
007E000000
007E000000
007E000000
007E000000
007C000000
00FC000000
00FC000000
00FC000000
00FC000000
00FC000000
00F8000000
01F8000000
01F8000000
01F8000000
01F8000000
01F8000000
ENDCHAR
STARTCHAR 0055
ENCODING 85
SWIDTH 675 0
DWIDTH 45 0
BBX 42 48 7 -1
BITMAP
07E000000FC0
07E000000FC0
07E000000FC0
07C000000FC0
07C000000FC0
0FC000000F80
0FC000001F80
0FC000001F80
0FC000001F80
0F8000001F80
0F8000001F00
1F8000001F00
1F8000003F00
1F8000003F00
1F8000003F00
1F0000003F00
1F0000003E00
3F0000003E00
3F0000007E00
3F0000007E00
3F0000007E00
3E0000007E00
3E0000007C00
7E0000007C00
7E000000FC00
7E000000FC00
7E000000FC00
7C000000FC00
7C000000F800
FC000001F800
FC000001F800
FC000001F800
FC000003F000
FC000003F000
FC000007E000
7E000007E000
7E00000FC000
7F00001FC000
7F00001F8000
3F80007F8000
3FC000FF0000
1FF007FE0000
1FFFFFFC0000
0FFFFFF80000
07FFFFE00000
01FFFFC00000
007FFE000000
000380000000
ENDCHAR
STARTCHAR 0056
ENCODING 86
SWIDTH 630 0
DWIDTH 42 0
BBX 40 47 9 0
BITMAP
FC0000003F
FC0000003F
FC0000007E
FC0000007E
7C000000FC
7E000000FC
7E000001F8
7E000001F8
7E000003F0
7E000003E0
3F000007E0
3F000007C0
3F00000FC0
3F00000F80
3F00001F80
1F00001F00
1F80003F00
1F80003E00
1F80007E00
1F8000FC00
1F8000FC00
0F8001F800
0FC001F800
0FC003F000
0FC003F000
0FC007E000
07C007E000
07C00FC000
07E00FC000
07E01F8000
07E01F8000
07E03F0000
03E03F0000
03F07E0000
03F07E0000
03F0FC0000
03F0FC0000
03F1F80000
01F1F80000
01FBF00000
01FBF00000
01FFE00000
01FFC00000
00FFC00000
00FF800000
00FF800000
00FF000000
ENDCHAR
STARTCHAR 0057
ENCODING 87
SWIDTH 990 0
DWIDTH 66 0
BBX 64 47 9 0
BITMAP
FC000007E000003F
FC000007E000003F
FC00000FE000007E
FC00000FE000007E
FC00001FE000007C
FC00001FE00000FC
7C00003FF00000F8
7C00003FF00001F8
7C00007FF00001F8
7C00007FF00003F0
7E0000FDF00003F0
7E0000FDF00003E0
7E0001F9F80007E0
7E0001F9F80007C0
7E0003F1F8000FC0
7E0003F1F8000F80
3E0007E0F8001F80
3E0007E0F8001F80
3E000FC0F8001F00
3E000FC0FC003F00
3E001F80FC003E00
3F001F80FC007E00
3F003F00FC007C00
3F003F007C00FC00
3F007E007C00FC00
3F007E007E01F800
3F00FC007E01F800
1F00FC007E01F000
1F01F8007E03F000
1F01F8007E03E000
1F03F0003E07E000
1F03F0003E07C000
1F87E0003F0FC000
1F87E0003F0FC000
1F8FC0003F0F8000
1F8FC0003F1F8000
1F9F80003F1F0000
0F9F80001F3F0000
0FBF00001F3E0000
0FBF00001FFE0000
0FFE00001FFE0000
0FFE00001FFC0000
0FFC00001FFC0000
0FFC00000FF80000
0FF800000FF80000
0FF800000FF00000
0FF000000FF00000
ENDCHAR
STARTCHAR 0058
ENCODING 88
SWIDTH 645 0
DWIDTH 43 0
BBX 46 47 3 0
BITMAP
00FC000000FC
00FE000001F8
007E000003F0
007F000007F0
003F00000FE0
003F80000FC0
001F80001F80
001FC0003F00
000FC0007E00
000FE000FE00
0007E001FC00
0007F001F800
0003F003F000
0003F807E000
0001F80FC000
0001F81FC000
0000FC3F8000
0000FC3F0000
00007E7E0000
00007EFC0000
00003FF80000
00003FF80000
00001FF00000
00001FE00000
00003FE00000
00003FF00000
00007FF00000
0000FFF80000
0001FDF80000
0003F9FC0000
0007F0FC0000
0007E0FE0000
000FC07E0000
001F807F0000
003F803F0000
007F003F8000
00FE001F8000
00FC001FC000
01F8000FC000
03F0000FE000
07F00007E000
0FE00007F000
1FC00003F000
1F800003F800
3F000001F800
7E000001FC00
FE000000FC00
ENDCHAR
STARTCHAR 0059
ENCODING 89
SWIDTH 600 0
DWIDTH 40 0
BBX 36 47 10 0
BITMAP
FE000003F0
7E000007F0
7E000007E0
7F00000FC0
3F00001FC0
3F00001F80
3F00003F00
1F80007F00
1F80007E00
1F8000FC00
0FC001F800
0FC001F800
0FC003F000
07E007E000
07E007E000
07E00FC000
03F01F8000
03F01F8000
03F03F0000
01F87E0000
01F87E0000
01F8FC0000
00FDF80000
00FDF80000
00FFF00000
007FE00000
007FE00000
007FC00000
003F800000
003F800000
003F000000
003F000000
003F000000
003F000000
003E000000
007E000000
007E000000
007E000000
007E000000
007E000000
007C000000
00FC000000
00FC000000
00FC000000
00FC000000
00FC000000
00F8000000
ENDCHAR
STARTCHAR 005A
ENCODING 90
SWIDTH 600 0
DWIDTH 40 0
BBX 40 47 4 0
BITMAP
01FFFFFFFF
01FFFFFFFF
01FFFFFFFF
01FFFFFFFF
01FFFFFFFF
01FFFFFFFF
00000000FE
00000001FC
00000003F8
00000007F0
0000000FE0
0000001FC0
0000001F80
0000003F80
0000007F00
000000FE00
000001FC00
000003F800
000007F000
00000FE000
00001FC000
00003F8000
00003F0000
00007F0000
0000FE0000
0001FC0000
0003F80000
0007F00000
000FE00000
001FC00000
003F800000
007F000000
007E000000
00FE000000
01FC000000
03F8000000
07F0000000
0FE0000000
1FC0000000
3F80000000
7F00000000
FE00000000
FFFFFFFF80
FFFFFFFF80
FFFFFFFF80
FFFFFFFF80
FFFFFFFF80
ENDCHAR
STARTCHAR 005B
ENCODING 91
SWIDTH 435 0
DWIDTH 29 0
BBX 31 66 3 -12
BITMAP
000FFFFE
000FFFFE
001FFFFC
001FFFFC
001F0000
001F0000
001E0000
001E0000
003E0000
003E0000
003E0000
003E0000
003C0000
003C0000
007C0000
007C0000
007C0000
007C0000
00780000
00F80000
00F80000
00F80000
00F80000
00F00000
00F00000
01F00000
01F00000
01F00000
01F00000
01E00000
01E00000
03E00000
03E00000
03E00000
03E00000
03C00000
03C00000
07C00000
07C00000
07C00000
07C00000
07800000
0F800000
0F800000
0F800000
0F800000
0F000000
0F000000
1F000000
1F000000
1F000000
1F000000
1E000000
1E000000
3E000000
3E000000
3E000000
3E000000
3C000000
7C000000
7C000000
7FFFF000
7FFFF000
7FFFF000
7FFFE000
FFFFE000
ENDCHAR
STARTCHAR 005C
ENCODING 92
SWIDTH 510 0
DWIDTH 34 0
BBX 22 64 7 -10
BITMAP
FC0000
FC0000
7C0000
7E0000
7E0000
3E0000
3E0000
3F0000
3F0000
1F0000
1F0000
1F8000
1F8000
0F8000
0F8000
0FC000
0FC000
07C000
07E000
07E000
07E000
03E000
03F000
03F000
01F000
01F000
01F800
01F800
00F800
00F800
00FC00
00FC00
007C00
007C00
007E00
007E00
003E00
003F00
003F00
003F00
001F00
001F80
001F80
000F80
000F80
000FC0
000FC0
0007C0
0007C0
0007E0
0007E0
0003E0
0003E0
0003F0
0003F0
0001F0
0001F8
0001F8
0000F8
0000F8
0000FC
0000FC
00007C
00007C
ENDCHAR
STARTCHAR 005D
ENCODING 93
SWIDTH 435 0
DWIDTH 29 0
BBX 30 66 3 -12
BITMAP
001FFFFC
001FFFFC
001FFFFC
001FFFFC
00000078
00000078
000000F8
000000F8
000000F8
000000F8
000000F0
000000F0
000001F0
000001F0
000001F0
000001F0
000001E0
000003E0
000003E0
000003E0
000003E0
000003C0
000003C0
000007C0
000007C0
000007C0
000007C0
00000780
00000780
00000F80
00000F80
00000F80
00000F80
00000F00
00001F00
00001F00
00001F00
00001F00
00001E00
00001E00
00003E00
00003E00
00003E00
00003E00
00003C00
00003C00
00007C00
00007C00
00007C00
00007C00
00007800
0000F800
0000F800
0000F800
0000F800
0000F000
0000F000
0001F000
0001F000
0001F000
0001F000
7FFFE000
FFFFE000
FFFFE000
FFFFE000
FFFFE000
ENDCHAR
STARTCHAR 005E
ENCODING 94
SWIDTH 405 0
DWIDTH 27 0
BBX 23 12 9 38
BITMAP
007F80
00FFC0
00FFC0
01F7E0
03E3E0
07C3F0
0FC1F0
1F81F8
3F00FC
7E00FC
FC007E
F8003E
ENDCHAR
STARTCHAR 005F
ENCODING 95
SWIDTH 705 0
DWIDTH 47 0
BBX 33 5 7 0
BITMAP
7FFFFFFF80
7FFFFFFF80
7FFFFFFF80
7FFFFFFF80
FFFFFFFF80
ENDCHAR
STARTCHAR 0060
ENCODING 96
SWIDTH 240 0
DWIDTH 16 0
BBX 10 12 12 41
BITMAP
FC00
FC00
7C00
7E00
3E00
3E00
1F00
1F00
0F80
0F80
0780
07C0
ENDCHAR
STARTCHAR 0061
ENCODING 97
SWIDTH 600 0
DWIDTH 40 0
BBX 37 36 5 0
BITMAP
0003FE0000
000FFF81F8
003FFFC1F0
007FFFE3F0
00FFFFF3F0
01FF01F3F0
03FC007BF0
07F0003FF0
0FE0001FE0
0FC0001FE0
1F80001FE0
1F80000FE0
3F00000FE0
3F00000FC0
7E00000FC0
7E00000FC0
7E00000FC0
7E00000FC0
FC00000FC0
FC00001F80
FC00001F80
FC00001F80
FC00001F80
FC00003F80
FC00003F80
FE00007F00
FE0000FF00
7E0001FF00
7F0003FF00
7F8007BF00
3FC01F3F00
3FFFFF3E00
1FFFFC7E00
0FFFF87E00
07FFF07E00
01FFC07E00
ENDCHAR
STARTCHAR 0062
ENCODING 98
SWIDTH 615 0
DWIDTH 41 0
BBX 36 50 5 0
BITMAP
00FC000000
00FC000000
00FC000000
00FC000000
00F8000000
00F8000000
01F8000000
01F8000000
01F8000000
01F8000000
01F0000000
03F0000000
03F0000000
03F0000000
03F00FF000
03F07FFE00
03E0FFFF00
07E3FFFF80
07E7FFFFC0
07EFC07FE0
07EF001FE0
07FE000FE0
07FC0007F0
0FF80007F0
0FF00003F0
0FE00003F0
0FE00003F0
0FC00003F0
0FC00003F0
1F800003F0
1F800003F0
1F800003F0
1F800003F0
1F800003F0
1F800003F0
3F800007E0
3F800007E0
3F800007E0
3F80000FC0
3F80001FC0
3F80001F80
7FC0003F80
7FC0007F00
7EE000FE00
7EF803FC00
7C7FBFFC00
7C7FFFF000
FC3FFFE000
FC1FFFC000
FC07FE0000
ENDCHAR
STARTCHAR 0063
ENCODING 99
SWIDTH 555 0
DWIDTH 37 0
BBX 33 36 5 0
BITMAP
0000FF8000
0007FFE000
001FFFF800
007FFFFC00
00FFFFFE00
01FF01FF00
03F8007F00
07F0003F00
0FE0001F80
0FC0001F80
1F80001F80
1F80000F80
3F00000F80
3F00000F80
7E00000000
7E00000000
7E00000000
7C00000000
7C00000000
FC00000000
FC00000000
FC00000000
FC00000000
FC00003F00
FC00003E00
7E00007E00
7E0000FC00
7E0000FC00
7F0001F800
3F8003F000
3FC00FF000
1FFCFFE000
0FFFFFC000
07FFFF0000
03FFFE0000
00FFF00000
ENDCHAR
STARTCHAR 0064
ENCODING 100
SWIDTH 600 0
DWIDTH 40 0
BBX 39 50 5 0
BITMAP
000000007E
000000007E
000000007E
000000007E
000000007C
00000000FC
00000000FC
00000000FC
00000000FC
00000000FC
00000000F8
00000001F8
00000001F8
00000001F8
0001FE01F8
000FFF81F8
003FFFC1F0
007FFFE3F0
00FFFFF3F0
01FF01FBF0
03FC007BF0
07F0003FF0
0FE0003FE0
0FC0001FE0
1FC0001FE0
1F80000FE0
3F00000FE0
3F00000FE0
7E00000FC0
7E00000FC0
7E00000FC0
7E00000FC0
7C00000FC0
FC00000FC0
FC00001F80
FC00001F80
FC00001F80
FC00003F80
FC00003F80
FE00007F00
7E0000FF00
7E0001FF00
7F0003FF00
7F8007BF00
3FC00F3F00
3FFFFF3E00
1FFFFC3E00
0FFFF87E00
07FFF07E00
01FFC07E00
ENDCHAR
STARTCHAR 0065
ENCODING 101
SWIDTH 555 0
DWIDTH 37 0
BBX 33 36 5 0
BITMAP
0001FFE000
000FFFF800
003FFFFC00
007FFFFE00
00FF83FF00
03FC007F00
03F0003F80
07E0001F80
0FC0001F80
1F80000F80
1F80001F80
3F00001F80
3F00001F80
3E00003F00
7E00007F00
7E000FFE00
7FFFFFFC00
7FFFFFF000
7FFFFFC000
FFFFF80000
FC00000000
FC00000000
FC00000000
FC00000000
7C00000000
7E00007E00
7E00007C00
7E0000FC00
3F0001F800
3F8007F800
1FE00FF000
1FFFFFE000
0FFFFFC000
07FFFF0000
01FFFE0000
007FF00000
ENDCHAR
STARTCHAR 0066
ENCODING 102
SWIDTH 360 0
DWIDTH 24 0
BBX 33 65 -3 -16
BITMAP
000000FF80
000003FF80
000007FF80
00000FFF80
00001FE000
00001F8000
00003F0000
00003F0000
00003F0000
00003F0000
00003E0000
00007E0000
00007E0000
00007E0000
000FFFFE00
000FFFFE00
000FFFFE00
001FFFFC00
0000FC0000
0000FC0000
0000FC0000
0000F80000
0001F80000
0001F80000
0001F80000
0001F80000
0001F80000
0001F00000
0003F00000
0003F00000
0003F00000
0003F00000
0003F00000
0003E00000
0007E00000
0007E00000
0007E00000
0007E00000
0007E00000
0007C00000
000FC00000
000FC00000
000FC00000
000FC00000
000FC00000
000F800000
001F800000
001F800000
001F800000
001F800000
001F000000
003F000000
003F000000
003F000000
003F000000
003F000000
003E000000
007E000000
007E000000
00FE000000
01FC000000
FFF8000000
FFF8000000
FFE0000000
FF80000000
ENDCHAR
STARTCHAR 0067
ENCODING 103
SWIDTH 600 0
DWIDTH 40 0
BBX 37 50 5 -14
BITMAP
0003FE0000
001FFF81F8
003FFFC1F0
00FFFFE3F0
01FFFFF3F0
03FF01F3F0
07FC007BF0
07F0003BF0
0FE0001FE0
1FC0001FE0
1F80000FE0
3F80000FE0
3F00000FE0
3F00000FC0
7E00000FC0
7E00000FC0
7E00000FC0
7E00000FC0
7E00000FC0
FE00001F80
FC00001F80
FC00001F80
FE00003F80
FE00003F80
FE00007F80
7E0000FF00
7F0000FF00
7F0001FF00
7F8007BF00
3FE00FBF00
1FFFFF3F00
1FFFFE3E00
0FFFF87E00
07FFF07E00
01FFC07E00
0000007E00
0000007C00
000000FC00
000000FC00
000001F800
000001F800
000003F000
000007F000
00001FE000
00807FC000
00FFFF8000
01FFFF0000
01FFFC0000
01FFF00000
00FFC00000
ENDCHAR
STARTCHAR 0068
ENCODING 104
SWIDTH 600 0
DWIDTH 40 0
BBX 35 50 5 0
BITMAP
00FC000000
00FC000000
00FC000000
00FC000000
00F8000000
00F8000000
01F8000000
01F8000000
01F8000000
01F8000000
01F0000000
01F0000000
03F0000000
03F0000000
03F00FF000
03F07FFE00
03E0FFFF00
03E3FFFF80
07E7FFFF80
07EFC0FFC0
07EE003FC0
07FC001FE0
07F8000FE0
0FF00007E0
0FE00007E0
0FE00007E0
0FC00007E0
0FC00007E0
0F800007E0
1F800007E0
1F800007E0
1F800007C0
1F800007C0
1F80000FC0
1F00000FC0
3F00000FC0
3F00000FC0
3F00000F80
3F00001F80
3F00001F80
3E00001F80
7E00001F80
7E00001F80
7E00001F00
7E00003F00
7E00003F00
7C00003F00
FC00003F00
FC00003F00
FC00003E00
ENDCHAR
STARTCHAR 0069
ENCODING 105
SWIDTH 240 0
DWIDTH 16 0
BBX 14 49 6 0
BITMAP
00F8
01FC
01FC
03FC
03FC
03F8
01F0
0000
0000
0000
0000
0000
0000
0000
07E0
07E0
07E0
07E0
07C0
0FC0
0FC0
0FC0
0FC0
0FC0
0F80
1F80
1F80
1F80
1F80
1F80
1F00
3F00
3F00
3F00
3F00
3F00
3E00
7E00
7E00
7E00
7E00
7C00
7C00
FC00
FC00
FC00
FC00
F800
F800
ENDCHAR
STARTCHAR 006A
ENCODING 106
SWIDTH 240 0
DWIDTH 16 0
BBX 25 64 -5 -15
BITMAP
00000F00
00001F80
00003F80
00003F80
00003F80
00003F00
00001E00
00000000
00000000
00000000
00000000
00000000
00000000
00007E00
00007C00
0000FC00
0000FC00
0000FC00
0000FC00
0000FC00
0000F800
0001F800
0001F800
0001F800
0001F800
0001F000
0001F000
0003F000
0003F000
0003F000
0003F000
0003E000
0003E000
0007E000
0007E000
0007E000
0007E000
0007C000
0007C000
000FC000
000FC000
000FC000
000FC000
000F8000
001F8000
001F8000
001F8000
001F8000
001F8000
001F0000
003F0000
003F0000
003F0000
003F0000
003F0000
007E0000
007E0000
00FE0000
01FC0000
7FFC0000
FFF80000
FFF00000
FFC00000
1E000000
ENDCHAR
STARTCHAR 006B
ENCODING 107
SWIDTH 510 0
DWIDTH 34 0
BBX 32 50 5 0
BITMAP
007C0000
00FC0000
00FC0000
00FC0000
00FC0000
00FC0000
00F80000
01F80000
01F80000
01F80000
01F80000
01F80000
01F00000
03F00000
03F00000
03F0007F
03F001FC
03F003F8
03E007F0
07E00FE0
07E01FC0
07E03F80
07E0FE00
07E1FC00
07C3F800
0FC7F000
0FCFE000
0FDFC000
0FFF0000
0FFE0000
1FFC0000
1FFC0000
1FFE0000
1FBF0000
1FBF0000
1F9F8000
3F0FC000
3F0FC000
3F07E000
3F07F000
3F03F000
3E01F800
7E01FC00
7E00FC00
7E007E00
7E007F00
7E003F00
7C001F80
FC001FC0
FC000FC0
ENDCHAR
STARTCHAR 006C
ENCODING 108
SWIDTH 300 0
DWIDTH 20 0
BBX 13 50 6 0
BITMAP
00F8
01F8
01F8
01F8
01F8
01F8
01F0
03F0
03F0
03F0
03F0
03F0
03E0
07E0
07E0
07E0
07E0
07E0
07C0
0FC0
0FC0
0FC0
0FC0
0F80
0F80
1F80
1F80
1F80
1F80
1F00
3F00
3F00
3F00
3F00
3F00
3E00
7E00
7E00
7E00
7E00
7E00
7C00
FC00
FC00
FE00
FF00
7FF8
7FF8
3FF8
1FF0
ENDCHAR
STARTCHAR 006D
ENCODING 109
SWIDTH 945 0
DWIDTH 63 0
BBX 58 36 5 0
BITMAP
00001FE0000FF000
03F07FF8007FFC00
03E1FFFC01FFFE00
03E3FFFE03FFFF00
07E7FFFF07FFFF80
07EFC3FF8FC1FF80
07EE007F9F007F80
07FC003F9C001FC0
07F8001FF8001FC0
07F0000FF0000FC0
0FE0000FE0000FC0
0FE0000FE0000FC0
0FC0000FC0000FC0
0FC0000FC0000FC0
0F80000FC0000FC0
1F80000FC0000FC0
1F80000F80000FC0
1F80001F80000FC0
1F80001F80000F80
1F80001F80001F80
1F00001F80001F80
3F00001F80001F80
3F00001F00001F80
3F00003F00001F00
3F00003F00001F00
3E00003F00003F00
3E00003F00003F00
7E00003E00003F00
7E00003E00003F00
7E00007E00003E00
7E00007E00003E00
7C00007E00007E00
7C00007E00007E00
FC00007C00007E00
FC00007C00007E00
FC0000FC00007C00
ENDCHAR
STARTCHAR 006E
ENCODING 110
SWIDTH 600 0
DWIDTH 40 0
BBX 35 36 5 0
BITMAP
00000FF000
03F07FFE00
03E0FFFF00
03E3FFFF80
07E7FFFF80
07EFC0FFC0
07EE003FC0
07FC001FE0
07F8000FE0
07F00007E0
0FE00007E0
0FE00007E0
0FC00007E0
0FC00007E0
0F800007E0
1F800007E0
1F800007E0
1F800007C0
1F800007C0
1F80000FC0
1F00000FC0
3F00000FC0
3F00000FC0
3F00000F80
3F00001F80
3F00001F80
3E00001F80
7E00001F80
7E00001F80
7E00001F00
7E00003F00
7E00003F00
7C00003F00
FC00003F00
FC00003F00
FC00003E00
ENDCHAR
STARTCHAR 006F
ENCODING 111
SWIDTH 570 0
DWIDTH 38 0
BBX 34 36 5 0
BITMAP
0000FF8000
0007FFE000
001FFFF800
007FFFFC00
00FFFFFE00
01FE01FE00
03F8007F00
07F0003F00
0FE0003F80
0FC0001F80
1F80001F80
1F80000FC0
3F00000FC0
3F00000FC0
7E00000FC0
7E00000FC0
7E00000FC0
7C00000FC0
FC00000F80
FC00001F80
FC00001F80
FC00001F80
FC00001F00
FC00003F00
FC00003F00
7E00007E00
7E0000FC00
7E0001FC00
7F0003F800
3F8007F000
3FC01FE000
1FFDFFC000
0FFFFF8000
07FFFF0000
03FFFC0000
00FFF00000
ENDCHAR
STARTCHAR 0070
ENCODING 112
SWIDTH 615 0
DWIDTH 41 0
BBX 38 50 3 -14
BITMAP
000003FC00
00FC1FFF80
00F83FFFC0
01F87FFFE0
01F9FFFFF0
01FBF01FF8
01FBC007F8
01FF8003F8
01FF0001FC
03FE0001FC
03FC0000FC
03F80000FC
03F80000FC
03F00000FC
03F00000FC
07E00000FC
07E00000FC
07E00000FC
07E00000FC
07E00000FC
07E00000FC
0FE00001F8
0FE00001F8
0FE00001F8
0FE00003F0
0FE00007F0
0FE00007E0
1FF0000FE0
1FF0001FC0
1FB8003F80
1FBE00FF00
1F1FEFFF00
3F1FFFFC00
3F0FFFF800
3F07FFF000
3F01FF8000
3F00000000
3E00000000
7E00000000
7E00000000
7E00000000
7E00000000
7E00000000
7C00000000
FC00000000
FC00000000
FC00000000
FC00000000
FC00000000
F800000000
ENDCHAR
STARTCHAR 0071
ENCODING 113
SWIDTH 600 0
DWIDTH 40 0
BBX 37 50 5 -14
BITMAP
0001FE0000
000FFF81F8
003FFFC1F0
007FFFE3F0
00FFFFF3F0
01FF01FBF0
03FC007BF0
07F0003FF0
0FE0003FE0
0FC0001FE0
1FC0001FE0
1F80000FE0
3F00000FE0
3F00000FE0
7E00000FC0
7E00000FC0
7E00000FC0
7E00000FC0
7C00000FC0
FC00000F80
FC00001F80
FC00001F80
FC00001F80
FC00003F80
FC00003F80
FE00007F00
7E0000FF00
7E0001FF00
7F0003FF00
7F8007BF00
3FC00F3F00
3FFFFF3E00
1FFFFC7E00
0FFFF87E00
07FFF07E00
01FFC07E00
0000007E00
0000007C00
000000FC00
000000FC00
000000FC00
000000FC00
000000FC00
000000F800
000001F800
000001F800
000001F800
000001F800
000001F800
000001F000
ENDCHAR
STARTCHAR 0072
ENCODING 114
SWIDTH 345 0
DWIDTH 23 0
BBX 24 35 5 0
BITMAP
03E07F
07E1FE
07E7FE
07EFFE
07FFFE
07FF86
07FC00
0FF800
0FF000
0FE000
0FC000
0FC000
0F8000
1F8000
1F8000
1F8000
1F8000
1F0000
1F0000
3F0000
3F0000
3F0000
3F0000
3E0000
3E0000
7E0000
7E0000
7E0000
7E0000
7C0000
FC0000
FC0000
FC0000
FC0000
FC0000
ENDCHAR
STARTCHAR 0073
ENCODING 115
SWIDTH 495 0
DWIDTH 33 0
BBX 29 36 5 0
BITMAP
0007FC00
003FFF80
00FFFFC0
01FFFFE0
03FF3FF0
07F007F0
07E003F8
0FC003F8
0F8001F8
1F8001F8
1F8001F8
1F800000
1F800000
1FC00000
0FE00000
0FFE0000
07FFF000
03FFFE00
00FFFF00
003FFFC0
0000FFC0
00001FE0
000007E0
000007E0
FC0007E0
FC0007E0
FC0007E0
FC0007E0
FE000FC0
FE001FC0
7F003F80
7FE3FF00
3FFFFE00
1FFFFC00
0FFFF000
03FFC000
ENDCHAR
STARTCHAR 0074
ENCODING 116
SWIDTH 390 0
DWIDTH 26 0
BBX 22 47 7 0
BITMAP
003E00
007E00
007E00
007E00
007E00
007C00
007C00
00FC00
00FC00
00FC00
00FC00
00F800
7FFFFC
7FFFF8
7FFFF8
FFFFF8
01F800
01F000
01F000
03F000
03F000
03F000
03F000
03E000
07E000
07E000
07E000
07E000
07E000
07C000
0FC000
0FC000
0FC000
0FC000
0FC000
0F8000
1F8000
1F8000
1F8000
1F8000
1F8000
1F8000
1FC000
1FFF00
1FFF00
0FFF00
07FF00
ENDCHAR
STARTCHAR 0075
ENCODING 117
SWIDTH 600 0
DWIDTH 40 0
BBX 34 36 7 -1
BITMAP
0F80000FC0
1F80000FC0
1F80000FC0
1F80000FC0
1F80000FC0
1F80000F80
1F00001F80
3F00001F80
3F00001F80
3F00001F80
3F00001F80
3F00001F00
3E00003F00
7E00003F00
7E00003F00
7E00003F00
7E00003F00
7E00003E00
7C00007E00
FC00007E00
FC00007E00
FC00007E00
FC0000FE00
FC0000FC00
FC0000FC00
FC0001FC00
FE0003FC00
FE0007FC00
FF000EFC00
7F803EF800
7FFFFDF800
3FFFF9F800
1FFFF1F800
0FFFC1F800
07FF01F800
0070000000
ENDCHAR
STARTCHAR 0076
ENCODING 118
SWIDTH 540 0
DWIDTH 36 0
BBX 32 35 8 0
BITMAP
FC00001F
FC00003F
7C00003E
7C00007E
7E00007C
7E0000FC
7E0000F8
3E0001F8
3E0001F0
3F0003F0
3F0007E0
3F0007E0
1F000FC0
1F000F80
1F801F80
1F801F00
1F803F00
0F803E00
0F807E00
0F807C00
0FC0FC00
0FC0F800
0FC1F800
07C3F000
07C3F000
07E7E000
07E7C000
07EFC000
03EF8000
03FF8000
03FF0000
03FF0000
03FE0000
01FE0000
01FC0000
ENDCHAR
STARTCHAR 0077
ENCODING 119
SWIDTH 810 0
DWIDTH 54 0
BBX 50 35 8 0
BITMAP
FC0003F00007C0
FC0003F0000FC0
FC0007F0000F80
7C0007F0001F80
7C000FF8001F00
7C000FF8003F00
7C001FF8003E00
7C001FF8003E00
7E001FF8007E00
7E003EF8007C00
7E003EF800FC00
7E007EFC00F800
3E007CFC01F800
3E00FCFC01F000
3E00F87C03F000
3E01F87C03E000
3E01F07C03E000
3E03F07C07C000
3F03E07E07C000
3F07E07E0FC000
3F07C07E0F8000
1F0FC03E1F8000
1F0F803E1F0000
1F1F803E3F0000
1F1F003E3E0000
1F3F003E3E0000
1F3E003F7C0000
1F7E003F7C0000
1FFC003FFC0000
1FFC001FF80000
1FF8001FF80000
0FF8001FF00000
0FF0001FF00000
0FF0001FE00000
0FF0001FE00000
ENDCHAR
STARTCHAR 0078
ENCODING 120
SWIDTH 555 0
DWIDTH 37 0
BBX 36 35 3 0
BITMAP
03F00007F0
03F00007E0
01F8000FC0
01F8001F80
00FC003F80
00FC007F00
007E007E00
007E00FC00
007F01F800
003F03F000
003F87F000
001F87E000
001FCFC000
000FDF8000
000FFF0000
0007FE0000
0007FE0000
0003FC0000
0007FC0000
000FFE0000
001FFE0000
003FBF0000
003F3F0000
007E1F8000
00FC1F8000
01F81FC000
03F80FC000
07F00FE000
07E007E000
0FC007F000
1F8003F000
3F8003F800
7F0001F800
7E0001FC00
FC0000FC00
ENDCHAR
STARTCHAR 0079
ENCODING 121
SWIDTH 480 0
DWIDTH 32 0
BBX 40 49 -1 -14
BITMAP
00FC00003F
00FC00007E
00FC0000FC
00FC0000FC
00FC0001F8
007E0001F8
007E0003F0
007E0003F0
007E0007E0
003E0007C0
003E000FC0
003F001F80
003F001F80
003F003F00
001F003E00
001F007E00
001F807C00
001F80FC00
000F80F800
000F81F800
000F81F000
000FC3E000
000FC7E000
0007C7C000
0007CFC000
0007CF8000
0007FF0000
0003FF0000
0003FE0000
0003FE0000
0003FC0000
0003FC0000
0001F80000
0001F00000
0003F00000
0007E00000
0007E00000
000FC00000
000F800000
001F800000
003F000000
003F000000
007E000000
01FC000000
7FFC000000
7FF8000000
7FE0000000
FFC0000000
3800000000
ENDCHAR
STARTCHAR 007A
ENCODING 122
SWIDTH 495 0
DWIDTH 33 0
BBX 32 35 4 0
BITMAP
03FFFFFF
03FFFFFF
03FFFFFF
03FFFFFF
03FFFFFF
000000FE
000001FC
000003F8
000007F0
00000FE0
00001FC0
00003F80
00007F00
00007E00
0000FC00
0001F800
0003F000
0007E000
000FC000
001F8000
003F0000
007E0000
00FC0000
01F80000
03F00000
07E00000
0FC00000
1F800000
3F000000
7E000000
FFFFFFE0
FFFFFFE0
FFFFFFE0
FFFFFFE0
FFFFFFC0
ENDCHAR
STARTCHAR 007B
ENCODING 123
SWIDTH 450 0
DWIDTH 30 0
BBX 26 70 10 -14
BITMAP
00000FC0
0001FFC0
0003FFC0
000FFFC0
000FFF80
001F8000
001F0000
003E0000
003E0000
003E0000
003E0000
007E0000
007C0000
007C0000
007C0000
007C0000
007C0000
00FC0000
00F80000
00F80000
00F80000
00F80000
00F80000
01F80000
01F00000
01F00000
01F00000
01F00000
01F00000
03E00000
03E00000
03E00000
03E00000
0FC00000
FF800000
FE000000
FF800000
0F800000
07C00000
07C00000
07C00000
07C00000
0F800000
0F800000
0F800000
0F800000
0F800000
0F800000
1F000000
1F000000
1F000000
1F000000
1F000000
1F000000
3F000000
3E000000
3E000000
3E000000
3E000000
3E000000
7E000000
7C000000
7C000000
7C000000
7C000000
7E000000
3FFE0000
3FFE0000
1FFE0000
0FFE0000
ENDCHAR
STARTCHAR 007C
ENCODING 124
SWIDTH 285 0
DWIDTH 19 0
BBX 18 79 5 -16
BITMAP
0007C0
0007C0
000F80
000F80
000F80
000F80
000F80
000F80
001F00
001F00
001F00
001F00
001F00
001F00
003E00
003E00
003E00
003E00
003E00
003E00
007C00
007C00
007C00
007C00
007C00
007800
00F800
00F800
00F800
00F800
00F800
00F000
01F000
01F000
01F000
01F000
01F000
01E000
03E000
03E000
03E000
03E000
03E000
03C000
07C000
07C000
07C000
07C000
07C000
078000
0F8000
0F8000
0F8000
0F8000
0F8000
1F0000
1F0000
1F0000
1F0000
1F0000
1F0000
3E0000
3E0000
3E0000
3E0000
3E0000
3E0000
7C0000
7C0000
7C0000
7C0000
7C0000
7C0000
F80000
F80000
F80000
F80000
F80000
F00000
ENDCHAR
STARTCHAR 007D
ENCODING 125
SWIDTH 465 0
DWIDTH 31 0
BBX 27 70 5 -14
BITMAP
0007C000
000FFE00
000FFF00
000FFF80
000FFFC0
00000FC0
000007C0
000007C0
000007C0
000007C0
000007C0
00000F80
00000F80
00000F80
00000F80
00000F80
00000F80
00001F00
00001F00
00001F00
00001F00
00001F00
00003F00
00003E00
00003E00
00003E00
00003E00
00003E00
00007C00
00007C00
00007C00
00007C00
00007C00
00007E00
00003FE0
00001FE0
00003FE0
00007C00
0000F800
0000F800
0001F000
0001F000
0001F000
0001F000
0001F000
0003E000
0003E000
0003E000
0003E000
0003E000
0007E000
0007C000
0007C000
0007C000
0007C000
0007C000
000FC000
000F8000
000F8000
000F8000
000F8000
000F8000
001F0000
001F0000
003F0000
007E0000
7FFE0000
7FFC0000
7FF80000
FFE00000
ENDCHAR
STARTCHAR 007E
ENCODING 126
SWIDTH 555 0
DWIDTH 37 0
BBX 26 7 10 22
BITMAP
07F003C0
0FFC07C0
1FFF0F80
3FFFFF00
7C1FFF00
780FFC00
F003F800
ENDCHAR
STARTCHAR 00A0
ENCODING 160
SWIDTH 225 0
DWIDTH 15 0
BBX 0 0 0 0
BITMAP
ENDCHAR
STARTCHAR 00A1
ENCODING 161
SWIDTH 255 0
DWIDTH 17 0
BBX 15 51 5 -17
BITMAP
003C
007E
00FE
00FE
00FE
00FC
0078
0000
0000
0000
0000
0000
0000
01E0
01E0
01E0
01E0
03E0
03E0
03E0
03C0
03C0
07C0
07C0
07C0
07C0
07C0
0FC0
0F80
0F80
0F80
0F80
1F80
1F80
1F80
1F80
1F00
3F00
3F00
3F00
3F00
3F00
7F00
7E00
7E00
7E00
7E00
7E00
FE00
FE00
FC00
ENDCHAR
STARTCHAR 00A2
ENCODING 162
SWIDTH 600 0
DWIDTH 40 0
BBX 33 46 6 -5
BITMAP
00001C0000
0000180000
0000180000
0000180000
0000380000
0001FF8000
000FFFE000
001FFFF800
007FFFFC00
00FFFFFE00
01FE71FE00
03F8707F00
07F0703F00
0FE0601F80
0FC0601F80
1F80601F80
1F80E00F80
3F00E00F80
3F00E00F80
7E00C00000
7E00C00000
7E01C00000
7C01C00000
FC01C00000
FC01C00000
FC01800000
FC01800000
FC03800000
FC03803E00
FC03807E00
FC03807E00
7E0300FC00
7E0301FC00
7F0701F800
3F8707F000
3FC70FE000
1FFEFFC000
0FFFFF8000
07FFFF0000
03FFFC0000
00FFF00000
000E000000
000C000000
000C000000
000C000000
001C000000
ENDCHAR
STARTCHAR 00A3
ENCODING 163
SWIDTH 585 0
DWIDTH 39 0
BBX 38 48 3 0
BITMAP
000003F000
00003FFF00
0000FFFFC0
0003FFFFE0
0007FFFFF0
000FFC3FF0
001FE007F8
003FC003F8
007F0001FC
007F0001FC
00FE0001FC
00FE0000FC
00FC0000FC
00FC0000FC
00FC0000FC
00FC000000
00FC000000
00FE000000
00FE000000
00FE000000
007F000000
007F000000
007F800000
003F800000
001FC00000
001FC00000
0FFFFFF800
0FFFFFF800
0FFFFFF000
0FFFFFF000
0007E00000
0007C00000
0007C00000
000FC00000
000FC00000
000F800000
001F800000
001F000000
003E000000
007C000000
00F8000000
01F0000000
07C0000000
7FFFFFFFC0
FFFFFFFFC0
FFFFFFFFC0
FFFFFFFFC0
FFFFFFFF80
ENDCHAR
STARTCHAR 00A4
ENCODING 164
SWIDTH 585 0
DWIDTH 39 0
BBX 34 32 6 8
BITMAP
0080000000
01C0000180
07C0FF07C0
07E7FFCFC0
03FFFFFF80
01FFFFFF00
01FFFFFE00
00FE01FC00
01F8007E00
03F0003E00
07E0003F00
07C0001F00
0F80001F00
0F80001F00
0F00000F00
1F00001F00
1F00001F00
1F00001F00
1F00001E00
1F00003E00
1F00003C00
1F00007C00
0F8000F800
0FC001F800
0FE007F000
0FF01FF000
1FFFFFF800
3FFFFFF800
7EFFFEFC00
FC3FF87C00
7807803800
2000003000
ENDCHAR
STARTCHAR 00A5
ENCODING 165
SWIDTH 615 0
DWIDTH 41 0
BBX 37 47 9 0
BITMAP
7F000001F8
3F000003F8
3F000003F0
3F800007E0
1F80000FE0
1F80000FC0
1FC0001F80
0FC0003F80
0FC0003F00
0FC0007E00
07E000FC00
07E000FC00
07E001F800
03F003F000
03F003F000
03F007E000
01F80FC000
01F80FC000
01F81F8000
00FC3F0000
00FC3F0000
00FC7E0000
007EFC0000
007EFC0000
007FF80000
003FF00000
003FF00000
3FFFFFE000
3FFFFFE000
3FFFFFE000
3FFFFFE000
001F800000
001F800000
001F800000
001F000000
7FFFFFC000
7FFFFFC000
FFFFFFC000
FFFFFF8000
003F000000
003E000000
007E000000
007E000000
007E000000
007E000000
007E000000
007C000000
ENDCHAR
STARTCHAR 00A6
ENCODING 166
SWIDTH 285 0
DWIDTH 19 0
BBX 18 79 5 -16
BITMAP
0007C0
0007C0
000F80
000F80
000F80
000F80
000F80
000F80
001F00
001F00
001F00
001F00
001F00
001F00
003E00
003E00
003E00
003E00
003E00
003E00
007C00
007C00
007C00
007C00
007C00
007800
00F800
00F800
00F800
00F800
00F800
00F000
01F000
01F000
01F000
000000
000000
000000
000000
000000
000000
000000
000000
000000
000000
000000
07C000
07C000
07C000
0F8000
0F8000
0F8000
0F8000
0F8000
0F8000
1F0000
1F0000
1F0000
1F0000
1F0000
1F0000
3E0000
3E0000
3E0000
3E0000
3E0000
3E0000
7C0000
7C0000
7C0000
7C0000
7C0000
780000
F80000
F80000
F80000
F80000
F80000
F00000
ENDCHAR
STARTCHAR 00A7
ENCODING 167
SWIDTH 540 0
DWIDTH 36 0
BBX 32 49 6 -1
BITMAP
00001C00
0003FFC0
001FFFF0
003FFFF8
007FFFFC
00FE01FE
01FC00FE
01F8007F
03F0003F
03E0003F
03E0003F
03E00000
03F00000
03F80000
01FF8000
01FFFE00
00FFFFC0
03FFFFF0
0FFFFFF8
1FC03FFC
1F8003FE
3F0000FE
3E00007E
3E00007F
3E00003F
3F00003E
3F00007E
3FC0007E
1FF800FC
1FFFE3F8
07FFFFF0
01FFFFE0
007FFF80
0003FFC0
00001FE0
00000FE0
000007E0
FC0007E0
FC0007E0
FC0007E0
FC0007E0
FE000FC0
7F001FC0
7FE0FF80
3FFFFF00
1FFFFE00
0FFFF800
03FFE000
00080000
ENDCHAR
STARTCHAR 00A8
ENCODING 168
SWIDTH 360 0
DWIDTH 24 0
BBX 21 7 10 42
BITMAP
3C01E0
7E03F0
FE07F8
FE07F8
FE07F0
FE07F0
7803E0
ENDCHAR
STARTCHAR 00A9
ENCODING 169
SWIDTH 810 0
DWIDTH 54 0
BBX 48 49 7 -1
BITMAP
000000180000
00000FFFF000
00007FFFFE00
0001FFFFFF00
0007FFC3FFC0
000FF0001FE0
001FC00007F0
007F000003F8
00FC000000F8
01F80000007C
03F00078007E
03E007FF003E
07C01FFFC01E
0F807FFFE01F
0F00FE07F01F
1E01F801F80F
3E03E000F80F
3C07C0007C0F
3C0780003C0F
780F80003C0F
780F0000380F
781E0000000F
F01E0000000F
F01E0000000F
F01E0000000F
F03C0000000F
F03C0000000F
F03C0000001E
F03E0000701E
F01E0000F01E
F01E0000F03C
F01F0001E03C
F01F0003C078
F00F800FC078
F807F03F80F0
F807FFFE01F0
7C03FFFC01E0
7C00FFF003E0
3E000F8007C0
3F0000001F80
1F8000003F00
1FC000007E00
0FE00001FC00
07F8000FF000
03FFC1FFE000
00FFFFFF8000
007FFFFE0000
000FFFF80000
00007E000000
ENDCHAR
STARTCHAR 00AA
ENCODING 170
SWIDTH 150 0
DWIDTH 10 0
BBX 10 9 5 26
BITMAP
3EC0
3FC0
71C0
61C0
E1C0
E180
E380
7F80
7B80
ENDCHAR
STARTCHAR 00AB
ENCODING 171
SWIDTH 630 0
DWIDTH 42 0
BBX 38 28 7 7
BITMAP
0003F000FC
0007E001F8
000FC003F0
001F8007E0
003F000FC0
007E001F80
01FC007F00
03F000FC00
07E001F800
0FC003F000
1F8007E000
3F000FC000
7E001F8000
FC003F0000
FC003F0000
FE003F8000
7E001F8000
3F000FC000
1F8007E000
0FC003F000
0FC003F000
07E001F800
03F000FC00
01F8007E00
01FC007E00
00FC003F00
007E001F80
003F000FC0
ENDCHAR
STARTCHAR 00AC
ENCODING 172
SWIDTH 645 0
DWIDTH 43 0
BBX 33 17 11 18
BITMAP
FFFFFFFF80
FFFFFFFF80
FFFFFFFF80
FFFFFFFF80
0000000F80
0000000F00
0000000F00
0000001F00
0000001F00
0000001F00
0000001F00
0000001E00
0000001E00
0000003E00
0000003E00
0000003E00
0000003E00
ENDCHAR
STARTCHAR 00AD
ENCODING 173
SWIDTH 600 0
DWIDTH 40 0
BBX 26 5 14 18
BITMAP
7FFFFFC0
7FFFFF80
7FFFFF80
FFFFFF80
FFFFFF00
ENDCHAR
STARTCHAR 00AE
ENCODING 174
SWIDTH 330 0
DWIDTH 22 0
BBX 17 17 9 30
BITMAP
00F000
03FE00
0F1F00
1C0300
39E180
31F180
631980
631180
63F180
C3E180
C26180
626300
663700
700E00
381C00
1FF800
0FE000
ENDCHAR
STARTCHAR 00AF
ENCODING 175
SWIDTH 360 0
DWIDTH 24 0
BBX 21 3 9 43
BITMAP
7FFFF8
7FFFF8
FFFFF0
ENDCHAR
STARTCHAR 00B0
ENCODING 176
SWIDTH 300 0
DWIDTH 20 0
BBX 13 13 12 45
BITMAP
03C0
0FE0
1FF0
3C78
7038
7038
E038
E038
F078
70F0
7FE0
3FC0
1F00
ENDCHAR
STARTCHAR 00B1
ENCODING 177
SWIDTH 600 0
DWIDTH 40 0
BBX 31 36 7 0
BITMAP
00007C00
00007C00
0000FC00
0000F800
0000F800
0000F800
0000F800
0000F800
0001F800
0001F000
0FFFFFFE
0FFFFFFE
0FFFFFFE
0FFFFFFC
0FFFFFFC
0003E000
0003E000
0003E000
0003E000
0003E000
0007E000
0007C000
0007C000
0007C000
0007C000
0007C000
00000000
00000000
00000000
00000000
00000000
00000000
7FFFFFE0
7FFFFFE0
FFFFFFE0
FFFFFFE0
ENDCHAR
STARTCHAR 00B2
ENCODING 178
SWIDTH 300 0
DWIDTH 20 0
BBX 20 26 6 25
BITMAP
001C00
00FF80
01FFC0
03FFE0
0781E0
0F00F0
0F00F0
1E00F0
1E00E0
0001E0
0001E0
0003C0
000780
000F00
003E00
007C00
00F800
01F000
07C000
0F8000
1F0000
3E0000
7FFF80
FFFF80
FFFF80
FFFF80
ENDCHAR
STARTCHAR 00B3
ENCODING 179
SWIDTH 315 0
DWIDTH 21 0
BBX 19 26 7 25
BITMAP
001C00
01FF80
03FFC0
07EFE0
0F01E0
1E01E0
1E00E0
0000E0
0001E0
0001E0
0007C0
00FF80
00FE00
00FF00
001F80
000780
0003C0
0003C0
0003C0
F003C0
F00780
F80F80
7F7F00
7FFE00
3FFC00
0FF000
ENDCHAR
STARTCHAR 00B4
ENCODING 180
SWIDTH 240 0
DWIDTH 16 0
BBX 14 12 9 41
BITMAP
00FC
01F8
01F0
03F0
07E0
0FC0
0F80
1F00
3E00
3C00
7C00
F800
ENDCHAR
STARTCHAR 00B5
ENCODING 181
SWIDTH 645 0
DWIDTH 43 0
BBX 39 49 2 -14
BITMAP
00FC0001F8
00FC0001F8
00FC0001F8
00FC0001F0
00F80003F0
00F80003F0
01F80003F0
01F80003F0
01F80003F0
01F80003E0
01F00007E0
01F00007E0
03F00007E0
03F00007E0
03F00007E0
03F00007C0
03E0000FC0
03E0000FC0
07E0000FC0
07E0000FC0
07E0000FC0
07E0001F80
07C0001F80
0FC0001F80
0FC0003F80
0FC0007F80
0FE0007F80
0FE000FF00
0FE001DF80
1FF0079F80
1FFE3F9FC0
1FFFFF1FFE
1FFFFE0FFE
1F7FF80FFE
1F1FE003FE
3F00000000
3F00000000
3F00000000
3F00000000
3F00000000
3E00000000
7E00000000
7E00000000
7E00000000
7E00000000
7E00000000
7C00000000
FC00000000
FC00000000
ENDCHAR
STARTCHAR 00B6
ENCODING 182
SWIDTH 525 0
DWIDTH 35 0
BBX 32 47 7 0
BITMAP
0003FFFF
007FFFFF
01FFFFFF
03FFFFFE
07FFFFFE
0FFFFC1E
1FFFFC1E
3FFFFC1E
3FFFFC1C
7FFFFC3C
7FFFFC3C
7FFFF83C
FFFFF83C
FFFFF83C
FFFFF838
FFFFF878
FFFFF878
7FFFF078
7FFFF078
7FFFF078
3FFFF070
1FFFF0F0
0FFFF0F0
03FFE0F0
0001E0F0
0001E0F0
0001E0E0
0001E1E0
0001C1E0
0003C1E0
0003C1E0
0003C1E0
0003C1C0
0003C3C0
000383C0
000783C0
000783C0
000783C0
00078380
00078780
00070780
000F0780
000F0780
000F0780
000F0700
000F0F00
000E0F00
ENDCHAR
STARTCHAR 00B7
ENCODING 183
SWIDTH 270 0
DWIDTH 18 0
BBX 8 7 11 21
BITMAP
3E
7E
FF
FF
FE
FE
7C
ENDCHAR
STARTCHAR 00B8
ENCODING 184
SWIDTH 240 0
DWIDTH 16 0
BBX 13 17 0 -17
BITMAP
0E00
1E00
1C00
3C00
3FE0
7FF0
7FF0
0078
0038
0038
0078
0070
01F0
FFE0
FFC0
FF00
3800
ENDCHAR
STARTCHAR 00B9
ENCODING 185
SWIDTH 255 0
DWIDTH 17 0
BBX 14 25 6 26
BITMAP
0078
00F8
01F8
03F8
0FF8
0F70
1E70
18F0
10F0
00F0
00F0
00E0
00E0
01E0
01E0
01E0
01E0
01C0
01C0
03C0
03C0
03C0
7FFC
7FFC
FFFC
ENDCHAR
STARTCHAR 00BA
ENCODING 186
SWIDTH 150 0
DWIDTH 10 0
BBX 9 10 6 26
BITMAP
0400
3F00
7B80
6180
E180
C180
C380
E300
FF00
7C00
ENDCHAR
STARTCHAR 00BB
ENCODING 187
SWIDTH 630 0
DWIDTH 42 0
BBX 39 28 4 7
BITMAP
07E001F800
03F000FC00
01F8007E00
01F8007E00
00FC003F00
007E001F80
003F000FC0
003F000FC0
001F8007E0
000FC003F0
0007E001F8
0007F001FC
0003F000FC
0001F8007E
0001F8007E
0003F000FC
000FE003F8
001F8007E0
003F000FC0
007E001F80
00FC003F00
01F8007E00
03F000FC00
07E001F800
0FC003F000
3F000FC000
7E001F8000
FC003F0000
ENDCHAR
STARTCHAR 00BC
ENCODING 188
SWIDTH 810 0
DWIDTH 54 0
BBX 46 47 7 0
BITMAP
00F8000000F8
01F0000001F0
03F0000003F0
07F0000007E0
1FF0000007C0
1EF000000F80
1CF000001F80
39E000003F00
31E000003E00
01E000007C00
01E00000F800
01E00001F800
01E00001F000
03C00003E000
03C00007C000
03C0000FC000
03C0001F8000
03C0001F0000
0380003E0000
0780007E0000
FFFC00FC0000
FFFC00F80000
FFF801F00000
FFF803E00000
000007E001F8
000007C001F8
00000F8003F8
00001F0007F8
00003F000F78
00007E001EF0
00007C001CF0
0000F80038F0
0001F80070F0
0003F000F0F0
0003E001E1F0
0007C001C1E0
000F800381E0
001F800701E0
001F000FFFFC
003E000FFFFC
007C000FFFFC
00FC000003C0
01F8000003C0
01F0000003C0
03E0000003C0
07E0000003C0
07C0000007C0
ENDCHAR
STARTCHAR 00BD
ENCODING 189
SWIDTH 840 0
DWIDTH 56 0
BBX 49 47 7 0
BITMAP
00F80000007C00
01F0000000FC00
03F0000000F800
07F0000001F000
1FF0000003E000
1EF0000007E000
1CF000000FC000
39E000000F8000
31E000001F0000
01E000003F0000
01E000007E0000
01E000007C0000
01E00000F80000
03C00001F80000
03C00003F00000
03C00003E00000
03C00007C00000
03C0000F800000
0380001F800000
0780003F000000
FFFC003E000000
FFFC007C000000
FFF800FC000000
FFF801F800F800
000001F003FE00
000003E00FFF00
000007E01FFF80
00000FC01E0F80
00000F803C0780
00001F003C0780
00003E00380780
00007E00000780
0000FC00000F00
0000F800001F00
0001F000003E00
0003F000007C00
0007E00000F800
0007C00001F000
000F800007E000
001F80000F8000
003F00001F0000
003E00007E0000
007C0000FC0000
00F80001FFFE00
01F80001FFFE00
03F00001FFFE00
03E00001FFFE00
ENDCHAR
STARTCHAR 00BE
ENCODING 190
SWIDTH 840 0
DWIDTH 56 0
BBX 47 47 8 0
BITMAP
00FC0000007C
03FF000000F8
0FFF800001F8
0FFFC00003F0
1F07C00003E0
3E03C00007C0
0003C0000F80
0003C0001F80
0007C0001F00
000F80003E00
01FF00007C00
01FE0000FC00
01FC0001F800
01FE0001F000
000F0003E000
000F0007E000
000F800FC000
000F000F8000
F00F001F0000
F81F003F0000
FC7E007E0000
FFFC007C0000
7FF800F80000
1FF001F00000
000003F0007E
000007E000FC
000007C001FC
00000F8003FC
00001F8007BC
00003F00073C
00003E000E7C
00007C001E78
0000FC003C78
0001F8007878
0001F0007078
0003E000E078
0007C001C0F8
000FC00380F0
001F8003FFFE
001F0007FFFE
003E0007FFFE
007E000000F0
00FC000001E0
00F8000001E0
01F0000001E0
03F0000001E0
03E0000001E0
ENDCHAR
STARTCHAR 00BF
ENCODING 191
SWIDTH 525 0
DWIDTH 35 0
BBX 31 49 5 -17
BITMAP
00000700
00001F80
00003F80
00003F80
00003F80
00003F80
00001F00
00000800
00000000
00000000
00000000
00000000
00000000
00007E00
00007E00
00007E00
0000FC00
0001FC00
0001F800
0003F000
000FE000
001FC000
003F8000
007F0000
01FE0000
03F80000
07F00000
0FE00000
0FC00000
1F800000
3F000000
3F000000
7E000000
7E00003E
7E00003E
7C00007E
FC00007E
FC00007C
FE0000FC
7E0001F8
7F0003F8
7F8007F0
3FE01FE0
3FFFFFC0
1FFFFF80
0FFFFF00
07FFFC00
01FFF000
00040000
ENDCHAR
STARTCHAR 00C0
ENCODING 192
SWIDTH 675 0
DWIDTH 45 0
BBX 40 63 3 0
BITMAP
00000FC000
000007E000
000007E000
000003E000
000003F000
000001F000
000001F800
000000F800
000000F800
0000007C00
0000007C00
0000003E00
0000000000
0000000000
0000000000
0000000000
0000007C00
000000FE00
000000FE00
000001FE00
000001FE00
000003FE00
000007FF00
000007FF00
00000FDF00
00000F9F00
00001F9F00
00001F1F80
00003F1F80
00003E0F80
00007E0F80
00007C0F80
0000FC0FC0
0001F80FC0
0001F007C0
0003F007C0
0003E007E0
0007E007E0
0007C007E0
000FC003E0
000F8003E0
001F8003F0
001F0003F0
003F0003F0
007E0001F0
007FFFFFF0
00FFFFFFF8
00FFFFFFF8
01FFFFFFF8
01F00000F8
03F00000F8
03E00000FC
07E00000FC
07C00000FC
0FC000007C
1F8000007E
1F8000007E
3F0000007E
3F0000007E
7E0000003E
7E0000003F
FC0000003F
FC0000003F
ENDCHAR
STARTCHAR 00C1
ENCODING 193
SWIDTH 675 0
DWIDTH 45 0
BBX 40 63 3 0
BITMAP
000000003F
000000003E
000000007E
00000000FC
00000001F8
00000001F0
00000003E0
00000007C0
0000000F80
0000000F80
0000001F00
0000003E00
0000000000
0000000000
0000000000
0000000000
0000007C00
000000FE00
000000FE00
000001FE00
000001FE00
000003FE00
000007FF00
000007FF00
00000FDF00
00000F9F00
00001F9F00
00001F1F80
00003F1F80
00003E0F80
00007E0F80
00007C0F80
0000FC0FC0
0001F80FC0
0001F007C0
0003F007C0
0003E007E0
0007E007E0
0007C007E0
000FC003E0
000F8003E0
001F8003F0
001F0003F0
003F0003F0
007E0001F0
007FFFFFF0
00FFFFFFF8
00FFFFFFF8
01FFFFFFF8
01F00000F8
03F00000F8
03E00000FC
07E00000FC
07C00000FC
0FC000007C
1F8000007E
1F8000007E
3F0000007E
3F0000007E
7E0000003E
7E0000003F
FC0000003F
FC0000003F
ENDCHAR
STARTCHAR 00C2
ENCODING 194
SWIDTH 675 0
DWIDTH 45 0
BBX 40 61 3 0
BITMAP
0000001F80
0000003F80
0000007FC0
000000FFE0
000001FBF0
000003F1F0
000007E1F8
00000F80FC
00001F007E
00003E003E
0000000000
0000000000
0000000000
0000000000
0000007C00
000000FE00
000000FE00
000001FE00
000001FE00
000003FE00
000007FF00
000007FF00
00000FDF00
00000F9F00
00001F9F00
00001F1F80
00003F1F80
00003E0F80
00007E0F80
00007C0F80
0000FC0FC0
0001F80FC0
0001F007C0
0003F007C0
0003E007E0
0007E007E0
0007C007E0
000FC003E0
000F8003E0
001F8003F0
001F0003F0
003F0003F0
007E0001F0
007FFFFFF0
00FFFFFFF8
00FFFFFFF8
01FFFFFFF8
01F00000F8
03F00000F8
03E00000FC
07E00000FC
07C00000FC
0FC000007C
1F8000007E
1F8000007E
3F0000007E
3F0000007E
7E0000003E
7E0000003F
FC0000003F
FC0000003F
ENDCHAR
STARTCHAR 00C3
ENCODING 195
SWIDTH 675 0
DWIDTH 45 0
BBX 40 60 3 0
BITMAP
000003F807
000007FE0F
00000FFFFE
00001FFFFE
00001E0FFC
00003C03F0
0000000000
0000000000
0000000000
0000000000
0000000000
0000000000
0000000000
0000007C00
000000FE00
000000FE00
000001FE00
000001FE00
000003FE00
000007FF00
000007FF00
00000FDF00
00000F9F00
00001F9F00
00001F1F80
00003F1F80
00003E0F80
00007E0F80
00007C0F80
0000FC0FC0
0001F80FC0
0001F007C0
0003F007C0
0003E007E0
0007E007E0
0007C007E0
000FC003E0
000F8003E0
001F8003F0
001F0003F0
003F0003F0
007E0001F0
007FFFFFF0
00FFFFFFF8
00FFFFFFF8
01FFFFFFF8
01F00000F8
03F00000F8
03E00000FC
07E00000FC
07C00000FC
0FC000007C
1F8000007E
1F8000007E
3F0000007E
3F0000007E
7E0000003E
7E0000003F
FC0000003F
FC0000003F
ENDCHAR
STARTCHAR 00C4
ENCODING 196
SWIDTH 675 0
DWIDTH 45 0
BBX 40 61 3 0
BITMAP
000001801C
000007C03E
00000FE07F
00001FE0FF
00001FE0FF
00001FC0FE
00000F807C
0000070038
0000000000
0000000000
0000000000
0000000000
0000000000
0000000000
0000007C00
000000FE00
000000FE00
000001FE00
000001FE00
000003FE00
000007FF00
000007FF00
00000FDF00
00000F9F00
00001F9F00
00001F1F80
00003F1F80
00003E0F80
00007E0F80
00007C0F80
0000FC0FC0
0001F80FC0
0001F007C0
0003F007C0
0003E007E0
0007E007E0
0007C007E0
000FC003E0
000F8003E0
001F8003F0
001F0003F0
003F0003F0
007E0001F0
007FFFFFF0
00FFFFFFF8
00FFFFFFF8
01FFFFFFF8
01F00000F8
03F00000F8
03E00000FC
07E00000FC
07C00000FC
0FC000007C
1F8000007E
1F8000007E
3F0000007E
3F0000007E
7E0000003E
7E0000003F
FC0000003F
FC0000003F
ENDCHAR
STARTCHAR 00C5
ENCODING 197
SWIDTH 675 0
DWIDTH 45 0
BBX 40 64 3 0
BITMAP
0000000F80
0000003FC0
0000007FE0
00000070E0
000000E060
000000C060
000000C0E0
000000E0E0
000000E1C0
000000FF80
0000007F00
0000000C00
0000000000
0000000000
0000000000
0000000000
0000000000
0000007C00
000000FE00
000000FE00
000001FE00
000001FE00
000003FE00
000007FF00
000007FF00
00000FDF00
00000F9F00
00001F9F00
00001F1F80
00003F1F80
00003E0F80
00007E0F80
00007C0F80
0000FC0FC0
0001F80FC0
0001F007C0
0003F007C0
0003E007E0
0007E007E0
0007C007E0
000FC003E0
000F8003E0
001F8003F0
001F0003F0
003F0003F0
007E0001F0
007FFFFFF0
00FFFFFFF8
00FFFFFFF8
01FFFFFFF8
01F00000F8
03F00000F8
03E00000FC
07E00000FC
07C00000FC
0FC000007C
1F8000007E
1F8000007E
3F0000007E
3F0000007E
7E0000003E
7E0000003F
FC0000003F
FC0000003F
ENDCHAR
STARTCHAR 00C6
ENCODING 198
SWIDTH 945 0
DWIDTH 63 0
BBX 65 47 2 0
BITMAP
00000000FFFFFFFF80
00000001FFFFFFFF80
00000001FFFFFFFF80
00000003FFFFFFFF80
00000007FFFFFFFF80
00000007FFFFFFFF80
0000000FEFC0000000
0000001FCF80000000
0000003F9F80000000
0000003F1F80000000
0000007F1F80000000
000000FE1F80000000
000000FC1F00000000
000001FC3F00000000
000003F83F00000000
000003F03F00000000
000007E03F00000000
00000FE03F00000000
00001FC03E00000000
00001F807E00000000
00003F807E00000000
00007F007FFFFFE000
00007E007FFFFFE000
0000FC007FFFFFE000
0001FC007FFFFFE000
0003F800FFFFFFC000
0003F000FC00000000
0007F000FC00000000
000FE000FC00000000
000FFFFFFC00000000
001FFFFFF800000000
003FFFFFF800000000
003FFFFFF800000000
007E0001F800000000
00FE0001F800000000
01FC0001F800000000
01F80001F000000000
03F80003F000000000
07F00003F000000000
07E00003F000000000
0FC00003F000000000
1FC00003F000000000
3F800003FFFFFFC000
3F000007FFFFFFC000
7F000007FFFFFFC000
FE000007FFFFFFC000
FC000007FFFFFFC000
ENDCHAR
STARTCHAR 00C7
ENCODING 199
SWIDTH 705 0
DWIDTH 47 0
BBX 43 64 7 -16
BITMAP
000001F00000
00003FFF8000
0000FFFFE000
0003FFFFF800
000FFFFFFC00
001FFFFFFE00
003FE003FF00
007F8000FF00
00FF00007F80
01FC00003F80
03F800001FC0
03F000000FC0
07E000000FC0
0FE0000007C0
0FC0000007E0
1FC0000007E0
1F80000007E0
3F8000000000
3F0000000000
3F0000000000
7E0000000000
7E0000000000
7E0000000000
7E0000000000
7E0000000000
FC0000000000
FC0000000000
FC0000000000
FC0000000000
FC0000000000
FC0000000000
FC0000000000
FC0000000000
FE0000003F00
FE0000007E00
7E0000007E00
7E000000FC00
7F000001F800
3F000003F800
3F800007F000
1FC0000FE000
1FF0003FC000
0FFC01FF8000
07FFFFFF0000
03FFFFFE0000
01FFFFF80000
007FFFE00000
001FFF000000
0000F0000000
0000E0000000
0001E0000000
0001C0000000
0003FE000000
0003FF000000
0007FF800000
000007800000
000003800000
000003800000
000003800000
000007000000
00001F000000
0007FE000000
0007FC000000
000FF0000000
ENDCHAR
STARTCHAR 00C8
ENCODING 200
SWIDTH 555 0
DWIDTH 37 0
BBX 37 63 5 0
BITMAP
0001F80000
0001F80000
0000FC0000
0000FC0000
00007E0000
00007E0000
00003E0000
00001F0000
00001F0000
00000F0000
00000F8000
0000078000
0000000000
0000000000
0000000000
0000000000
00FFFFFFF8
00FFFFFFF8
00FFFFFFF0
01FFFFFFF0
01FFFFFFF0
01FFFFFFF0
01F8000000
01F8000000
01F0000000
03F0000000
03F0000000
03F0000000
03F0000000
03F0000000
03E0000000
07E0000000
07E0000000
07E0000000
07E0000000
07E0000000
0FC0000000
0FFFFFFC00
0FFFFFFC00
0FFFFFFC00
0FFFFFFC00
0FFFFFFC00
1F80000000
1F80000000
1F80000000
1F80000000
1F80000000
1F00000000
3F00000000
3F00000000
3F00000000
3F00000000
3F00000000
3E00000000
7E00000000
7E00000000
7E00000000
7E00000000
7FFFFFF800
7FFFFFF800
FFFFFFF800
FFFFFFF800
FFFFFFF800
ENDCHAR
STARTCHAR 00C9
ENCODING 201
SWIDTH 555 0
DWIDTH 37 0
BBX 37 63 5 0
BITMAP
00000007E0
0000000FC0
0000001F80
0000001F00
0000003F00
0000007E00
0000007C00
000000F800
000001F000
000003E000
000003C000
000007C000
0000000000
0000000000
0000000000
0000000000
00FFFFFFF8
00FFFFFFF8
00FFFFFFF0
01FFFFFFF0
01FFFFFFF0
01FFFFFFF0
01F8000000
01F8000000
01F0000000
03F0000000
03F0000000
03F0000000
03F0000000
03F0000000
03E0000000
07E0000000
07E0000000
07E0000000
07E0000000
07E0000000
0FC0000000
0FFFFFFC00
0FFFFFFC00
0FFFFFFC00
0FFFFFFC00
0FFFFFFC00
1F80000000
1F80000000
1F80000000
1F80000000
1F80000000
1F00000000
3F00000000
3F00000000
3F00000000
3F00000000
3F00000000
3E00000000
7E00000000
7E00000000
7E00000000
7E00000000
7FFFFFF800
7FFFFFF800
FFFFFFF800
FFFFFFF800
FFFFFFF800
ENDCHAR
STARTCHAR 00CA
ENCODING 202
SWIDTH 555 0
DWIDTH 37 0
BBX 37 61 5 0
BITMAP
000003E000
000007F000
00000FF800
00001FFC00
00003E7C00
00007C7E00
0001F83F00
0003F01F00
0007E01F80
000FC00FC0
0000000000
0000000000
0000000000
0000000000
00FFFFFFF8
00FFFFFFF8
00FFFFFFF0
01FFFFFFF0
01FFFFFFF0
01FFFFFFF0
01F8000000
01F8000000
01F0000000
03F0000000
03F0000000
03F0000000
03F0000000
03F0000000
03E0000000
07E0000000
07E0000000
07E0000000
07E0000000
07E0000000
0FC0000000
0FFFFFFC00
0FFFFFFC00
0FFFFFFC00
0FFFFFFC00
0FFFFFFC00
1F80000000
1F80000000
1F80000000
1F80000000
1F80000000
1F00000000
3F00000000
3F00000000
3F00000000
3F00000000
3F00000000
3E00000000
7E00000000
7E00000000
7E00000000
7E00000000
7FFFFFF800
7FFFFFF800
FFFFFFF800
FFFFFFF800
FFFFFFF800
ENDCHAR
STARTCHAR 00CB
ENCODING 203
SWIDTH 555 0
DWIDTH 37 0
BBX 37 61 5 0
BITMAP
0000600300
0001F80FC0
0003F80FC0
0003F81FC0
0003F81FC0
0003F81FC0
0003F01F80
0001C00F00
0000000000
0000000000
0000000000
0000000000
0000000000
0000000000
00FFFFFFF8
00FFFFFFF8
00FFFFFFF0
01FFFFFFF0
01FFFFFFF0
01FFFFFFF0
01F8000000
01F8000000
01F0000000
03F0000000
03F0000000
03F0000000
03F0000000
03F0000000
03E0000000
07E0000000
07E0000000
07E0000000
07E0000000
07E0000000
0FC0000000
0FFFFFFC00
0FFFFFFC00
0FFFFFFC00
0FFFFFFC00
0FFFFFFC00
1F80000000
1F80000000
1F80000000
1F80000000
1F80000000
1F00000000
3F00000000
3F00000000
3F00000000
3F00000000
3F00000000
3E00000000
7E00000000
7E00000000
7E00000000
7E00000000
7FFFFFF800
7FFFFFF800
FFFFFFF800
FFFFFFF800
FFFFFFF800
ENDCHAR
STARTCHAR 00CC
ENCODING 204
SWIDTH 240 0
DWIDTH 16 0
BBX 14 63 5 0
BITMAP
0FC0
0FC0
07E0
07E0
03E0
03F0
01F0
01F0
00F8
00F8
007C
007C
0000
0000
0000
0000
00FC
00FC
00FC
00F8
01F8
01F8
01F8
01F8
01F8
01F0
03F0
03F0
03F0
03F0
03F0
03E0
07E0
07E0
07E0
07E0
07E0
07C0
0FC0
0FC0
0FC0
0FC0
0FC0
1F80
1F80
1F80
1F80
1F80
1F00
3F00
3F00
3F00
3F00
3F00
3E00
7E00
7E00
7E00
7E00
7E00
7C00
FC00
FC00
ENDCHAR
STARTCHAR 00CD
ENCODING 205
SWIDTH 240 0
DWIDTH 16 0
BBX 24 63 5 0
BITMAP
00003F
00007E
0000FC
0000F8
0001F0
0003E0
0007E0
0007C0
000F80
001F00
001E00
003C00
000000
000000
000000
000000
00FC00
00FC00
00FC00
00F800
01F800
01F800
01F800
01F800
01F800
01F000
03F000
03F000
03F000
03F000
03F000
03E000
07E000
07E000
07E000
07E000
07E000
07C000
0FC000
0FC000
0FC000
0FC000
0FC000
1F8000
1F8000
1F8000
1F8000
1F8000
1F0000
3F0000
3F0000
3F0000
3F0000
3F0000
3E0000
7E0000
7E0000
7E0000
7E0000
7E0000
7C0000
FC0000
FC0000
ENDCHAR
STARTCHAR 00CE
ENCODING 206
SWIDTH 240 0
DWIDTH 16 0
BBX 23 61 5 0
BITMAP
001F00
003F80
007FC0
01FFC0
03F7E0
07E3F0
0FC1F8
1F80F8
3F00FC
7E007E
000000
000000
000000
000000
00FC00
00FC00
00FC00
00F800
01F800
01F800
01F800
01F800
01F800
01F000
03F000
03F000
03F000
03F000
03F000
03E000
07E000
07E000
07E000
07E000
07E000
07C000
0FC000
0FC000
0FC000
0FC000
0FC000
1F8000
1F8000
1F8000
1F8000
1F8000
1F0000
3F0000
3F0000
3F0000
3F0000
3F0000
3E0000
7E0000
7E0000
7E0000
7E0000
7E0000
7C0000
FC0000
FC0000
ENDCHAR
STARTCHAR 00CF
ENCODING 207
SWIDTH 240 0
DWIDTH 16 0
BBX 23 61 5 0
BITMAP
030018
0FC07E
1FC0FE
1FC0FE
1FC0FE
1FC0FE
1F80FC
0E0070
000000
000000
000000
000000
000000
000000
00FC00
00FC00
00FC00
00F800
01F800
01F800
01F800
01F800
01F800
01F000
03F000
03F000
03F000
03F000
03F000
03E000
07E000
07E000
07E000
07E000
07E000
07C000
0FC000
0FC000
0FC000
0FC000
0FC000
1F8000
1F8000
1F8000
1F8000
1F8000
1F0000
3F0000
3F0000
3F0000
3F0000
3F0000
3E0000
7E0000
7E0000
7E0000
7E0000
7E0000
7C0000
FC0000
FC0000
ENDCHAR
STARTCHAR 00D0
ENCODING 208
SWIDTH 705 0
DWIDTH 47 0
BBX 42 47 7 0
BITMAP
00FFFF800000
00FFFFFE0000
01FFFFFFC000
01FFFFFFE000
01FFFFFFF800
01FFFFFFFC00
01F0000FFE00
01F00001FE00
03F00000FF00
03F000007F00
03F000003F80
03F000001F80
03E000001FC0
07E000001FC0
07E000000FC0
07E000000FC0
07E000000FC0
07C000000FC0
07C000000FC0
0FC000000FC0
0FC000000FC0
FFFFE0000FC0
FFFFE0000FC0
FFFFC0000FC0
FFFFC0000FC0
1F8000001F80
1F8000001F80
1F8000001F80
1F8000001F80
1F0000003F00
1F0000003F00
3F0000007F00
3F0000007E00
3F000000FE00
3F000001FC00
3E000003F800
3E000007F800
7E00000FF000
7E00001FE000
7E00007FC000
7E0003FF8000
7C003FFF0000
7FFFFFFC0000
FFFFFFF80000
FFFFFFE00000
FFFFFF000000
FFFFF8000000
ENDCHAR
STARTCHAR 00D1
ENCODING 209
SWIDTH 705 0
DWIDTH 47 0
BBX 45 60 5 0
BITMAP
000007F00F00
00000FFC1E00
00001FFFFE00
00003FFFFC00
00003C1FF800
00007807F000
000000000000
000000000000
000000000000
000000000000
000000000000
000000000000
000000000000
00FC000000F8
00FE000001F8
00FE000001F8
01FF000001F8
01FF000001F8
01FF800001F0
01FF800001F0
01FFC00003F0
01FFC00003F0
03FFE00003F0
03FFE00003F0
03F7F00003E0
03F7F00003E0
03E3F80007E0
03E3F80007E0
07E1FC0007E0
07E0FC0007E0
07E0FE0007C0
07E07E0007C0
07C07F000FC0
0FC03F000FC0
0FC03F800FC0
0FC01F800FC0
0FC01FC00F80
0FC00FC01F80
0F800FE01F80
1F8007E01F80
1F8007F01F80
1F8003F01F80
1F8003F81F00
1F8001F83F00
1F0001FC3F00
3F0000FC3F00
3F0000FE3F00
3F00007E3F00
3F00007F3E00
3E00003F7E00
3E00003FFE00
7E00001FFE00
7E00001FFE00
7E00000FFE00
7E00000FFC00
7C000007FC00
7C000007FC00
FC000003FC00
FC000003FC00
FC000001FC00
ENDCHAR
STARTCHAR 00D2
ENCODING 210
SWIDTH 735 0
DWIDTH 49 0
BBX 43 63 7 0
BITMAP
00003F000000
00001F800000
00001F800000
00000F800000
00000FC00000
000007C00000
000007C00000
000003E00000
000003E00000
000001F00000
000001F00000
000000F00000
000000000000
000000000000
000000000000
000001F80000
00003FFF8000
0000FFFFE000
0003FFFFF800
000FFFFFFC00
001FFFFFFE00
003FE003FE00
007F8000FF00
00FF00007F80
01FC00003F80
03F800001FC0
07F000001FC0
07F000000FC0
0FE000000FC0
0FC000000FE0
1FC0000007E0
1F80000007E0
3F80000007E0
3F00000007E0
3F00000007E0
7E00000007E0
7E00000007E0
7E00000007E0
7E00000007E0
FC0000000FE0
FC0000000FC0
FC0000000FC0
FC0000000FC0
FC0000000FC0
FC0000001F80
FC0000001F80
FC0000003F80
FC0000003F00
FC0000007F00
FE0000007E00
FE000000FE00
7E000001FC00
7F000003F800
7F800007F800
3F80000FF000
3FC0001FE000
1FF0007FC000
0FFC01FF8000
0FFFFFFF0000
07FFFFFC0000
01FFFFF80000
00FFFFE00000
001FFF000000
ENDCHAR
STARTCHAR 00D3
ENCODING 211
SWIDTH 735 0
DWIDTH 49 0
BBX 43 63 7 0
BITMAP
00000000FC00
00000001F800
00000001F000
00000003F000
00000007E000
00000007C000
0000000F8000
0000001F0000
0000003E0000
0000003E0000
0000007C0000
000000F80000
000000000000
000000000000
000000000000
000001F80000
00003FFF8000
0000FFFFE000
0003FFFFF800
000FFFFFFC00
001FFFFFFE00
003FE003FE00
007F8000FF00
00FF00007F80
01FC00003F80
03F800001FC0
07F000001FC0
07F000000FC0
0FE000000FC0
0FC000000FE0
1FC0000007E0
1F80000007E0
3F80000007E0
3F00000007E0
3F00000007E0
7E00000007E0
7E00000007E0
7E00000007E0
7E00000007E0
FC0000000FE0
FC0000000FC0
FC0000000FC0
FC0000000FC0
FC0000000FC0
FC0000001F80
FC0000001F80
FC0000003F80
FC0000003F00
FC0000007F00
FE0000007E00
FE000000FE00
7E000001FC00
7F000003F800
7F800007F800
3F80000FF000
3FC0001FE000
1FF0007FC000
0FFC01FF8000
0FFFFFFF0000
07FFFFFC0000
01FFFFF80000
00FFFFE00000
001FFF000000
ENDCHAR
STARTCHAR 00D4
ENCODING 212
SWIDTH 735 0
DWIDTH 49 0
BBX 43 61 7 0
BITMAP
0000007E0000
000000FE0000
000001FF0000
000003FF8000
000007EF8000
00000F87C000
00001F07E000
00003E03F000
00007C01F000
0001F801F800
000000000000
000000000000
000000000000
000001F80000
00003FFF8000
0000FFFFE000
0003FFFFF800
000FFFFFFC00
001FFFFFFE00
003FE003FE00
007F8000FF00
00FF00007F80
01FC00003F80
03F800001FC0
07F000001FC0
07F000000FC0
0FE000000FC0
0FC000000FE0
1FC0000007E0
1F80000007E0
3F80000007E0
3F00000007E0
3F00000007E0
7E00000007E0
7E00000007E0
7E00000007E0
7E00000007E0
FC0000000FE0
FC0000000FC0
FC0000000FC0
FC0000000FC0
FC0000000FC0
FC0000001F80
FC0000001F80
FC0000003F80
FC0000003F00
FC0000007F00
FE0000007E00
FE000000FE00
7E000001FC00
7F000003F800
7F800007F800
3F80000FF000
3FC0001FE000
1FF0007FC000
0FFC01FF8000
0FFFFFFF0000
07FFFFFC0000
01FFFFF80000
00FFFFE00000
001FFF000000
ENDCHAR
STARTCHAR 00D5
ENCODING 213
SWIDTH 735 0
DWIDTH 49 0
BBX 43 60 7 0
BITMAP
00000FE03C00
00001FF83C00
00003FFFF800
00007FFFF800
0000F83FF000
0000F00FC000
000000000000
000000000000
000000000000
000000000000
000000000000
000000000000
000001F80000
00003FFF8000
0000FFFFE000
0003FFFFF800
000FFFFFFC00
001FFFFFFE00
003FE003FE00
007F8000FF00
00FF00007F80
01FC00003F80
03F800001FC0
07F000001FC0
07F000000FC0
0FE000000FC0
0FC000000FE0
1FC0000007E0
1F80000007E0
3F80000007E0
3F00000007E0
3F00000007E0
7E00000007E0
7E00000007E0
7E00000007E0
7E00000007E0
FC0000000FE0
FC0000000FC0
FC0000000FC0
FC0000000FC0
FC0000000FC0
FC0000001F80
FC0000001F80
FC0000003F80
FC0000003F00
FC0000007F00
FE0000007E00
FE000000FE00
7E000001FC00
7F000003F800
7F800007F800
3F80000FF000
3FC0001FE000
1FF0007FC000
0FFC01FF8000
0FFFFFFF0000
07FFFFFC0000
01FFFFF80000
00FFFFE00000
001FFF000000
ENDCHAR
STARTCHAR 00D6
ENCODING 214
SWIDTH 735 0
DWIDTH 49 0
BBX 43 61 7 0
BITMAP
000006002000
00001F00F800
00003F01FC00
00007F83FC00
00007F03FC00
00007F03F800
00007E01F000
00001800E000
000000000000
000000000000
000000000000
000000000000
000000000000
000001F80000
00003FFF8000
0000FFFFE000
0003FFFFF800
000FFFFFFC00
001FFFFFFE00
003FE003FE00
007F8000FF00
00FF00007F80
01FC00003F80
03F800001FC0
07F000001FC0
07F000000FC0
0FE000000FC0
0FC000000FE0
1FC0000007E0
1F80000007E0
3F80000007E0
3F00000007E0
3F00000007E0
7E00000007E0
7E00000007E0
7E00000007E0
7E00000007E0
FC0000000FE0
FC0000000FC0
FC0000000FC0
FC0000000FC0
FC0000000FC0
FC0000001F80
FC0000001F80
FC0000003F80
FC0000003F00
FC0000007F00
FE0000007E00
FE000000FE00
7E000001FC00
7F000003F800
7F800007F800
3F80000FF000
3FC0001FE000
1FF0007FC000
0FFC01FF8000
0FFFFFFF0000
07FFFFFC0000
01FFFFF80000
00FFFFE00000
001FFF000000
ENDCHAR
STARTCHAR 00D7
ENCODING 215
SWIDTH 540 0
DWIDTH 36 0
BBX 24 22 10 10
BITMAP
020004
07000E
0F001E
3F807F
1FC0FE
0FE1FC
07F3F8
07FFF0
03FFE0
01FFC0
00FF00
00FF00
01FF80
03FFC0
07FFC0
1FEFE0
3F87F0
7F03F8
FE01FC
FC01F8
7800F0
300060
ENDCHAR
STARTCHAR 00D8
ENCODING 216
SWIDTH 735 0
DWIDTH 49 0
BBX 48 53 5 -3
BITMAP
00000000003F
00000000007E
0000007E007C
00000FFFE0F8
00003FFFF9F0
0000FFFFFFF0
0001FFFFFFE0
0007FFFFFFC0
000FFC00FFC0
001FF0003FC0
003FC0003FE0
007F80007FF0
00FF0000FFF0
00FE0000FFF0
01FC0001F3F8
03F80003E3F8
03F00007E1F8
07F0000FC1F8
07E0000F81F8
0FE0001F01F8
0FC0003E01F8
0FC0007E01F8
1FC000FC01F8
1F8000F801F8
1F8001F001F8
1F8003E001F8
1F8007E001F8
3F000FC001F8
3F001F8003F0
3F001F0003F0
3F003E0003F0
3F007C0007F0
3F00FC0007E0
3F01F80007E0
3F01F0000FC0
3F83E0000FC0
3F87C0001FC0
1F8FC0003F80
1FDF80003F00
1FDF00007F00
0FFE0000FE00
0FFC0001FC00
0FFC0007F800
07FC001FF000
03FF007FE000
03FFFFFFC000
07FFFFFF8000
0FFFFFFE0000
1F9FFFF80000
3F07FFC00000
3E0000000000
7C0000000000
F80000000000
ENDCHAR
STARTCHAR 00D9
ENCODING 217
SWIDTH 675 0
DWIDTH 45 0
BBX 42 64 7 -1
BITMAP
00007E000000
00007E000000
00003E000000
00003F000000
00001F000000
00001F000000
00000F800000
00000F800000
000007C00000
000007C00000
000003C00000
000003E00000
000000000000
000000000000
000000000000
000000000000
07E000000FC0
07E000000FC0
07E000000FC0
07C000000FC0
07C000000FC0
0FC000000F80
0FC000001F80
0FC000001F80
0FC000001F80
0F8000001F80
0F8000001F00
1F8000001F00
1F8000003F00
1F8000003F00
1F8000003F00
1F0000003F00
1F0000003E00
3F0000003E00
3F0000007E00
3F0000007E00
3F0000007E00
3E0000007E00
3E0000007C00
7E0000007C00
7E000000FC00
7E000000FC00
7E000000FC00
7C000000FC00
7C000000F800
FC000001F800
FC000001F800
FC000001F800
FC000003F000
FC000003F000
FC000007E000
7E000007E000
7E00000FC000
7F00001FC000
7F00001F8000
3F80007F8000
3FC000FF0000
1FF007FE0000
1FFFFFFC0000
0FFFFFF80000
07FFFFE00000
01FFFFC00000
007FFE000000
000380000000
ENDCHAR
STARTCHAR 00DA
ENCODING 218
SWIDTH 675 0
DWIDTH 45 0
BBX 42 64 7 -1
BITMAP
00000001F800
00000003F000
00000007E000
0000000FC000
0000000F8000
0000001F0000
0000003E0000
0000007E0000
0000007C0000
000000F80000
000001F00000
000001E00000
000000000000
000000000000
000000000000
000000000000
07E000000FC0
07E000000FC0
07E000000FC0
07C000000FC0
07C000000FC0
0FC000000F80
0FC000001F80
0FC000001F80
0FC000001F80
0F8000001F80
0F8000001F00
1F8000001F00
1F8000003F00
1F8000003F00
1F8000003F00
1F0000003F00
1F0000003E00
3F0000003E00
3F0000007E00
3F0000007E00
3F0000007E00
3E0000007E00
3E0000007C00
7E0000007C00
7E000000FC00
7E000000FC00
7E000000FC00
7C000000FC00
7C000000F800
FC000001F800
FC000001F800
FC000001F800
FC000003F000
FC000003F000
FC000007E000
7E000007E000
7E00000FC000
7F00001FC000
7F00001F8000
3F80007F8000
3FC000FF0000
1FF007FE0000
1FFFFFFC0000
0FFFFFF80000
07FFFFE00000
01FFFFC00000
007FFE000000
000380000000
ENDCHAR
STARTCHAR 00DB
ENCODING 219
SWIDTH 675 0
DWIDTH 45 0
BBX 42 62 7 -1
BITMAP
000001F80000
000003FC0000
000007FC0000
00000FFE0000
00001FBF0000
00003F1F8000
00007E0F8000
0000FC0FC000
0001F807E000
0003F003F000
000000000000
000000000000
000000000000
000000000000
07E000000FC0
07E000000FC0
07E000000FC0
07C000000FC0
07C000000FC0
0FC000000F80
0FC000001F80
0FC000001F80
0FC000001F80
0F8000001F80
0F8000001F00
1F8000001F00
1F8000003F00
1F8000003F00
1F8000003F00
1F0000003F00
1F0000003E00
3F0000003E00
3F0000007E00
3F0000007E00
3F0000007E00
3E0000007E00
3E0000007C00
7E0000007C00
7E000000FC00
7E000000FC00
7E000000FC00
7C000000FC00
7C000000F800
FC000001F800
FC000001F800
FC000001F800
FC000003F000
FC000003F000
FC000007E000
7E000007E000
7E00000FC000
7F00001FC000
7F00001F8000
3F80007F8000
3FC000FF0000
1FF007FE0000
1FFFFFFC0000
0FFFFFF80000
07FFFFE00000
01FFFFC00000
007FFE000000
000380000000
ENDCHAR
STARTCHAR 00DC
ENCODING 220
SWIDTH 675 0
DWIDTH 45 0
BBX 42 62 7 -1
BITMAP
00001800C000
00007C03E000
0000FE07F000
0000FE07F000
0001FE0FF000
0001FC07E000
0000FC07E000
000070038000
000000000000
000000000000
000000000000
000000000000
000000000000
000000000000
07E000000FC0
07E000000FC0
07E000000FC0
07C000000FC0
07C000000FC0
0FC000000F80
0FC000001F80
0FC000001F80
0FC000001F80
0F8000001F80
0F8000001F00
1F8000001F00
1F8000003F00
1F8000003F00
1F8000003F00
1F0000003F00
1F0000003E00
3F0000003E00
3F0000007E00
3F0000007E00
3F0000007E00
3E0000007E00
3E0000007C00
7E0000007C00
7E000000FC00
7E000000FC00
7E000000FC00
7C000000FC00
7C000000F800
FC000001F800
FC000001F800
FC000001F800
FC000003F000
FC000003F000
FC000007E000
7E000007E000
7E00000FC000
7F00001FC000
7F00001F8000
3F80007F8000
3FC000FF0000
1FF007FE0000
1FFFFFFC0000
0FFFFFF80000
07FFFFE00000
01FFFFC00000
007FFE000000
000380000000
ENDCHAR
STARTCHAR 00DD
ENCODING 221
SWIDTH 600 0
DWIDTH 40 0
BBX 36 63 10 0
BITMAP
0000007E00
000000FC00
000001F800
000001F000
000003F000
000007E000
000007C000
00000F8000
00001F0000
00003E0000
00003C0000
00007C0000
0000000000
0000000000
0000000000
0000000000
FE000003F0
7E000007F0
7E000007E0
7F00000FC0
3F00001FC0
3F00001F80
3F00003F00
1F80007F00
1F80007E00
1F8000FC00
0FC001F800
0FC001F800
0FC003F000
07E007E000
07E007E000
07E00FC000
03F01F8000
03F01F8000
03F03F0000
01F87E0000
01F87E0000
01F8FC0000
00FDF80000
00FDF80000
00FFF00000
007FE00000
007FE00000
007FC00000
003F800000
003F800000
003F000000
003F000000
003F000000
003F000000
003E000000
007E000000
007E000000
007E000000
007E000000
007E000000
007C000000
00FC000000
00FC000000
00FC000000
00FC000000
00FC000000
00F8000000
ENDCHAR
STARTCHAR 00DE
ENCODING 222
SWIDTH 585 0
DWIDTH 39 0
BBX 36 47 5 0
BITMAP
00FC000000
00F8000000
00F8000000
01F8000000
01F8000000
01F8000000
01F0000000
01F0000000
01FFFF0000
03FFFFF800
03FFFFFE00
03FFFFFF80
03FFFFFF80
03FFFFFFC0
03E0003FE0
07E0000FE0
07E00007F0
07E00003F0
07C00003F0
07C00003F0
0FC00001F0
0FC00001F0
0FC00001F0
0FC00003F0
0F800003F0
0F800003F0
1F800003E0
1F800007E0
1F800007E0
1F80000FC0
1F00001F80
1F00003F80
3F0000FF00
3F0007FE00
3FFFFFFC00
3FFFFFF800
3FFFFFE000
3FFFFF8000
7FFFFC0000
7E00000000
7E00000000
7E00000000
7C00000000
7C00000000
FC00000000
FC00000000
FC00000000
ENDCHAR
STARTCHAR 00DF
ENCODING 223
SWIDTH 555 0
DWIDTH 37 0
BBX 34 49 5 -1
BITMAP
00001F8000
0001FFF800
0007FFFE00
000FFFFF00
001FFFFF80
003FC07F80
007F001FC0
00FE000FC0
00FC000FC0
01F80007C0
01F80007C0
03F00007C0
03F00007C0
03F00007C0
03E0000FC0
07E0000F80
07E0000F80
07E0001F00
07E0003F00
07E000FE00
07C003FC00
0FC3FFF000
0FC3FFE000
0FC3FF8000
0FC3FFE000
0FC03FF800
0F8001FC00
1F8000FC00
1F80007E00
1F80003E00
1F80003F00
1F80003F00
1F00001F00
3F00003F00
3F00003F00
3F00003E00
3F00003E00
3F00007E00
3E00007E00
7E0000FC00
7E0001FC00
7E0003F800
7E000FF000
7C19FFE000
7C1FFFC000
FC1FFF8000
FC1FFE0000
FC1FF80000
0003000000
ENDCHAR
STARTCHAR 00E0
ENCODING 224
SWIDTH 600 0
DWIDTH 40 0
BBX 37 52 5 0
BITMAP
0007E00000
0003F00000
0003F00000
0001F80000
0001F80000
0000F80000
0000FC0000
00007C0000
00007C0000
00003E0000
00003E0000
00001F0000
0000000000
0000000000
0000000000
0000000000
0003FE0000
000FFF81F8
003FFFC1F0
007FFFE3F0
00FFFFF3F0
01FF01F3F0
03FC007BF0
07F0003FF0
0FE0001FE0
0FC0001FE0
1F80001FE0
1F80000FE0
3F00000FE0
3F00000FC0
7E00000FC0
7E00000FC0
7E00000FC0
7E00000FC0
FC00000FC0
FC00001F80
FC00001F80
FC00001F80
FC00001F80
FC00003F80
FC00003F80
FE00007F00
FE0000FF00
7E0001FF00
7F0003FF00
7F8007BF00
3FC01F3F00
3FFFFF3E00
1FFFFC7E00
0FFFF87E00
07FFF07E00
01FFC07E00
ENDCHAR
STARTCHAR 00E1
ENCODING 225
SWIDTH 600 0
DWIDTH 40 0
BBX 37 52 5 0
BITMAP
0000000FC0
0000001F80
0000003F00
0000003E00
0000007E00
000000FC00
000000F800
000001F000
000003E000
000007C000
000007C000
00000F8000
0000000000
0000000000
0000000000
0000000000
0003FE0000
000FFF81F8
003FFFC1F0
007FFFE3F0
00FFFFF3F0
01FF01F3F0
03FC007BF0
07F0003FF0
0FE0001FE0
0FC0001FE0
1F80001FE0
1F80000FE0
3F00000FE0
3F00000FC0
7E00000FC0
7E00000FC0
7E00000FC0
7E00000FC0
FC00000FC0
FC00001F80
FC00001F80
FC00001F80
FC00001F80
FC00003F80
FC00003F80
FE00007F00
FE0000FF00
7E0001FF00
7F0003FF00
7F8007BF00
3FC01F3F00
3FFFFF3E00
1FFFFC7E00
0FFFF87E00
07FFF07E00
01FFC07E00
ENDCHAR
STARTCHAR 00E2
ENCODING 226
SWIDTH 600 0
DWIDTH 40 0
BBX 37 49 5 0
BITMAP
00000FC000
00001FE000
00003FF000
00007FF800
0000F8F800
0001F0FC00
0003E07E00
000FC03E00
001F803F00
0000000000
0000000000
0000000000
0000000000
0003FE0000
000FFF81F8
003FFFC1F0
007FFFE3F0
00FFFFF3F0
01FF01F3F0
03FC007BF0
07F0003FF0
0FE0001FE0
0FC0001FE0
1F80001FE0
1F80000FE0
3F00000FE0
3F00000FC0
7E00000FC0
7E00000FC0
7E00000FC0
7E00000FC0
FC00000FC0
FC00001F80
FC00001F80
FC00001F80
FC00001F80
FC00003F80
FC00003F80
FE00007F00
FE0000FF00
7E0001FF00
7F0003FF00
7F8007BF00
3FC01F3F00
3FFFFF3E00
1FFFFC7E00
0FFFF87E00
07FFF07E00
01FFC07E00
ENDCHAR
STARTCHAR 00E3
ENCODING 227
SWIDTH 600 0
DWIDTH 40 0
BBX 37 49 5 0
BITMAP
00007003C0
0001FE07C0
0003FF8F80
0007FFFF00
000F8FFF00
000F03FE00
001E00F000
0000000000
0000000000
0000000000
0000000000
0000000000
0000000000
0003FE0000
000FFF81F8
003FFFC1F0
007FFFE3F0
00FFFFF3F0
01FF01F3F0
03FC007BF0
07F0003FF0
0FE0001FE0
0FC0001FE0
1F80001FE0
1F80000FE0
3F00000FE0
3F00000FC0
7E00000FC0
7E00000FC0
7E00000FC0
7E00000FC0
FC00000FC0
FC00001F80
FC00001F80
FC00001F80
FC00001F80
FC00003F80
FC00003F80
FE00007F00
FE0000FF00
7E0001FF00
7F0003FF00
7F8007BF00
3FC01F3F00
3FFFFF3E00
1FFFFC7E00
0FFFF87E00
07FFF07E00
01FFC07E00
ENDCHAR
STARTCHAR 00E4
ENCODING 228
SWIDTH 600 0
DWIDTH 40 0
BBX 37 49 5 0
BITMAP
0001E00F00
0007F01F80
0007F03F80
000FF03F80
000FF07F80
0007E03F00
0007C03E00
0000000000
0000000000
0000000000
0000000000
0000000000
0000000000
0003FE0000
000FFF81F8
003FFFC1F0
007FFFE3F0
00FFFFF3F0
01FF01F3F0
03FC007BF0
07F0003FF0
0FE0001FE0
0FC0001FE0
1F80001FE0
1F80000FE0
3F00000FE0
3F00000FC0
7E00000FC0
7E00000FC0
7E00000FC0
7E00000FC0
FC00000FC0
FC00001F80
FC00001F80
FC00001F80
FC00001F80
FC00003F80
FC00003F80
FE00007F00
FE0000FF00
7E0001FF00
7F0003FF00
7F8007BF00
3FC01F3F00
3FFFFF3E00
1FFFFC7E00
0FFFF87E00
07FFF07E00
01FFC07E00
ENDCHAR
STARTCHAR 00E5
ENCODING 229
SWIDTH 600 0
DWIDTH 40 0
BBX 37 52 5 0
BITMAP
00000FE000
00001FF000
00003C7000
0000383800
0000703800
0000703800
0000703000
0000707000
00007FE000
00003FC000
00001F8000
0000000000
0000000000
0000000000
0000000000
0000000000
0003FE0000
000FFF81F8
003FFFC1F0
007FFFE3F0
00FFFFF3F0
01FF01F3F0
03FC007BF0
07F0003FF0
0FE0001FE0
0FC0001FE0
1F80001FE0
1F80000FE0
3F00000FE0
3F00000FC0
7E00000FC0
7E00000FC0
7E00000FC0
7E00000FC0
FC00000FC0
FC00001F80
FC00001F80
FC00001F80
FC00001F80
FC00003F80
FC00003F80
FE00007F00
FE0000FF00
7E0001FF00
7F0003FF00
7F8007BF00
3FC01F3F00
3FFFFF3E00
1FFFFC7E00
0FFFF87E00
07FFF07E00
01FFC07E00
ENDCHAR
STARTCHAR 00E6
ENCODING 230
SWIDTH 930 0
DWIDTH 62 0
BBX 58 36 5 0
BITMAP
0000FE00007FC000
000FFFC003FFF000
003FFFE00FFFF800
007FFFF01FFFFC00
00FFFFF87FFFFE00
01FE01F8FF00FF00
03F800FDFC003F00
07E0007DF0001F80
07C0003FE0001F80
0FC0003FC0000F80
0F80003FC0000F80
0000003F80000F80
0000003F80000FC0
0000003F00000FC0
0000003F00000FC0
0000003F00000FC0
001FFFFFFFFFFFC0
00FFFFFFFFFFFF80
07FFFFFFFFFFFF80
0FFFFFFFFFFFFF80
1FE0007E00000000
3F80007E00000000
7E0000FE00000000
7E0000FE00000000
FC0000FE00000000
FC0001FE00003F00
FC0001FE00007E00
FC0003FF0000FC00
FC0007FF0001FC00
FC000F9F8003F800
FE003F1FE00FF000
7F80FE0FF87FE000
7FFFFC07FFFFC000
3FFFF803FFFF8000
1FFFE001FFFE0000
07FF00007FF80000
ENDCHAR
STARTCHAR 00E7
ENCODING 231
SWIDTH 555 0
DWIDTH 37 0
BBX 33 52 5 -16
BITMAP
0000FF8000
0007FFE000
001FFFF800
007FFFFC00
00FFFFFE00
01FF01FF00
03F8007F00
07F0003F00
0FE0001F80
0FC0001F80
1F80001F80
1F80000F80
3F00000F80
3F00000F80
7E00000000
7E00000000
7E00000000
7C00000000
7C00000000
FC00000000
FC00000000
FC00000000
FC00000000
FC00003F00
FC00003E00
7E00007E00
7E0000FC00
7E0000FC00
7F0001F800
3F8003F000
3FC00FE000
1FFCFFE000
0FFFFF8000
07FFFF0000
03FFFE0000
00FFF00000
000F000000
000E000000
001E000000
001C000000
003FE00000
003FF80000
003FF80000
0000380000
0000380000
0000380000
0000380000
0000780000
0000F00000
007FE00000
007FC00000
007F800000
ENDCHAR
STARTCHAR 00E8
ENCODING 232
SWIDTH 555 0
DWIDTH 37 0
BBX 33 52 5 0
BITMAP
0007E00000
0003F00000
0003F00000
0001F80000
0001F80000
0000F80000
0000FC0000
00007C0000
00007E0000
00003E0000
00003E0000
00001F0000
0000000000
0000000000
0000000000
0000000000
0001FFE000
000FFFF800
003FFFFC00
007FFFFE00
00FF83FF00
03FC007F00
03F0003F80
07E0001F80
0FC0001F80
1F80000F80
1F80001F80
3F00001F80
3F00001F80
3E00003F00
7E00007F00
7E000FFE00
7FFFFFFC00
7FFFFFF000
7FFFFFC000
FFFFF80000
FC00000000
FC00000000
FC00000000
FC00000000
7C00000000
7E00007E00
7E00007C00
7E0000FC00
3F0001F800
3F8007F800
1FE00FF000
1FFFFFE000
0FFFFFC000
07FFFF0000
01FFFE0000
007FF00000
ENDCHAR
STARTCHAR 00E9
ENCODING 233
SWIDTH 555 0
DWIDTH 37 0
BBX 34 52 5 0
BITMAP
0000000FC0
0000001F80
0000001F00
0000003E00
0000007E00
000000FC00
000000F800
000001F000
000003E000
000007C000
000007C000
00000F8000
0000000000
0000000000
0000000000
0000000000
0001FFE000
000FFFF800
003FFFFC00
007FFFFE00
00FF83FF00
03FC007F00
03F0003F80
07E0001F80
0FC0001F80
1F80000F80
1F80001F80
3F00001F80
3F00001F80
3E00003F00
7E00007F00
7E000FFE00
7FFFFFFC00
7FFFFFF000
7FFFFFC000
FFFFF80000
FC00000000
FC00000000
FC00000000
FC00000000
7C00000000
7E00007E00
7E00007C00
7E0000FC00
3F0001F800
3F8007F800
1FE00FF000
1FFFFFE000
0FFFFFC000
07FFFF0000
01FFFE0000
007FF00000
ENDCHAR
STARTCHAR 00EA
ENCODING 234
SWIDTH 555 0
DWIDTH 37 0
BBX 33 49 5 0
BITMAP
00000FC000
00001FE000
00003FF000
00007FF800
0000FCF800
0001F0FC00
0003E07E00
0007C03F00
001F803F00
0000000000
0000000000
0000000000
0000000000
0001FFE000
000FFFF800
003FFFFC00
007FFFFE00
00FF83FF00
03FC007F00
03F0003F80
07E0001F80
0FC0001F80
1F80000F80
1F80001F80
3F00001F80
3F00001F80
3E00003F00
7E00007F00
7E000FFE00
7FFFFFFC00
7FFFFFF000
7FFFFFC000
FFFFF80000
FC00000000
FC00000000
FC00000000
FC00000000
7C00000000
7E00007E00
7E00007C00
7E0000FC00
3F0001F800
3F8007F800
1FE00FF000
1FFFFFE000
0FFFFFC000
07FFFF0000
01FFFE0000
007FF00000
ENDCHAR
STARTCHAR 00EB
ENCODING 235
SWIDTH 555 0
DWIDTH 37 0
BBX 33 49 5 0
BITMAP
0001E00F00
0003F01F80
0007F03F80
0007F03F80
000FF03F80
0007E03F00
0007C03E00
0000000000
0000000000
0000000000
0000000000
0000000000
0000000000
0001FFE000
000FFFF800
003FFFFC00
007FFFFE00
00FF83FF00
03FC007F00
03F0003F80
07E0001F80
0FC0001F80
1F80000F80
1F80001F80
3F00001F80
3F00001F80
3E00003F00
7E00007F00
7E000FFE00
7FFFFFFC00
7FFFFFF000
7FFFFFC000
FFFFF80000
FC00000000
FC00000000
FC00000000
FC00000000
7C00000000
7E00007E00
7E00007C00
7E0000FC00
3F0001F800
3F8007F800
1FE00FF000
1FFFFFE000
0FFFFFC000
07FFFF0000
01FFFE0000
007FF00000
ENDCHAR
STARTCHAR 00EC
ENCODING 236
SWIDTH 240 0
DWIDTH 16 0
BBX 11 52 6 0
BITMAP
7E00
7E00
3F00
3F00
1F00
1F80
0F80
0FC0
07C0
07C0
03E0
03E0
0000
0000
0000
0000
0000
07E0
07E0
07E0
07E0
07C0
0FC0
0FC0
0FC0
0FC0
0FC0
0F80
1F80
1F80
1F80
1F80
1F80
1F00
3F00
3F00
3F00
3F00
3F00
3E00
7E00
7E00
7E00
7E00
7C00
7C00
FC00
FC00
FC00
FC00
F800
F800
ENDCHAR
STARTCHAR 00ED
ENCODING 237
SWIDTH 240 0
DWIDTH 16 0
BBX 21 52 6 0
BITMAP
0001F8
0001F8
0003F0
0007E0
000FC0
000F80
001F00
003F00
003E00
007C00
00F800
01F000
000000
000000
000000
000000
000000
07E000
07E000
07E000
07E000
07C000
0FC000
0FC000
0FC000
0FC000
0FC000
0F8000
1F8000
1F8000
1F8000
1F8000
1F8000
1F0000
3F0000
3F0000
3F0000
3F0000
3F0000
3E0000
7E0000
7E0000
7E0000
7E0000
7C0000
7C0000
FC0000
FC0000
FC0000
FC0000
F80000
F80000
ENDCHAR
STARTCHAR 00EE
ENCODING 238
SWIDTH 240 0
DWIDTH 16 0
BBX 22 49 4 0
BITMAP
007F00
00FF80
01FF80
03FFC0
07E7E0
0FC3E0
1F83F0
3F01F8
7E00FC
800000
000000
000000
000000
000000
01F800
01F800
01F800
01F800
01F000
03F000
03F000
03F000
03F000
03F000
03E000
07E000
07E000
07E000
07E000
07E000
07C000
0FC000
0FC000
0FC000
0FC000
0FC000
0F8000
1F8000
1F8000
1F8000
1F8000
1F0000
1F0000
3F0000
3F0000
3F0000
3F0000
3E0000
3E0000
ENDCHAR
STARTCHAR 00EF
ENCODING 239
SWIDTH 240 0
DWIDTH 16 0
BBX 21 49 6 0
BITMAP
3C01E0
7E03F0
FE07F8
FE07F8
FE07F0
FE07F0
7803E0
000000
000000
000000
000000
000000
000000
000000
07E000
07E000
07E000
07E000
07C000
0FC000
0FC000
0FC000
0FC000
0FC000
0F8000
1F8000
1F8000
1F8000
1F8000
1F8000
1F0000
3F0000
3F0000
3F0000
3F0000
3F0000
3E0000
7E0000
7E0000
7E0000
7E0000
7C0000
7C0000
FC0000
FC0000
FC0000
FC0000
F80000
F80000
ENDCHAR
STARTCHAR 00F0
ENCODING 240
SWIDTH 600 0
DWIDTH 40 0
BBX 38 53 5 0
BITMAP
0000380000
00003F8008
00003FF03C
00003FF8FC
00003FFFF8
000003FFE0
000000FF80
000000FF80
000003FFC0
00000FEFC0
00000FCFE0
00000F07E0
00000407F0
00000003F0
00000003F0
00000003F0
00000001F0
0001FE01F0
000FFF81F0
003FFFC1F0
007FFFE1F0
00FFFFF1F0
01FF01F9F0
03FC0079F0
07F0003FF0
0FE0001FE0
0FC0001FE0
1FC0000FE0
1F80000FE0
3F00000FE0
3F00000FE0
3F00000FC0
7E00000FC0
7E00000FC0
7E00000FC0
7E00000FC0
7C00000F80
FC00001F80
FC00001F80
FC00001F80
7C00003F00
7E00003F00
7E00007E00
7E0000FE00
7F0000FC00
3F0001F800
3F8007F800
3FC00FF000
1FFFFFE000
0FFFFF8000
07FFFF0000
03FFFE0000
00FFF00000
ENDCHAR
STARTCHAR 00F1
ENCODING 241
SWIDTH 600 0
DWIDTH 40 0
BBX 35 49 5 0
BITMAP
00003801C0
0001FF03C0
0003FFC7C0
0007FFFF80
0007C7FF00
000F01FE00
000F007800
0000000000
0000000000
0000000000
0000000000
0000000000
0000000000
00000FF000
03F07FFE00
03E0FFFF00
03E3FFFF80
07E7FFFF80
07EFC0FFC0
07EE003FC0
07FC001FE0
07F8000FE0
07F00007E0
0FE00007E0
0FE00007E0
0FC00007E0
0FC00007E0
0F800007E0
1F800007E0
1F800007E0
1F800007C0
1F800007C0
1F80000FC0
1F00000FC0
3F00000FC0
3F00000FC0
3F00000F80
3F00001F80
3F00001F80
3E00001F80
7E00001F80
7E00001F80
7E00001F00
7E00003F00
7E00003F00
7C00003F00
FC00003F00
FC00003F00
FC00003E00
ENDCHAR
STARTCHAR 00F2
ENCODING 242
SWIDTH 570 0
DWIDTH 38 0
BBX 34 52 5 0
BITMAP
000FE00000
0007E00000
0007E00000
0003F00000
0003F00000
0001F00000
0001F80000
0000F80000
0000FC0000
00007C0000
00007C0000
00003E0000
0000000000
0000000000
0000000000
0000000000
0000FF8000
0007FFE000
001FFFF800
007FFFFC00
00FFFFFE00
01FE01FE00
03F8007F00
07F0003F00
0FE0003F80
0FC0001F80
1F80001F80
1F80000FC0
3F00000FC0
3F00000FC0
7E00000FC0
7E00000FC0
7E00000FC0
7C00000FC0
FC00000F80
FC00001F80
FC00001F80
FC00001F80
FC00001F00
FC00003F00
FC00003F00
7E00007E00
7E0000FC00
7E0001FC00
7F0003F800
3F8007F000
3FC01FE000
1FFDFFC000
0FFFFF8000
07FFFF0000
03FFFC0000
00FFF00000
ENDCHAR
STARTCHAR 00F3
ENCODING 243
SWIDTH 570 0
DWIDTH 38 0
BBX 34 52 5 0
BITMAP
0000001F80
0000003F00
0000003E00
0000007E00
000000FC00
000001F800
000001F000
000003E000
000007C000
0000078000
00000F8000
00001F0000
0000000000
0000000000
0000000000
0000000000
0000FF8000
0007FFE000
001FFFF800
007FFFFC00
00FFFFFE00
01FE01FE00
03F8007F00
07F0003F00
0FE0003F80
0FC0001F80
1F80001F80
1F80000FC0
3F00000FC0
3F00000FC0
7E00000FC0
7E00000FC0
7E00000FC0
7C00000FC0
FC00000F80
FC00001F80
FC00001F80
FC00001F80
FC00001F00
FC00003F00
FC00003F00
7E00007E00
7E0000FC00
7E0001FC00
7F0003F800
3F8007F000
3FC01FE000
1FFDFFC000
0FFFFF8000
07FFFF0000
03FFFC0000
00FFF00000
ENDCHAR
STARTCHAR 00F4
ENCODING 244
SWIDTH 570 0
DWIDTH 38 0
BBX 34 49 5 0
BITMAP
00001F8000
00003FC000
00007FE000
0000FFF000
0001F9F000
0003E1F800
0007C0FC00
000F807E00
001F003E00
0020000100
0000000000
0000000000
0000000000
0000FF8000
0007FFE000
001FFFF800
007FFFFC00
00FFFFFE00
01FE01FE00
03F8007F00
07F0003F00
0FE0003F80
0FC0001F80
1F80001F80
1F80000FC0
3F00000FC0
3F00000FC0
7E00000FC0
7E00000FC0
7E00000FC0
7C00000FC0
FC00000F80
FC00001F80
FC00001F80
FC00001F80
FC00001F00
FC00003F00
FC00003F00
7E00007E00
7E0000FC00
7E0001FC00
7F0003F800
3F8007F000
3FC01FE000
1FFDFFC000
0FFFFF8000
07FFFF0000
03FFFC0000
00FFF00000
ENDCHAR
STARTCHAR 00F5
ENCODING 245
SWIDTH 570 0
DWIDTH 38 0
BBX 34 49 5 0
BITMAP
0000F00780
0003FC0780
0007FF1F00
000FFFFF00
001F1FFE00
001E07FC00
003C01E000
0000000000
0000000000
0000000000
0000000000
0000000000
0000000000
0000FF8000
0007FFE000
001FFFF800
007FFFFC00
00FFFFFE00
01FE01FE00
03F8007F00
07F0003F00
0FE0003F80
0FC0001F80
1F80001F80
1F80000FC0
3F00000FC0
3F00000FC0
7E00000FC0
7E00000FC0
7E00000FC0
7C00000FC0
FC00000F80
FC00001F80
FC00001F80
FC00001F80
FC00001F00
FC00003F00
FC00003F00
7E00007E00
7E0000FC00
7E0001FC00
7F0003F800
3F8007F000
3FC01FE000
1FFDFFC000
0FFFFF8000
07FFFF0000
03FFFC0000
00FFF00000
ENDCHAR
STARTCHAR 00F6
ENCODING 246
SWIDTH 570 0
DWIDTH 38 0
BBX 34 49 5 0
BITMAP
0003C01E00
0007E03F00
000FE07F00
000FE07F00
000FE07F00
000FC07E00
000F807C00
0000000000
0000000000
0000000000
0000000000
0000000000
0000000000
0000FF8000
0007FFE000
001FFFF800
007FFFFC00
00FFFFFE00
01FE01FE00
03F8007F00
07F0003F00
0FE0003F80
0FC0001F80
1F80001F80
1F80000FC0
3F00000FC0
3F00000FC0
7E00000FC0
7E00000FC0
7E00000FC0
7C00000FC0
FC00000F80
FC00001F80
FC00001F80
FC00001F80
FC00001F00
FC00003F00
FC00003F00
7E00007E00
7E0000FC00
7E0001FC00
7F0003F800
3F8007F000
3FC01FE000
1FFDFFC000
0FFFFF8000
07FFFF0000
03FFFC0000
00FFF00000
ENDCHAR
STARTCHAR 00F7
ENCODING 247
SWIDTH 600 0
DWIDTH 40 0
BBX 27 32 8 5
BITMAP
00380000
00FC0000
01FE0000
01FE0000
01FE0000
01FC0000
01F80000
00F00000
00000000
00000000
00000000
00000000
00000000
00000000
7FFFFFE0
7FFFFFE0
FFFFFFE0
FFFFFFE0
FFFFFFE0
00000000
00000000
00000000
00000000
00000000
003C0000
007E0000
00FF0000
00FF0000
00FF0000
00FE0000
007C0000
00300000
ENDCHAR
STARTCHAR 00F8
ENCODING 248
SWIDTH 585 0
DWIDTH 39 0
BBX 35 42 5 -3
BITMAP
00000003E0
00000003C0
00000007C0
0000FF8F80
0007FFEF00
001FFFFE00
007FFFFE00
00FFFFFE00
01FE01FE00
03F800FF00
07F001FF80
0FE003FF80
0FC003DF80
1F8007DF80
1F800F8FC0
3F000F0FC0
3F001E0FC0
7E003E0FC0
7E007C0FC0
7E00780FC0
7C00F00FC0
FC01F00F80
FC01E01F80
FC03C01F80
FC07C01F80
FC0F803F00
FC0F003F00
FC1E007F00
7E3E007E00
7E7C00FC00
7E7801FC00
7FF003F800
3FF007F000
3FE01FF000
1FFFFFC000
0FFFFF8000
0FFFFF0000
0FFFFC0000
1EFFF00000
3E00000000
7C00000000
7800000000
ENDCHAR
STARTCHAR 00F9
ENCODING 249
SWIDTH 600 0
DWIDTH 40 0
BBX 34 53 7 -1
BITMAP
001F800000
001F800000
000F800000
000FC00000
0007C00000
0007E00000
0003E00000
0003E00000
0001F00000
0001F00000
0000F00000
0000F80000
0000000000
0000000000
0000000000
0000000000
0000000000
0F80000FC0
1F80000FC0
1F80000FC0
1F80000FC0
1F80000FC0
1F80000F80
1F00001F80
3F00001F80
3F00001F80
3F00001F80
3F00001F80
3F00001F00
3E00003F00
7E00003F00
7E00003F00
7E00003F00
7E00003F00
7E00003E00
7C00007E00
FC00007E00
FC00007E00
FC00007E00
FC0000FE00
FC0000FC00
FC0000FC00
FC0001FC00
FE0003FC00
FE0007FC00
FF000EFC00
7F803EF800
7FFFFDF800
3FFFF9F800
1FFFF1F800
0FFFC1F800
07FF01F800
0070000000
ENDCHAR
STARTCHAR 00FA
ENCODING 250
SWIDTH 600 0
DWIDTH 40 0
BBX 34 53 7 -1
BITMAP
0000007E00
000000FC00
000000FC00
000001F800
000003F000
000003E000
000007C000
00000F8000
00001F0000
00001F0000
00003E0000
00007C0000
0000000000
0000000000
0000000000
0000000000
0000000000
0F80000FC0
1F80000FC0
1F80000FC0
1F80000FC0
1F80000FC0
1F80000F80
1F00001F80
3F00001F80
3F00001F80
3F00001F80
3F00001F80
3F00001F00
3E00003F00
7E00003F00
7E00003F00
7E00003F00
7E00003F00
7E00003E00
7C00007E00
FC00007E00
FC00007E00
FC00007E00
FC0000FE00
FC0000FC00
FC0000FC00
FC0001FC00
FE0003FC00
FE0007FC00
FF000EFC00
7F803EF800
7FFFFDF800
3FFFF9F800
1FFFF1F800
0FFFC1F800
07FF01F800
0070000000
ENDCHAR
STARTCHAR 00FB
ENCODING 251
SWIDTH 600 0
DWIDTH 40 0
BBX 34 50 7 -1
BITMAP
00007F0000
0000FF0000
0001FF8000
0003FFC000
0007E7E000
000FC3E000
001F83F000
003E01F800
007C00F800
0080000400
0000000000
0000000000
0000000000
0000000000
0F80000FC0
1F80000FC0
1F80000FC0
1F80000FC0
1F80000FC0
1F80000F80
1F00001F80
3F00001F80
3F00001F80
3F00001F80
3F00001F80
3F00001F00
3E00003F00
7E00003F00
7E00003F00
7E00003F00
7E00003F00
7E00003E00
7C00007E00
FC00007E00
FC00007E00
FC00007E00
FC0000FE00
FC0000FC00
FC0000FC00
FC0001FC00
FE0003FC00
FE0007FC00
FF000EFC00
7F803EF800
7FFFFDF800
3FFFF9F800
1FFFF1F800
0FFFC1F800
07FF01F800
0070000000
ENDCHAR
STARTCHAR 00FC
ENCODING 252
SWIDTH 600 0
DWIDTH 40 0
BBX 34 50 7 -1
BITMAP
000F007800
001F80FC00
003F81FC00
003F81FC00
003F81FC00
003F01F800
001E00F000
0000000000
0000000000
0000000000
0000000000
0000000000
0000000000
0000000000
0F80000FC0
1F80000FC0
1F80000FC0
1F80000FC0
1F80000FC0
1F80000F80
1F00001F80
3F00001F80
3F00001F80
3F00001F80
3F00001F80
3F00001F00
3E00003F00
7E00003F00
7E00003F00
7E00003F00
7E00003F00
7E00003E00
7C00007E00
FC00007E00
FC00007E00
FC00007E00
FC0000FE00
FC0000FC00
FC0000FC00
FC0001FC00
FE0003FC00
FE0007FC00
FF000EFC00
7F803EF800
7FFFFDF800
3FFFF9F800
1FFFF1F800
0FFFC1F800
07FF01F800
0070000000
ENDCHAR
STARTCHAR 00FD
ENCODING 253
SWIDTH 480 0
DWIDTH 32 0
BBX 40 66 -1 -14
BITMAP
00000003F8
00000003F0
00000007E0
0000000FC0
0000000F80
0000001F00
0000003E00
0000007E00
0000007C00
000000F800
000001F000
000001E000
0000000000
0000000000
0000000000
0000000000
0000000000
00FC00003F
00FC00007E
00FC0000FC
00FC0000FC
00FC0001F8
007E0001F8
007E0003F0
007E0003F0
007E0007E0
003E0007C0
003E000FC0
003F001F80
003F001F80
003F003F00
001F003E00
001F007E00
001F807C00
001F80FC00
000F80F800
000F81F800
000F81F000
000FC3E000
000FC7E000
0007C7C000
0007CFC000
0007CF8000
0007FF0000
0003FF0000
0003FE0000
0003FE0000
0003FC0000
0003FC0000
0001F80000
0001F00000
0003F00000
0007E00000
0007E00000
000FC00000
000F800000
001F800000
003F000000
003F000000
007E000000
01FC000000
7FFC000000
7FF8000000
7FE0000000
FFC0000000
3800000000
ENDCHAR
STARTCHAR 00FE
ENCODING 254
SWIDTH 615 0
DWIDTH 41 0
BBX 39 66 2 -16
BITMAP
001F800000
001F800000
001F800000
001F800000
001F000000
001F000000
003F000000
003F000000
003F000000
003F000000
003E000000
007E000000
007E000000
007E000000
007E01FE00
007E0FFFC0
007C1FFFE0
00FC7FFFF0
00FCFFFFF8
00FDF80FFC
00FDE003FC
00FFC001FC
00FF8000FE
01FF0000FE
01FE00007E
01FC00007E
01FC00007E
01F800007E
01F800007E
03F000007E
03F000007E
03F000007E
03F000007E
03F000007E
03F000007E
07F00000FC
07F00000FC
07F00000FC
07F00001F8
07F00003F8
07F00003F0
0FF80007F0
0FF8000FE0
0FDC001FC0
0FDF007F80
0F8FF7FF80
1F8FFFFE00
1F87FFFC00
1F83FFF800
1F80FFC000
1F80000000
1F00000000
3F00000000
3F00000000
3F00000000
3F00000000
3F00000000
3E00000000
7E00000000
7E00000000
7E00000000
7E00000000
7E00000000
7C00000000
FC00000000
FC00000000
ENDCHAR
STARTCHAR 00FF
ENCODING 255
SWIDTH 480 0
DWIDTH 32 0
BBX 40 63 -1 -14
BITMAP
00007803C0
0000FC07E0
0001FE0FF0
0001FE0FF0
0001FC0FE0
0001FC0FE0
0000F807C0
0000000000
0000000000
0000000000
0000000000
0000000000
0000000000
0000000000
00FC00003F
00FC00007E
00FC0000FC
00FC0000FC
00FC0001F8
007E0001F8
007E0003F0
007E0003F0
007E0007E0
003E0007C0
003E000FC0
003F001F80
003F001F80
003F003F00
001F003E00
001F007E00
001F807C00
001F80FC00
000F80F800
000F81F800
000F81F000
000FC3E000
000FC7E000
0007C7C000
0007CFC000
0007CF8000
0007FF0000
0003FF0000
0003FE0000
0003FE0000
0003FC0000
0003FC0000
0001F80000
0001F00000
0003F00000
0007E00000
0007E00000
000FC00000
000F800000
001F800000
003F000000
003F000000
007E000000
01FC000000
7FFC000000
7FF8000000
7FE0000000
FFC0000000
3800000000
ENDCHAR
STARTCHAR 0100
ENCODING 256
SWIDTH 675 0
DWIDTH 45 0
BBX 40 56 3 0
BITMAP
00001FFFFE
00001FFFFE
00001FFFFE
0000000000
0000000000
0000000000
0000000000
0000000000
0000000000
0000007C00
000000FE00
000000FE00
000001FE00
000001FE00
000003FE00
000007FF00
000007FF00
00000FDF00
00000F9F00
00001F9F00
00001F1F80
00003F1F80
00003E0F80
00007E0F80
00007C0F80
0000FC0FC0
0001F80FC0
0001F007C0
0003F007C0
0003E007E0
0007E007E0
0007C007E0
000FC003E0
000F8003E0
001F8003F0
001F0003F0
003F0003F0
007E0001F0
007FFFFFF0
00FFFFFFF8
00FFFFFFF8
01FFFFFFF8
01F00000F8
03F00000F8
03E00000FC
07E00000FC
07C00000FC
0FC000007C
1F8000007E
1F8000007E
3F0000007E
3F0000007E
7E0000003E
7E0000003F
FC0000003F
FC0000003F
ENDCHAR
STARTCHAR 0101
ENCODING 257
SWIDTH 600 0
DWIDTH 40 0
BBX 37 45 5 0
BITMAP
000FFFFF00
000FFFFF00
000FFFFF00
0000000000
0000000000
0000000000
0000000000
0000000000
0000000000
0003FE0000
000FFF81F8
003FFFC1F0
007FFFE3F0
00FFFFF3F0
01FF01F3F0
03FC007BF0
07F0003FF0
0FE0001FE0
0FC0001FE0
1F80001FE0
1F80000FE0
3F00000FE0
3F00000FC0
7E00000FC0
7E00000FC0
7E00000FC0
7E00000FC0
FC00000FC0
FC00001F80
FC00001F80
FC00001F80
FC00001F80
FC00003F80
FC00003F80
FE00007F00
FE0000FF00
7E0001FF00
7F0003FF00
7F8007BF00
3FC01F3F00
3FFFFF3E00
1FFFFC7E00
0FFFF87E00
07FFF07E00
01FFC07E00
ENDCHAR
STARTCHAR 0102
ENCODING 258
SWIDTH 675 0
DWIDTH 45 0
BBX 40 59 3 0
BITMAP
00001F001F
00001F001F
00000F807E
00000FFFFC
000007FFF0
000001FFE0
0000007F00
0000000000
0000000000
0000000000
0000000000
0000000000
0000007C00
000000FE00
000000FE00
000001FE00
000001FE00
000003FE00
000007FF00
000007FF00
00000FDF00
00000F9F00
00001F9F00
00001F1F80
00003F1F80
00003E0F80
00007E0F80
00007C0F80
0000FC0FC0
0001F80FC0
0001F007C0
0003F007C0
0003E007E0
0007E007E0
0007C007E0
000FC003E0
000F8003E0
001F8003F0
001F0003F0
003F0003F0
007E0001F0
007FFFFFF0
00FFFFFFF8
00FFFFFFF8
01FFFFFFF8
01F00000F8
03F00000F8
03E00000FC
07E00000FC
07C00000FC
0FC000007C
1F8000007E
1F8000007E
3F0000007E
3F0000007E
7E0000003E
7E0000003F
FC0000003F
FC0000003F
ENDCHAR
STARTCHAR 0103
ENCODING 259
SWIDTH 600 0
DWIDTH 40 0
BBX 37 48 5 0
BITMAP
000F8007C0
000F800F80
0007C01F80
0007F07F00
0003FFFE00
0001FFF800
00007FE000
0000000000
0000000000
0000000000
0000000000
0000000000
0003FE0000
000FFF81F8
003FFFC1F0
007FFFE3F0
00FFFFF3F0
01FF01F3F0
03FC007BF0
07F0003FF0
0FE0001FE0
0FC0001FE0
1F80001FE0
1F80000FE0
3F00000FE0
3F00000FC0
7E00000FC0
7E00000FC0
7E00000FC0
7E00000FC0
FC00000FC0
FC00001F80
FC00001F80
FC00001F80
FC00001F80
FC00003F80
FC00003F80
FE00007F00
FE0000FF00
7E0001FF00
7F0003FF00
7F8007BF00
3FC01F3F00
3FFFFF3E00
1FFFFC7E00
0FFFF87E00
07FFF07E00
01FFC07E00
ENDCHAR
STARTCHAR 0104
ENCODING 260
SWIDTH 675 0
DWIDTH 45 0
BBX 40 58 3 -11
BITMAP
0000007C00
000000FE00
000000FE00
000001FE00
000001FE00
000003FE00
000007FF00
000007FF00
00000FDF00
00000F9F00
00001F9F00
00001F1F80
00003F1F80
00003E0F80
00007E0F80
00007C0F80
0000FC0FC0
0001F80FC0
0001F007C0
0003F007C0
0003E007E0
0007E007E0
0007C007E0
000FC003E0
000F8003E0
001F8003F0
001F0003F0
003F0003F0
007E0001F0
007FFFFFF0
00FFFFFFF8
00FFFFFFF8
01FFFFFFF8
01F00000F8
03F00000F8
03E00000FC
07E00000FC
07C00000FC
0FC000007C
1F8000007E
1F8000007E
3F0000007E
3F0000007E
7E0000003E
7E0000003F
FC0000003F
FC0000003F
000000007C
00000000F8
00000001E0
00000001E0
00000003C0
00000003C0
00000003E0
00000003FF
00000001FF
00000000FF
000000003E
ENDCHAR
STARTCHAR 0105
ENCODING 261
SWIDTH 600 0
DWIDTH 40 0
BBX 37 47 5 -11
BITMAP
0003FE0000
000FFF81F8
003FFFC1F0
007FFFE3F0
00FFFFF3F0
01FF01F3F0
03FC007BF0
07F0003FF0
0FE0001FE0
0FC0001FE0
1F80001FE0
1F80000FE0
3F00000FE0
3F00000FC0
7E00000FC0
7E00000FC0
7E00000FC0
7E00000FC0
FC00000FC0
FC00001F80
FC00001F80
FC00001F80
FC00001F80
FC00003F80
FC00003F80
FE00007F00
FE0000FF00
7E0001FF00
7F0003FF00
7F8007BF00
3FC01F3F00
3FFFFF3E00
1FFFFC7E00
0FFFF87E00
07FFF07E00
01FFC07E00
0000007C00
000000F000
000001E000
000003C000
000003C000
000003C000
000003E000
000003FF00
000001FF00
000001FF00
0000007E00
ENDCHAR
STARTCHAR 0106
ENCODING 262
SWIDTH 705 0
DWIDTH 47 0
BBX 43 63 7 0
BITMAP
00000000FC00
00000001F800
00000003F000
00000007E000
00000007C000
0000000F8000
0000001F0000
0000003F0000
0000003E0000
0000007C0000
000000F80000
000000F00000
000000000000
000000000000
000000000000
000001F00000
00003FFF8000
0000FFFFE000
0003FFFFF800
000FFFFFFC00
001FFFFFFE00
003FE003FF00
007F8000FF00
00FF00007F80
01FC00003F80
03F800001FC0
03F000000FC0
07E000000FC0
0FE0000007C0
0FC0000007E0
1FC0000007E0
1F80000007E0
3F8000000000
3F0000000000
3F0000000000
7E0000000000
7E0000000000
7E0000000000
7E0000000000
7E0000000000
FC0000000000
FC0000000000
FC0000000000
FC0000000000
FC0000000000
FC0000000000
FC0000000000
FC0000000000
FE0000003F00
FE0000007E00
7E0000007E00
7E000000FC00
7F000001F800
3F000003F800
3F800007F000
1FC0000FE000
1FF0003FC000
0FFC01FF8000
07FFFFFF0000
03FFFFFE0000
01FFFFF80000
007FFFE00000
001FFF000000
ENDCHAR
STARTCHAR 0107
ENCODING 263
SWIDTH 555 0
DWIDTH 37 0
BBX 33 52 5 0
BITMAP
0000001F80
0000003F00
0000003F00
0000007E00
000000FC00
000000F800
000001F000
000003E000
000007C000
000007C000
00000F8000
00001F0000
0000000000
0000000000
0000000000
0000000000
0000FF8000
0007FFE000
001FFFF800
007FFFFC00
00FFFFFE00
01FF01FF00
03F8007F00
07F0003F00
0FE0001F80
0FC0001F80
1F80001F80
1F80000F80
3F00000F80
3F00000F80
7E00000000
7E00000000
7E00000000
7C00000000
7C00000000
FC00000000
FC00000000
FC00000000
FC00000000
FC00003F00
FC00003E00
7E00007E00
7E0000FC00
7E0000FC00
7F0001F800
3F8003F000
3FC00FF000
1FFCFFE000
0FFFFFC000
07FFFF0000
03FFFE0000
00FFF00000
ENDCHAR
STARTCHAR 010A
ENCODING 266
SWIDTH 705 0
DWIDTH 47 0
BBX 43 61 7 0
BITMAP
000000300000
000000FC0000
000001FC0000
000001FC0000
000001FC0000
000001FC0000
000001F80000
000000E00000
000000000000
000000000000
000000000000
000000000000
000000000000
000001F00000
00003FFF8000
0000FFFFE000
0003FFFFF800
000FFFFFFC00
001FFFFFFE00
003FE003FF00
007F8000FF00
00FF00007F80
01FC00003F80
03F800001FC0
03F000000FC0
07E000000FC0
0FE0000007C0
0FC0000007E0
1FC0000007E0
1F80000007E0
3F8000000000
3F0000000000
3F0000000000
7E0000000000
7E0000000000
7E0000000000
7E0000000000
7E0000000000
FC0000000000
FC0000000000
FC0000000000
FC0000000000
FC0000000000
FC0000000000
FC0000000000
FC0000000000
FE0000003F00
FE0000007E00
7E0000007E00
7E000000FC00
7F000001F800
3F000003F800
3F800007F000
1FC0000FE000
1FF0003FC000
0FFC01FF8000
07FFFFFF0000
03FFFFFE0000
01FFFFF80000
007FFFE00000
001FFF000000
ENDCHAR
STARTCHAR 010B
ENCODING 267
SWIDTH 555 0
DWIDTH 37 0
BBX 33 49 5 0
BITMAP
00000F0000
00001F8000
00003FC000
00003FC000
00003F8000
00003F8000
00001F0000
0000000000
0000000000
0000000000
0000000000
0000000000
0000000000
0000FF8000
0007FFE000
001FFFF800
007FFFFC00
00FFFFFE00
01FF01FF00
03F8007F00
07F0003F00
0FE0001F80
0FC0001F80
1F80001F80
1F80000F80
3F00000F80
3F00000F80
7E00000000
7E00000000
7E00000000
7C00000000
7C00000000
FC00000000
FC00000000
FC00000000
FC00000000
FC00003F00
FC00003E00
7E00007E00
7E0000FC00
7E0000FC00
7F0001F800
3F8003F000
3FC00FF000
1FFCFFE000
0FFFFFC000
07FFFF0000
03FFFE0000
00FFF00000
ENDCHAR
STARTCHAR 010C
ENCODING 268
SWIDTH 705 0
DWIDTH 47 0
BBX 43 61 7 0
BITMAP
0000FC00FC00
00007E01F800
00003E03F000
00003F07E000
00001F8FC000
00000FDF8000
000007FF0000
000007FE0000
000003FC0000
000001F80000
000000000000
000000000000
000000000000
000001F00000
00003FFF8000
0000FFFFE000
0003FFFFF800
000FFFFFFC00
001FFFFFFE00
003FE003FF00
007F8000FF00
00FF00007F80
01FC00003F80
03F800001FC0
03F000000FC0
07E000000FC0
0FE0000007C0
0FC0000007E0
1FC0000007E0
1F80000007E0
3F8000000000
3F0000000000
3F0000000000
7E0000000000
7E0000000000
7E0000000000
7E0000000000
7E0000000000
FC0000000000
FC0000000000
FC0000000000
FC0000000000
FC0000000000
FC0000000000
FC0000000000
FC0000000000
FE0000003F00
FE0000007E00
7E0000007E00
7E000000FC00
7F000001F800
3F000003F800
3F800007F000
1FC0000FE000
1FF0003FC000
0FFC01FF8000
07FFFFFF0000
03FFFFFE0000
01FFFFF80000
007FFFE00000
001FFF000000
ENDCHAR
STARTCHAR 010D
ENCODING 269
SWIDTH 555 0
DWIDTH 37 0
BBX 33 49 5 0
BITMAP
000FC01F80
0007C03F00
0007E07E00
0003F0FC00
0001F1F800
0000FBF000
0000FFE000
00007F8000
00003F0000
0000000000
0000000000
0000000000
0000000000
0000FF8000
0007FFE000
001FFFF800
007FFFFC00
00FFFFFE00
01FF01FF00
03F8007F00
07F0003F00
0FE0001F80
0FC0001F80
1F80001F80
1F80000F80
3F00000F80
3F00000F80
7E00000000
7E00000000
7E00000000
7C00000000
7C00000000
FC00000000
FC00000000
FC00000000
FC00000000
FC00003F00
FC00003E00
7E00007E00
7E0000FC00
7E0000FC00
7F0001F800
3F8003F000
3FC00FF000
1FFCFFE000
0FFFFFC000
07FFFF0000
03FFFE0000
00FFF00000
ENDCHAR
STARTCHAR 010E
ENCODING 270
SWIDTH 675 0
DWIDTH 45 0
BBX 42 61 5 0
BITMAP
0000FC007C00
00007E01F800
00003F03F000
00001F07E000
00001F8FC000
00000FDF8000
000007FF0000
000003FE0000
000003FC0000
000001F80000
000000000000
000000000000
000000000000
000000000000
00FFFFE00000
00FFFFFF0000
00FFFFFFC000
01FFFFFFF000
01FFFFFFF800
01FFFFFFFC00
01F80007FE00
01F00001FF00
01F00000FF00
03F000007F80
03F000003F80
03F000001FC0
03E000001FC0
03E000000FC0
03E000000FC0
07E000000FC0
07E000000FC0
07E000000FC0
07C000000FC0
07C000000FC0
0FC000000FC0
0FC000000FC0
0FC000000FC0
0FC000000FC0
0F8000000FC0
0F8000000FC0
1F8000001F80
1F8000001F80
1F8000001F80
1F8000003F00
1F0000003F00
1F0000007F00
3F0000007E00
3F000000FE00
3F000001FC00
3F000001F800
3E000003F800
3E000007F000
7E00001FE000
7E00003FC000
7E0000FF8000
7E000FFF0000
7FFFFFFE0000
7FFFFFFC0000
FFFFFFF00000
FFFFFFC00000
FFFFFC000000
ENDCHAR
STARTCHAR 010F
ENCODING 271
SWIDTH 735 0
DWIDTH 49 0
BBX 51 52 5 0
BITMAP
00000000000FC0
00000000001FE0
000000007E3FE0
000000007E3FE0
000000007E3FE0
000000007E3FE0
000000007C1FE0
00000000FC03C0
00000000FC01C0
00000000FC01C0
00000000FC03C0
00000000FC0380
00000000F80700
00000001F80F00
00000001F81E00
00000001F83800
0001FE01F83000
000FFF81F80000
003FFFC1F00000
007FFFE3F00000
00FFFFF3F00000
01FF01FBF00000
03FC007BF00000
07F0003FF00000
0FE0003FE00000
0FC0001FE00000
1FC0001FE00000
1F80000FE00000
3F00000FE00000
3F00000FE00000
7E00000FC00000
7E00000FC00000
7E00000FC00000
7E00000FC00000
7C00000FC00000
FC00000FC00000
FC00001F800000
FC00001F800000
FC00001F800000
FC00003F800000
FC00003F800000
FE00007F000000
7E0000FF000000
7E0001FF000000
7F0003FF000000
7F8007BF000000
3FC00F3F000000
3FFFFF3E000000
1FFFFC3E000000
0FFFF87E000000
07FFF07E000000
01FFC07E000000
ENDCHAR
STARTCHAR 0110
ENCODING 272
SWIDTH 705 0
DWIDTH 47 0
BBX 42 47 7 0
BITMAP
00FFFF800000
00FFFFFE0000
01FFFFFFC000
01FFFFFFE000
01FFFFFFF800
01FFFFFFFC00
01F0000FFE00
01F00001FE00
03F00000FF00
03F000007F00
03F000003F80
03F000001F80
03E000001FC0
07E000001FC0
07E000000FC0
07E000000FC0
07E000000FC0
07C000000FC0
07C000000FC0
0FC000000FC0
0FC000000FC0
FFFFE0000FC0
FFFFE0000FC0
FFFFC0000FC0
FFFFC0000FC0
1F8000001F80
1F8000001F80
1F8000001F80
1F8000001F80
1F0000003F00
1F0000003F00
3F0000007F00
3F0000007E00
3F000000FE00
3F000001FC00
3E000003F800
3E000007F800
7E00000FF000
7E00001FE000
7E00007FC000
7E0003FF8000
7C003FFF0000
7FFFFFFC0000
FFFFFFF80000
FFFFFFE00000
FFFFFF000000
FFFFF8000000
ENDCHAR
STARTCHAR 0111
ENCODING 273
SWIDTH 645 0
DWIDTH 43 0
BBX 44 50 5 0
BITMAP
000000007E00
000000007E00
000000007E00
000000007E00
000000007C00
000001FFFFF0
000001FFFFF0
000001FFFFE0
000003FFFFE0
00000000FC00
00000000F800
00000001F800
00000001F800
00000001F800
0001FE01F800
000FFF81F800
003FFFC1F000
007FFFE3F000
00FFFFF3F000
01FF01FBF000
03FC007BF000
07F0003FF000
0FE0003FE000
0FC0001FE000
1FC0001FE000
1F80000FE000
3F00000FE000
3F00000FE000
7E00000FC000
7E00000FC000
7E00000FC000
7E00000FC000
7C00000FC000
FC00000FC000
FC00001F8000
FC00001F8000
FC00001F8000
FC00003F8000
FC00003F8000
FE00007F0000
7E0000FF0000
7E0001FF0000
7F0003FF0000
7F8007BF0000
3FC00F3F0000
3FFFFF3E0000
1FFFFC3E0000
0FFFF87E0000
07FFF07E0000
01FFC07E0000
ENDCHAR
STARTCHAR 0112
ENCODING 274
SWIDTH 555 0
DWIDTH 37 0
BBX 37 56 5 0
BITMAP
0003FFFFC0
0003FFFFC0
0007FFFF80
0000000000
0000000000
0000000000
0000000000
0000000000
0000000000
00FFFFFFF8
00FFFFFFF8
00FFFFFFF0
01FFFFFFF0
01FFFFFFF0
01FFFFFFF0
01F8000000
01F8000000
01F0000000
03F0000000
03F0000000
03F0000000
03F0000000
03F0000000
03E0000000
07E0000000
07E0000000
07E0000000
07E0000000
07E0000000
0FC0000000
0FFFFFFC00
0FFFFFFC00
0FFFFFFC00
0FFFFFFC00
0FFFFFFC00
1F80000000
1F80000000
1F80000000
1F80000000
1F80000000
1F00000000
3F00000000
3F00000000
3F00000000
3F00000000
3F00000000
3E00000000
7E00000000
7E00000000
7E00000000
7E00000000
7FFFFFF800
7FFFFFF800
FFFFFFF800
FFFFFFF800
FFFFFFF800
ENDCHAR
STARTCHAR 0113
ENCODING 275
SWIDTH 555 0
DWIDTH 37 0
BBX 33 45 5 0
BITMAP
000FFFFF00
000FFFFF00
000FFFFF00
0000000000
0000000000
0000000000
0000000000
0000000000
0000000000
0001FFE000
000FFFF800
003FFFFC00
007FFFFE00
00FF83FF00
03FC007F00
03F0003F80
07E0001F80
0FC0001F80
1F80000F80
1F80001F80
3F00001F80
3F00001F80
3E00003F00
7E00007F00
7E000FFE00
7FFFFFFC00
7FFFFFF000
7FFFFFC000
FFFFF80000
FC00000000
FC00000000
FC00000000
FC00000000
7C00000000
7E00007E00
7E00007C00
7E0000FC00
3F0001F800
3F8007F800
1FE00FF000
1FFFFFE000
0FFFFFC000
07FFFF0000
01FFFE0000
007FF00000
ENDCHAR
STARTCHAR 0116
ENCODING 278
SWIDTH 555 0
DWIDTH 37 0
BBX 37 61 5 0
BITMAP
000000C000
000003E000
000007F000
00000FF000
00000FF000
00000FE000
000007C000
0000038000
0000000000
0000000000
0000000000
0000000000
0000000000
0000000000
00FFFFFFF8
00FFFFFFF8
00FFFFFFF0
01FFFFFFF0
01FFFFFFF0
01FFFFFFF0
01F8000000
01F8000000
01F0000000
03F0000000
03F0000000
03F0000000
03F0000000
03F0000000
03E0000000
07E0000000
07E0000000
07E0000000
07E0000000
07E0000000
0FC0000000
0FFFFFFC00
0FFFFFFC00
0FFFFFFC00
0FFFFFFC00
0FFFFFFC00
1F80000000
1F80000000
1F80000000
1F80000000
1F80000000
1F00000000
3F00000000
3F00000000
3F00000000
3F00000000
3F00000000
3E00000000
7E00000000
7E00000000
7E00000000
7E00000000
7FFFFFF800
7FFFFFF800
FFFFFFF800
FFFFFFF800
FFFFFFF800
ENDCHAR
STARTCHAR 0117
ENCODING 279
SWIDTH 555 0
DWIDTH 37 0
BBX 33 49 5 0
BITMAP
0000078000
00000FC000
00001FC000
00001FC000
00001FC000
00001F8000
00000F0000
0000000000
0000000000
0000000000
0000000000
0000000000
0000000000
0001FFE000
000FFFF800
003FFFFC00
007FFFFE00
00FF83FF00
03FC007F00
03F0003F80
07E0001F80
0FC0001F80
1F80000F80
1F80001F80
3F00001F80
3F00001F80
3E00003F00
7E00007F00
7E000FFE00
7FFFFFFC00
7FFFFFF000
7FFFFFC000
FFFFF80000
FC00000000
FC00000000
FC00000000
FC00000000
7C00000000
7E00007E00
7E00007C00
7E0000FC00
3F0001F800
3F8007F800
1FE00FF000
1FFFFFE000
0FFFFFC000
07FFFF0000
01FFFE0000
007FF00000
ENDCHAR
STARTCHAR 0118
ENCODING 280
SWIDTH 555 0
DWIDTH 37 0
BBX 37 58 5 -11
BITMAP
00FFFFFFF8
00FFFFFFF8
00FFFFFFF0
01FFFFFFF0
01FFFFFFF0
01FFFFFFF0
01F8000000
01F8000000
01F0000000
03F0000000
03F0000000
03F0000000
03F0000000
03F0000000
03E0000000
07E0000000
07E0000000
07E0000000
07E0000000
07E0000000
0FC0000000
0FFFFFFC00
0FFFFFFC00
0FFFFFFC00
0FFFFFFC00
0FFFFFFC00
1F80000000
1F80000000
1F80000000
1F80000000
1F80000000
1F00000000
3F00000000
3F00000000
3F00000000
3F00000000
3F00000000
3E00000000
7E00000000
7E00000000
7E00000000
7E00000000
7FFFFFF800
7FFFFFF800
FFFFFFF800
FFFFFFF800
FFFFFFF800
000001F000
000003C000
0000078000
00000F8000
00000F0000
00000F0000
00000F8000
00000FFC00
000007FC00
000003FC00
000001F800
ENDCHAR
STARTCHAR 0119
ENCODING 281
SWIDTH 555 0
DWIDTH 37 0
BBX 33 47 5 -11
BITMAP
0001FFE000
000FFFF800
003FFFFC00
007FFFFE00
00FF83FF00
03FC007F00
03F0003F80
07E0001F80
0FC0001F80
1F80000F80
1F80001F80
3F00001F80
3F00001F80
3E00003F00
7E00007F00
7E000FFE00
7FFFFFFC00
7FFFFFF000
7FFFFFC000
FFFFF80000
FC00000000
FC00000000
FC00000000
FC00000000
7C00000000
7E00007E00
7E00007C00
7E0000FC00
3F0001F800
3F8007F000
1FE00FF000
0FFFFFE000
0FFFFFC000
03FFFF0000
01FFFC0000
007FF00000
0003E00000
0007C00000
000F800000
000F000000
001E000000
001E000000
001F000000
001F880000
000FF80000
000FF80000
0003F80000
ENDCHAR
STARTCHAR 011A
ENCODING 282
SWIDTH 555 0
DWIDTH 37 0
BBX 37 61 5 0
BITMAP
0003E003F0
0003F007C0
0001F80F80
0000F81F00
00007C7E00
00007EFC00
00003FF800
00001FF000
00001FE000
00000FC000
0000000000
0000000000
0000000000
0000000000
00FFFFFFF8
00FFFFFFF8
00FFFFFFF0
01FFFFFFF0
01FFFFFFF0
01FFFFFFF0
01F8000000
01F8000000
01F0000000
03F0000000
03F0000000
03F0000000
03F0000000
03F0000000
03E0000000
07E0000000
07E0000000
07E0000000
07E0000000
07E0000000
0FC0000000
0FFFFFFC00
0FFFFFFC00
0FFFFFFC00
0FFFFFFC00
0FFFFFFC00
1F80000000
1F80000000
1F80000000
1F80000000
1F80000000
1F00000000
3F00000000
3F00000000
3F00000000
3F00000000
3F00000000
3E00000000
7E00000000
7E00000000
7E00000000
7E00000000
7FFFFFF800
7FFFFFF800
FFFFFFF800
FFFFFFF800
FFFFFFF800
ENDCHAR
STARTCHAR 011B
ENCODING 283
SWIDTH 555 0
DWIDTH 37 0
BBX 34 49 5 0
BITMAP
0007C00FC0
0007E01F80
0003F03F00
0001F87E00
0000F8F800
0000FDF000
00007FE000
00003FC000
00003F8000
0000000000
0000000000
0000000000
0000000000
0001FFE000
000FFFF800
003FFFFC00
007FFFFE00
00FF83FF00
03FC007F00
03F0003F80
07E0001F80
0FC0001F80
1F80000F80
1F80001F80
3F00001F80
3F00001F80
3E00003F00
7E00007F00
7E000FFE00
7FFFFFFC00
7FFFFFF000
7FFFFFC000
FFFFF80000
FC00000000
FC00000000
FC00000000
FC00000000
7C00000000
7E00007E00
7E00007C00
7E0000FC00
3F0001F800
3F8007F800
1FE00FF000
1FFFFFE000
0FFFFFC000
07FFFF0000
01FFFE0000
007FF00000
ENDCHAR
STARTCHAR 011E
ENCODING 286
SWIDTH 705 0
DWIDTH 47 0
BBX 42 59 7 0
BITMAP
0000F8007C00
00007C00F800
00007E01F000
00003FFFE000
00001FFFC000
00000FFF0000
000001FC0000
000000000000
000000000000
000000000000
000000000000
000001F00000
00003FFF8000
0000FFFFE000
0003FFFFF000
000FFFFFF800
001FFFFFFC00
003FE003FE00
007F8000FF00
00FE00007F00
01FC00003F80
03F800001F80
03F000001F80
07E000001FC0
0FE000000FC0
0FC000000FC0
1F8000000000
1F8000000000
3F0000000000
3F0000000000
3F0000000000
7E0000000000
7E0000000000
7E0000000000
7E0000000000
FC0003FFFF80
FC0003FFFF00
FC0003FFFF00
FC0003FFFF00
FC0000003F00
FC0000003F00
FC0000003F00
FC0000003E00
FC0000007E00
FC0000007E00
FC0000007E00
7E000000FE00
7E000000FE00
7E000001FC00
7F000003FC00
3F800007FC00
3FC0000FFC00
1FE0003F7C00
0FF800FE7C00
0FFF9FFC7800
07FFFFF87800
01FFFFF0F800
00FFFFC0F800
003FFF00F800
ENDCHAR
STARTCHAR 011F
ENCODING 287
SWIDTH 600 0
DWIDTH 40 0
BBX 37 62 5 -14
BITMAP
001F0007C0
000F800F80
000FC01F00
0007E07E00
0003FFFC00
0001FFF800
0000FFE000
0000000000
0000000000
0000000000
0000000000
0000000000
0003FE0000
001FFF81F8
003FFFC1F0
00FFFFE3F0
01FFFFF3F0
03FF01F3F0
07FC007BF0
07F0003BF0
0FE0001FE0
1FC0001FE0
1F80000FE0
3F80000FE0
3F00000FE0
3F00000FC0
7E00000FC0
7E00000FC0
7E00000FC0
7E00000FC0
7E00000FC0
FE00001F80
FC00001F80
FC00001F80
FE00003F80
FE00003F80
FE00007F80
7E0000FF00
7F0000FF00
7F0001FF00
7F8007BF00
3FE00FBF00
1FFFFF3F00
1FFFFE3E00
0FFFF87E00
07FFF07E00
01FFC07E00
0000007E00
0000007C00
000000FC00
000000FC00
000001F800
000001F800
000003F000
000007F000
00001FE000
00807FC000
00FFFF8000
01FFFF0000
01FFFC0000
01FFF00000
00FFC00000
ENDCHAR
STARTCHAR 0120
ENCODING 288
SWIDTH 705 0
DWIDTH 47 0
BBX 42 61 7 0
BITMAP
000000380000
0000007C0000
000000FE0000
000001FE0000
000001FE0000
000001FC0000
000000F80000
000000700000
000000000000
000000000000
000000000000
000000000000
000000000000
000001F00000
00003FFF8000
0000FFFFE000
0003FFFFF000
000FFFFFF800
001FFFFFFC00
003FE003FE00
007F8000FF00
00FE00007F00
01FC00003F80
03F800001F80
03F000001F80
07E000001FC0
0FE000000FC0
0FC000000FC0
1F8000000000
1F8000000000
3F0000000000
3F0000000000
3F0000000000
7E0000000000
7E0000000000
7E0000000000
7E0000000000
FC0003FFFF80
FC0003FFFF00
FC0003FFFF00
FC0003FFFF00
FC0000003F00
FC0000003F00
FC0000003F00
FC0000003E00
FC0000007E00
FC0000007E00
FC0000007E00
7E000000FE00
7E000000FE00
7E000001FC00
7F000003FC00
3F800007FC00
3FC0000FFC00
1FE0003F7C00
0FF800FE7C00
0FFF9FFC7800
07FFFFF87800
01FFFFF0F800
00FFFFC0F800
003FFF00F800
ENDCHAR
STARTCHAR 0121
ENCODING 289
SWIDTH 600 0
DWIDTH 40 0
BBX 37 63 5 -14
BITMAP
0000078000
00001FC000
00001FC000
00003FC000
00003FC000
00001F8000
00001F0000
0000000000
0000000000
0000000000
0000000000
0000000000
0000000000
0003FE0000
001FFF81F8
003FFFC1F0
00FFFFE3F0
01FFFFF3F0
03FF01F3F0
07FC007BF0
07F0003BF0
0FE0001FE0
1FC0001FE0
1F80000FE0
3F80000FE0
3F00000FE0
3F00000FC0
7E00000FC0
7E00000FC0
7E00000FC0
7E00000FC0
7E00000FC0
FE00001F80
FC00001F80
FC00001F80
FE00003F80
FE00003F80
FE00007F80
7E0000FF00
7F0000FF00
7F0001FF00
7F8007BF00
3FE00FBF00
1FFFFF3F00
1FFFFE3E00
0FFFF87E00
07FFF07E00
01FFC07E00
0000007E00
0000007C00
000000FC00
000000FC00
000001F800
000001F800
000003F000
000007F000
00001FE000
00807FC000
00FFFF8000
01FFFF0000
01FFFC0000
01FFF00000
00FFC00000
ENDCHAR
STARTCHAR 0126
ENCODING 294
SWIDTH 690 0
DWIDTH 46 0
BBX 45 47 6 0
BITMAP
01F8000007E0
01F8000007E0
01F8000007C0
01F800000FC0
01F800000FC0
03F000000FC0
03F000000FC0
03F000000FC0
3FFFFFFFFFF8
3FFFFFFFFFF8
3FFFFFFFFFF8
3FFFFFFFFFF8
3FFFFFFFFFF8
07E000001F00
07E000003F00
07E000003F00
07C000003F00
0FC000003F00
0FC000003F00
0FC000003E00
0FC000003E00
0FFFFFFFFE00
0FFFFFFFFE00
1FFFFFFFFE00
1FFFFFFFFE00
1FFFFFFFFC00
1F800000FC00
1F800000FC00
1F000000FC00
3F000000FC00
3F000000FC00
3F000000F800
3F000001F800
3F000001F800
3E000001F800
7E000001F800
7E000001F800
7E000001F000
7E000003F000
7E000003F000
7C000003F000
FC000003F000
FC000003F000
FC000003E000
FC000007E000
FC000007E000
F8000007E000
ENDCHAR
STARTCHAR 0127
ENCODING 295
SWIDTH 600 0
DWIDTH 40 0
BBX 35 50 6 0
BITMAP
00FC000000
00FC000000
00F8000000
01F8000000
01F8000000
3FFFFE0000
3FFFFE0000
3FFFFE0000
3FFFFE0000
03F0000000
03F0000000
03F0000000
03F0000000
03F0000000
03E00FF800
07E03FFE00
07E0FFFF00
07E3FFFF80
07E7FFFFC0
07CFC07FC0
07CF001FC0
0FDC000FE0
0FF8000FE0
0FF00007E0
0FE00007E0
0FE00007E0
0FC00007E0
1FC00007E0
1F800007C0
1F800007C0
1F80000FC0
1F00000FC0
1F00000FC0
3F00000FC0
3F00000F80
3F00000F80
3F00001F80
3E00001F80
7E00001F80
7E00001F80
7E00001F00
7E00001F00
7E00003F00
7C00003F00
FC00003F00
FC00003F00
FC00003E00
FC00007E00
FC00007E00
F800007E00
ENDCHAR
STARTCHAR 0128
ENCODING 296
SWIDTH 240 0
DWIDTH 16 0
BBX 24 60 5 0
BITMAP
03F00F
0FFC1F
1FFFFE
1FFFFC
3E1FF8
3C07F0
000000
000000
000000
000000
000000
000000
000000
00FC00
00FC00
00FC00
00F800
01F800
01F800
01F800
01F800
01F800
01F000
03F000
03F000
03F000
03F000
03F000
03E000
07E000
07E000
07E000
07E000
07E000
07C000
0FC000
0FC000
0FC000
0FC000
0FC000
1F8000
1F8000
1F8000
1F8000
1F8000
1F0000
3F0000
3F0000
3F0000
3F0000
3F0000
3E0000
7E0000
7E0000
7E0000
7E0000
7E0000
7C0000
FC0000
FC0000
ENDCHAR
STARTCHAR 0129
ENCODING 297
SWIDTH 240 0
DWIDTH 16 0
BBX 22 49 5 0
BITMAP
03801C
1FF03C
3FFC7C
7FFFF8
7CFFF0
F03FE0
F00780
000000
000000
000000
000000
000000
000000
000000
03F000
03F000
03F000
03F000
03E000
07E000
07E000
07E000
07E000
07E000
07C000
0FC000
0FC000
0FC000
0FC000
0FC000
0F8000
1F8000
1F8000
1F8000
1F8000
1F8000
1F0000
3F0000
3F0000
3F0000
3F0000
3E0000
3E0000
7E0000
7E0000
7E0000
7E0000
7C0000
7C0000
ENDCHAR
STARTCHAR 012A
ENCODING 298
SWIDTH 240 0
DWIDTH 16 0
BBX 23 56 5 0
BITMAP
1FFFFE
3FFFFC
3FFFFC
000000
000000
000000
000000
000000
000000
00FC00
00FC00
00FC00
00F800
01F800
01F800
01F800
01F800
01F800
01F000
03F000
03F000
03F000
03F000
03F000
03E000
07E000
07E000
07E000
07E000
07E000
07C000
0FC000
0FC000
0FC000
0FC000
0FC000
1F8000
1F8000
1F8000
1F8000
1F8000
1F0000
3F0000
3F0000
3F0000
3F0000
3F0000
3E0000
7E0000
7E0000
7E0000
7E0000
7E0000
7C0000
FC0000
FC0000
ENDCHAR
STARTCHAR 012B
ENCODING 299
SWIDTH 240 0
DWIDTH 16 0
BBX 20 45 6 0
BITMAP
FFFFF0
FFFFF0
FFFFF0
000000
000000
000000
000000
000000
000000
000000
07E000
07E000
07E000
07E000
07C000
0FC000
0FC000
0FC000
0FC000
0FC000
0F8000
1F8000
1F8000
1F8000
1F8000
1F8000
1F0000
3F0000
3F0000
3F0000
3F0000
3F0000
3E0000
7E0000
7E0000
7E0000
7E0000
7C0000
7C0000
FC0000
FC0000
FC0000
FC0000
F80000
F80000
ENDCHAR
STARTCHAR 012E
ENCODING 302
SWIDTH 240 0
DWIDTH 16 0
BBX 17 58 2 -11
BITMAP
001F80
001F80
001F80
001F00
003F00
003F00
003F00
003F00
003F00
003E00
007E00
007E00
007E00
007E00
007E00
007C00
00FC00
00FC00
00FC00
00FC00
00FC00
00F800
01F800
01F800
01F800
01F800
01F800
03F000
03F000
03F000
03F000
03F000
03E000
07E000
07E000
07E000
07E000
07E000
07C000
0FC000
0FC000
0FC000
0FC000
0FC000
0F8000
1F8000
1F8000
1F0000
3E0000
7C0000
780000
F80000
F80000
F80000
FFC000
7FC000
3FC000
0F8000
ENDCHAR
STARTCHAR 012F
ENCODING 303
SWIDTH 240 0
DWIDTH 16 0
BBX 18 60 2 -11
BITMAP
000F80
001FC0
001FC0
003FC0
003FC0
003F80
001F00
000000
000000
000000
000000
000000
000000
000000
007E00
007E00
007E00
007E00
007C00
00FC00
00FC00
00FC00
00FC00
00FC00
00F800
01F800
01F800
01F800
01F800
01F800
01F000
03F000
03F000
03F000
03F000
03F000
03E000
07E000
07E000
07E000
07E000
07C000
07C000
0FC000
0FC000
0FC000
0FC000
0F8000
0F8000
1F0000
3E0000
7C0000
780000
780000
F80000
F80000
7FC000
7FC000
3FC000
0F8000
ENDCHAR
STARTCHAR 0130
ENCODING 304
SWIDTH 240 0
DWIDTH 16 0
BBX 17 61 5 0
BITMAP
000600
001F00
003F00
007F80
007F00
007F00
007E00
001800
000000
000000
000000
000000
000000
000000
00FC00
00FC00
00FC00
00F800
01F800
01F800
01F800
01F800
01F800
01F000
03F000
03F000
03F000
03F000
03F000
03E000
07E000
07E000
07E000
07E000
07E000
07C000
0FC000
0FC000
0FC000
0FC000
0FC000
1F8000
1F8000
1F8000
1F8000
1F8000
1F0000
3F0000
3F0000
3F0000
3F0000
3F0000
3E0000
7E0000
7E0000
7E0000
7E0000
7E0000
7C0000
FC0000
FC0000
ENDCHAR
STARTCHAR 0131
ENCODING 305
SWIDTH 240 0
DWIDTH 16 0
BBX 11 35 6 0
BITMAP
07E0
07E0
07E0
07E0
07C0
0FC0
0FC0
0FC0
0FC0
0FC0
0F80
1F80
1F80
1F80
1F80
1F80
1F00
3F00
3F00
3F00
3F00
3F00
3E00
7E00
7E00
7E00
7E00
7C00
7C00
FC00
FC00
FC00
FC00
F800
F800
ENDCHAR
STARTCHAR 0139
ENCODING 313
SWIDTH 525 0
DWIDTH 35 0
BBX 28 63 5 0
BITMAP
00007F00
00007E00
0000FC00
0001F800
0001F000
0003E000
0007C000
000FC000
000F8000
001F0000
003E0000
003C0000
00000000
00000000
00000000
00000000
00FC0000
00FC0000
00F80000
01F80000
01F80000
01F80000
01F80000
01F80000
01F00000
03F00000
03F00000
03F00000
03F00000
03E00000
03E00000
07E00000
07E00000
07E00000
07E00000
07C00000
0FC00000
0FC00000
0FC00000
0FC00000
0FC00000
0F800000
1F800000
1F800000
1F800000
1F800000
1F800000
1F000000
3F000000
3F000000
3F000000
3F000000
3F000000
3E000000
7E000000
7E000000
7E000000
7E000000
7FFFFFF0
7FFFFFF0
FFFFFFF0
FFFFFFF0
FFFFFFF0
ENDCHAR
STARTCHAR 013A
ENCODING 314
SWIDTH 300 0
DWIDTH 20 0
BBX 23 66 6 0
BITMAP
00007E
0000FC
0000F8
0001F8
0003F0
0007E0
0007C0
000F80
001F00
001E00
003E00
000000
000000
000000
000000
000000
00F800
01F800
01F800
01F800
01F800
01F800
01F000
03F000
03F000
03F000
03F000
03F000
03E000
07E000
07E000
07E000
07E000
07E000
07C000
0FC000
0FC000
0FC000
0FC000
0F8000
0F8000
1F8000
1F8000
1F8000
1F8000
1F0000
3F0000
3F0000
3F0000
3F0000
3F0000
3E0000
7E0000
7E0000
7E0000
7E0000
7E0000
7C0000
FC0000
FC0000
FE0000
FF0000
7FF800
7FF800
3FF800
1FF000
ENDCHAR
STARTCHAR 013D
ENCODING 317
SWIDTH 525 0
DWIDTH 35 0
BBX 28 61 5 0
BITMAP
3F003F00
1F807E00
0F80FC00
0FC1F800
07E3F000
03F7E000
01FFC000
01FF8000
00FF0000
007E0000
00000000
00000000
00000000
00000000
00FC0000
00FC0000
00F80000
01F80000
01F80000
01F80000
01F80000
01F80000
01F00000
03F00000
03F00000
03F00000
03F00000
03E00000
03E00000
07E00000
07E00000
07E00000
07E00000
07C00000
0FC00000
0FC00000
0FC00000
0FC00000
0FC00000
0F800000
1F800000
1F800000
1F800000
1F800000
1F800000
1F000000
3F000000
3F000000
3F000000
3F000000
3F000000
3E000000
7E000000
7E000000
7E000000
7E000000
7FFFFFF0
7FFFFFF0
FFFFFFF0
FFFFFFF0
FFFFFFF0
ENDCHAR
STARTCHAR 013E
ENCODING 318
SWIDTH 345 0
DWIDTH 23 0
BBX 17 52 6 0
BITMAP
001F00
007F80
00FF80
01FF80
01FF80
01FF80
01FF80
01FF80
01F700
03F700
03F700
03FE00
03FE00
03FC00
03F800
07F000
07E000
07E000
07E000
07E000
07C000
0FC000
0FC000
0FC000
0FC000
0FC000
0F8000
1F8000
1F8000
1F8000
1F8000
1F0000
3F0000
3F0000
3F0000
3F0000
3F0000
3E0000
7E0000
7E0000
7E0000
7E0000
7E0000
7C0000
FC0000
FC0000
FE0000
FF0000
7FF800
7FF800
3FF800
1FF000
ENDCHAR
STARTCHAR 0143
ENCODING 323
SWIDTH 705 0
DWIDTH 47 0
BBX 45 63 5 0
BITMAP
000000007F00
000000007C00
00000000FC00
00000001F800
00000003F000
00000003E000
00000007C000
0000000F8000
0000000F8000
0000001F0000
0000003E0000
0000007C0000
000000000000
000000000000
000000000000
000000000000
00FC000000F8
00FE000001F8
00FE000001F8
01FF000001F8
01FF000001F8
01FF800001F0
01FF800001F0
01FFC00003F0
01FFC00003F0
03FFE00003F0
03FFE00003F0
03F7F00003E0
03F7F00003E0
03E3F80007E0
03E3F80007E0
07E1FC0007E0
07E0FC0007E0
07E0FE0007C0
07E07E0007C0
07C07F000FC0
0FC03F000FC0
0FC03F800FC0
0FC01F800FC0
0FC01FC00F80
0FC00FC01F80
0F800FE01F80
1F8007E01F80
1F8007F01F80
1F8003F01F80
1F8003F81F00
1F8001F83F00
1F0001FC3F00
3F0000FC3F00
3F0000FE3F00
3F00007E3F00
3F00007F3E00
3E00003F7E00
3E00003FFE00
7E00001FFE00
7E00001FFE00
7E00000FFE00
7E00000FFC00
7C000007FC00
7C000007FC00
FC000003FC00
FC000003FC00
FC000001FC00
ENDCHAR
STARTCHAR 0144
ENCODING 324
SWIDTH 600 0
DWIDTH 40 0
BBX 35 52 5 0
BITMAP
0000000FC0
0000000FC0
0000001F80
0000003F00
0000003E00
0000007C00
000000F800
000001F800
000001F000
000003E000
000007C000
0000078000
0000000000
0000000000
0000000000
0000000000
00000FF000
03F07FFE00
03E0FFFF00
03E3FFFF80
07E7FFFF80
07EFC0FFC0
07EE003FC0
07FC001FE0
07F8000FE0
07F00007E0
0FE00007E0
0FE00007E0
0FC00007E0
0FC00007E0
0F800007E0
1F800007E0
1F800007E0
1F800007C0
1F800007C0
1F80000FC0
1F00000FC0
3F00000FC0
3F00000FC0
3F00000F80
3F00001F80
3F00001F80
3E00001F80
7E00001F80
7E00001F80
7E00001F00
7E00003F00
7E00003F00
7C00003F00
FC00003F00
FC00003F00
FC00003E00
ENDCHAR
STARTCHAR 0147
ENCODING 327
SWIDTH 705 0
DWIDTH 47 0
BBX 45 61 5 0
BITMAP
00003F003F00
00001F007E00
00000F80FC00
00000FC1F800
000007E3F000
000003E7E000
000003FFC000
000001FF8000
000000FE0000
0000007C0000
000000000000
000000000000
000000000000
000000000000
00FC000000F8
00FE000001F8
00FE000001F8
01FF000001F8
01FF000001F8
01FF800001F0
01FF800001F0
01FFC00003F0
01FFC00003F0
03FFE00003F0
03FFE00003F0
03F7F00003E0
03F7F00003E0
03E3F80007E0
03E3F80007E0
07E1FC0007E0
07E0FC0007E0
07E0FE0007C0
07E07E0007C0
07C07F000FC0
0FC03F000FC0
0FC03F800FC0
0FC01F800FC0
0FC01FC00F80
0FC00FC01F80
0F800FE01F80
1F8007E01F80
1F8007F01F80
1F8003F01F80
1F8003F81F00
1F8001F83F00
1F0001FC3F00
3F0000FC3F00
3F0000FE3F00
3F00007E3F00
3F00007F3E00
3E00003F7E00
3E00003FFE00
7E00001FFE00
7E00001FFE00
7E00000FFE00
7E00000FFC00
7C000007FC00
7C000007FC00
FC000003FC00
FC000003FC00
FC000001FC00
ENDCHAR
STARTCHAR 0148
ENCODING 328
SWIDTH 600 0
DWIDTH 40 0
BBX 35 49 5 0
BITMAP
0007E00FE0
0003F01F80
0001F03F00
0001F87E00
0000FCFC00
00007FF800
00003FF000
00003FE000
00001FC000
0000000000
0000000000
0000000000
0000000000
00000FF000
03F07FFE00
03E0FFFF00
03E3FFFF80
07E7FFFF80
07EFC0FFC0
07EE003FC0
07FC001FE0
07F8000FE0
07F00007E0
0FE00007E0
0FE00007E0
0FC00007E0
0FC00007E0
0F800007E0
1F800007E0
1F800007E0
1F800007C0
1F800007C0
1F80000FC0
1F00000FC0
3F00000FC0
3F00000FC0
3F00000F80
3F00001F80
3F00001F80
3E00001F80
7E00001F80
7E00001F80
7E00001F00
7E00003F00
7E00003F00
7C00003F00
FC00003F00
FC00003F00
FC00003E00
ENDCHAR
STARTCHAR 014C
ENCODING 332
SWIDTH 735 0
DWIDTH 49 0
BBX 43 56 7 0
BITMAP
00007FFFF800
00007FFFF800
00007FFFF800
000000000000
000000000000
000000000000
000000000000
000000000000
000001F80000
00003FFF8000
0000FFFFE000
0003FFFFF800
000FFFFFFC00
001FFFFFFE00
003FE003FE00
007F8000FF00
00FF00007F80
01FC00003F80
03F800001FC0
07F000001FC0
07F000000FC0
0FE000000FC0
0FC000000FE0
1FC0000007E0
1F80000007E0
3F80000007E0
3F00000007E0
3F00000007E0
7E00000007E0
7E00000007E0
7E00000007E0
7E00000007E0
FC0000000FE0
FC0000000FC0
FC0000000FC0
FC0000000FC0
FC0000000FC0
FC0000001F80
FC0000001F80
FC0000003F80
FC0000003F00
FC0000007F00
FE0000007E00
FE000000FE00
7E000001FC00
7F000003F800
7F800007F800
3F80000FF000
3FC0001FE000
1FF0007FC000
0FFC01FF8000
0FFFFFFF0000
07FFFFFC0000
01FFFFF80000
00FFFFE00000
001FFF000000
ENDCHAR
STARTCHAR 014D
ENCODING 333
SWIDTH 570 0
DWIDTH 38 0
BBX 34 45 5 0
BITMAP
000FFFFF00
001FFFFE00
001FFFFE00
0000000000
0000000000
0000000000
0000000000
0000000000
0000000000
0000FF8000
0007FFE000
001FFFF800
007FFFFC00
00FFFFFE00
01FE01FE00
03F8007F00
07F0003F00
0FE0003F80
0FC0001F80
1F80001F80
1F80000FC0
3F00000FC0
3F00000FC0
7E00000FC0
7E00000FC0
7E00000FC0
7C00000FC0
FC00000F80
FC00001F80
FC00001F80
FC00001F80
FC00001F00
FC00003F00
FC00003F00
7E00007E00
7E0000FC00
7E0001FC00
7F0003F800
3F8007F000
3FC01FE000
1FFDFFC000
0FFFFF8000
07FFFF0000
03FFFC0000
00FFF00000
ENDCHAR
STARTCHAR 0152
ENCODING 338
SWIDTH 960 0
DWIDTH 64 0
BBX 62 47 6 0
BITMAP
000000FFFFFFFFFC
00003FFFFFFFFFFC
0000FFFFFFFFFFFC
0003FFFFFFFFFFF8
000FFFFFFFFFFFF8
001FFFFFFFFFFFF8
003FF000FC000000
007F8000FC000000
00FF0000FC000000
01FC0000F8000000
03F80001F8000000
07F00001F8000000
07F00001F8000000
0FE00001F8000000
0FC00001F8000000
1FC00001F0000000
1F800003F0000000
3F800003F0000000
3F000003F0000000
3F000003F0000000
7F000003F0000000
7E000003FFFFFF00
7E000007FFFFFE00
7E000007FFFFFE00
7E000007FFFFFE00
7E000007FFFFFE00
FE000007E0000000
FE000007C0000000
FE00000FC0000000
FE00000FC0000000
FE00000FC0000000
FE00000FC0000000
7E00000FC0000000
7E00000F80000000
7F00001F80000000
7F00001F80000000
3F80001F80000000
3F80001F80000000
3FC0001F00000000
1FE0001F00000000
0FF8003F00000000
0FFF003F00000000
07FFFFFFFFFFFE00
03FFFFFFFFFFFE00
00FFFFFFFFFFFC00
003FFFFFFFFFFC00
0007FFFFFFFFFC00
ENDCHAR
STARTCHAR 0153
ENCODING 339
SWIDTH 975 0
DWIDTH 65 0
BBX 60 37 6 -1
BITMAP
0000FF00001FF000
0007FFC000FFFC00
001FFFF003FFFF00
007FFFF807FFFF80
00FFFFFC0FFDFFC0
01FE03FC1FC01FC0
03F800FE3F000FE0
07F0007E7E0007E0
0FE0003FFC0003E0
0FC0003FF80003F0
1F80001FF00003F0
1F80001FF00001F0
3F00001FE00001F0
3E00000FE00001F0
7E00000FC00001F0
7E00000FC00003F0
7C00000FFFFFFFF0
FC00001FFFFFFFF0
FC00001FFFFFFFE0
FC00001FFFFFFFE0
FC00001F80000000
FC00003F80000000
FC00003F80000000
FC00003F80000000
FC00007F80000000
FC00007F80000FC0
7E0000FFC0001F80
7E0001FFC0001F80
7F0003F7E0003F00
3F8007E3F0007E00
3FC01FE3F801FC00
1FF8FFC1FF1FF800
1FFFFF01FFFFF000
0FFFFE00FFFFE000
03FFFC003FFF8000
00FFF0001FFE0000
0006000000000000
ENDCHAR
STARTCHAR 0154
ENCODING 340
SWIDTH 600 0
DWIDTH 40 0
BBX 38 63 5 0
BITMAP
00000007E0
0000000FC0
0000001F80
0000003F00
0000003E00
0000007C00
000000FC00
000000F800
000001F000
000003E000
000007C000
0000078000
0000000000
0000000000
0000000000
0000000000
00FFFFE000
00FFFFFE00
00FFFFFF80
01FFFFFFC0
01FFFFFFE0
01FFFFFFF0
01F8000FF8
01F00003F8
01F00001F8
03F00000FC
03F00000FC
03F00000FC
03F00000FC
03E00000FC
03E00000FC
07E00000F8
07E00001F8
07E00001F8
07E00003F0
07C00003F0
0FC00007E0
0FC0001FE0
0FC0007FC0
0FFFFFFF80
0FFFFFFF00
0FFFFFFC00
1FFFFFF000
1FFFFFC000
1F807F0000
1F803F0000
1F803F8000
1F001F8000
3F001F8000
3F000FC000
3F000FC000
3F0007E000
3F0007E000
3E0003F000
7E0003F000
7E0001F800
7E0001F800
7E0001FC00
7E0000FC00
7C0000FE00
FC00007E00
FC00007F00
FC00003F00
ENDCHAR
STARTCHAR 0155
ENCODING 341
SWIDTH 345 0
DWIDTH 23 0
BBX 26 52 5 0
BITMAP
00000FC0
00001F80
00001F00
00003F00
00007E00
0000FC00
0000F800
0001F000
0003E000
0003C000
0007C000
000F8000
00000000
00000000
00000000
00000000
00000000
03E07F00
07E1FE00
07E7FE00
07EFFE00
07FFFE00
07FF8600
07FC0000
0FF80000
0FF00000
0FE00000
0FC00000
0FC00000
0F800000
1F800000
1F800000
1F800000
1F800000
1F000000
1F000000
3F000000
3F000000
3F000000
3F000000
3E000000
3E000000
7E000000
7E000000
7E000000
7E000000
7C000000
FC000000
FC000000
FC000000
FC000000
FC000000
ENDCHAR
STARTCHAR 0158
ENCODING 344
SWIDTH 600 0
DWIDTH 40 0
BBX 38 61 5 0
BITMAP
0007E007E0
0003F00FC0
0001F01F80
0001F83F00
0000FC7E00
00007EFC00
00003FF800
00003FF000
00001FE000
00000FC000
0000000000
0000000000
0000000000
0000000000
00FFFFE000
00FFFFFE00
00FFFFFF80
01FFFFFFC0
01FFFFFFE0
01FFFFFFF0
01F8000FF8
01F00003F8
01F00001F8
03F00000FC
03F00000FC
03F00000FC
03F00000FC
03E00000FC
03E00000FC
07E00000F8
07E00001F8
07E00001F8
07E00003F0
07C00003F0
0FC00007E0
0FC0001FE0
0FC0007FC0
0FFFFFFF80
0FFFFFFF00
0FFFFFFC00
1FFFFFF000
1FFFFFC000
1F807F0000
1F803F0000
1F803F8000
1F001F8000
3F001F8000
3F000FC000
3F000FC000
3F0007E000
3F0007E000
3E0003F000
7E0003F000
7E0001F800
7E0001F800
7E0001FC00
7E0000FC00
7C0000FE00
FC00007E00
FC00007F00
FC00003F00
ENDCHAR
STARTCHAR 0159
ENCODING 345
SWIDTH 345 0
DWIDTH 23 0
BBX 26 49 5 0
BITMAP
07C00FC0
03E01F80
03F03F00
01F87E00
00F8FC00
00FDF800
007FE000
003FC000
001F8000
00000000
00000000
00000000
00000000
00000000
03E07F00
07E1FE00
07E7FE00
07EFFE00
07FFFE00
07FF8600
07FC0000
0FF80000
0FF00000
0FE00000
0FC00000
0FC00000
0F800000
1F800000
1F800000
1F800000
1F800000
1F000000
1F000000
3F000000
3F000000
3F000000
3F000000
3E000000
3E000000
7E000000
7E000000
7E000000
7E000000
7C000000
FC000000
FC000000
FC000000
FC000000
FC000000
ENDCHAR
STARTCHAR 015A
ENCODING 346
SWIDTH 585 0
DWIDTH 39 0
BBX 37 64 5 -1
BITMAP
00000001F8
00000003F0
00000007E0
00000007C0
0000000F80
0000001F00
0000003F00
0000003E00
0000007C00
000000F800
000000F000
000001E000
0000000000
0000000000
0000000000
00000FC000
0000FFFC00
0003FFFE00
000FFFFF80
001FFFFFC0
003FF9FFE0
007F801FE0
00FE000FF0
01FC0007F0
01F80003F8
03F00003F8
03F00003F8
03F00001F8
07E00001F8
07E00001F8
07E0000000
07E0000000
07F0000000
03F8000000
03FC000000
03FF000000
01FFF00000
00FFFF8000
007FFFF000
001FFFFC00
0007FFFE00
00003FFF00
000001FF80
0000007F80
0000003FC0
0000001FC0
0000000FC0
0000000FC0
FE00000FC0
FE00000FC0
7E00000FC0
7E00001FC0
7F00001F80
7F00003F80
7F00003F00
3F8000FF00
3FC001FE00
1FF007FC00
1FFFFFF800
0FFFFFF000
07FFFFC000
01FFFF8000
007FFC0000
0001800000
ENDCHAR
STARTCHAR 015B
ENCODING 347
SWIDTH 495 0
DWIDTH 33 0
BBX 31 52 5 0
BITMAP
0000007E
000000FC
000001F8
000003F0
000003E0
000007C0
00000FC0
00000F80
00001F00
00003E00
00007C00
00007800
00000000
00000000
00000000
00000000
0007FC00
003FFF80
00FFFFC0
01FFFFE0
03FF3FF0
07F007F0
07E003F8
0FC003F8
0F8001F8
1F8001F8
1F8001F8
1F800000
1F800000
1FC00000
0FE00000
0FFE0000
07FFF000
03FFFE00
00FFFF00
003FFFC0
0000FFC0
00001FE0
000007E0
000007E0
FC0007E0
FC0007E0
FC0007E0
FC0007E0
FE000FC0
FE001FC0
7F003F80
7FE3FF00
3FFFFE00
1FFFFC00
0FFFF000
03FFC000
ENDCHAR
STARTCHAR 015E
ENCODING 350
SWIDTH 585 0
DWIDTH 39 0
BBX 37 65 5 -17
BITMAP
00000FC000
0000FFFC00
0003FFFE00
000FFFFF80
001FFFFFC0
003FF9FFE0
007F801FE0
00FE000FF0
01FC0007F0
01F80003F8
03F00003F8
03F00003F8
03F00001F8
07E00001F8
07E00001F8
07E0000000
07E0000000
07F0000000
03F8000000
03FC000000
03FF000000
01FFF00000
00FFFF8000
007FFFF000
001FFFFC00
0007FFFE00
00003FFF00
000001FF80
0000007F80
0000003FC0
0000001FC0
0000000FC0
0000000FC0
FE00000FC0
FE00000FC0
7E00000FC0
7E00001FC0
7F00001F80
7F00003F80
7F00003F00
3F8000FF00
3FC001FE00
1FF007FC00
1FFFFFF800
0FFFFFF000
07FFFFC000
01FFFF8000
007FFC0000
0007800000
0007000000
000F000000
000E000000
001FF00000
001FF80000
003FFC0000
00003C0000
00001C0000
00001C0000
00001C0000
00003C0000
0000780000
003FF00000
003FE00000
007FC00000
001E000000
ENDCHAR
STARTCHAR 015F
ENCODING 351
SWIDTH 495 0
DWIDTH 33 0
BBX 29 53 5 -17
BITMAP
0007FC00
003FFF80
00FFFFC0
01FFFFE0
03FF3FF0
07F007F0
07E003F8
0FC003F8
0F8001F8
1F8001F8
1F8001F8
1F800000
1F800000
1FC00000
0FE00000
0FFE0000
07FFF000
03FFFE00
00FFFF00
003FFFC0
0000FFC0
00001FE0
000007E0
000007E0
FC0007E0
FC0007E0
FC0007E0
FC0007C0
FE000FC0
FE001FC0
7F003F80
7FE3FF00
3FFFFE00
1FFFFC00
0FFFF000
03FFC000
003C0000
00380000
00380000
00700000
007F8000
00FFC000
00FFE000
0000E000
0000F000
0000E000
0000E000
0001E000
0003C000
01FFC000
01FF8000
01FE0000
00600000
ENDCHAR
STARTCHAR 0160
ENCODING 352
SWIDTH 585 0
DWIDTH 39 0
BBX 37 62 5 -1
BITMAP
0001F800F8
0000FC01F0
00007E07E0
00003E0FC0
00003F1F80
00001FBF00
00000FFE00
000007FC00
000007F800
000003F000
0000000000
0000000000
0000000000
00000FC000
0000FFFC00
0003FFFE00
000FFFFF80
001FFFFFC0
003FF9FFE0
007F801FE0
00FE000FF0
01FC0007F0
01F80003F8
03F00003F8
03F00003F8
03F00001F8
07E00001F8
07E00001F8
07E0000000
07E0000000
07F0000000
03F8000000
03FC000000
03FF000000
01FFF00000
00FFFF8000
007FFFF000
001FFFFC00
0007FFFE00
00003FFF00
000001FF80
0000007F80
0000003FC0
0000001FC0
0000000FC0
0000000FC0
FE00000FC0
FE00000FC0
7E00000FC0
7E00001FC0
7F00001F80
7F00003F80
7F00003F00
3F8000FF00
3FC001FE00
1FF007FC00
1FFFFFF800
0FFFFFF000
07FFFFC000
01FFFF8000
007FFC0000
0001800000
ENDCHAR
STARTCHAR 0161
ENCODING 353
SWIDTH 495 0
DWIDTH 33 0
BBX 31 50 5 0
BITMAP
007E003E
003F00FC
001F01F8
001F83F0
000FC7E0
0007EFC0
0003FF80
0003FF00
0001FE00
0000FC00
00000000
00000000
00000000
00000000
0007FC00
003FFF80
00FFFFC0
01FFFFE0
03FF3FF0
07F007F0
07E003F8
0FC003F8
0F8001F8
1F8001F8
1F8001F8
1F800000
1F800000
1FC00000
0FE00000
0FFE0000
07FFF000
03FFFE00
00FFFF00
003FFFC0
0000FFC0
00001FE0
000007E0
000007E0
FC0007E0
FC0007E0
FC0007E0
FC0007E0
FE000FC0
FE001FC0
7F003F80
7FE3FF00
3FFFFE00
1FFFFC00
0FFFF000
03FFC000
ENDCHAR
STARTCHAR 0162
ENCODING 354
SWIDTH 585 0
DWIDTH 39 0
BBX 34 64 10 -17
BITMAP
7FFFFFFFC0
7FFFFFFFC0
7FFFFFFFC0
FFFFFFFFC0
FFFFFFFFC0
FFFFFFFF80
0003E00000
0007E00000
0007E00000
0007E00000
0007E00000
0007E00000
0007C00000
000FC00000
000FC00000
000FC00000
000FC00000
000FC00000
000F800000
001F800000
001F800000
001F800000
001F800000
001F000000
001F000000
003F000000
003F000000
003F000000
003F000000
003E000000
003E000000
007E000000
007E000000
007E000000
007E000000
007C000000
00FC000000
00FC000000
00FC000000
00FC000000
00FC000000
00F8000000
01F8000000
01F8000000
01F8000000
01F8000000
01F8000000
01E0000000
01C0000000
03C0000000
0380000000
07FC000000
07FE000000
0FFF000000
000F000000
0007000000
0007000000
0007000000
000F000000
001E000000
0FFC000000
1FF8000000
1FF0000000
0380000000
ENDCHAR
STARTCHAR 0163
ENCODING 355
SWIDTH 390 0
DWIDTH 26 0
BBX 22 63 7 -16
BITMAP
003E00
007E00
007E00
007E00
007E00
007C00
007C00
00FC00
00FC00
00FC00
00FC00
00F800
7FFFFC
7FFFF8
7FFFF8
FFFFF8
01F800
01F000
01F000
03F000
03F000
03F000
03F000
03E000
07E000
07E000
07E000
07E000
07E000
07C000
0FC000
0FC000
0FC000
0FC000
0FC000
0F8000
1F8000
1F8000
1F8000
1F8000
1F8000
1F8000
1FC000
1FFF00
1FFF00
0FFF00
07FF00
01C000
038000
038000
070000
07FC00
0FFE00
0FFE00
000F00
000F00
000F00
000E00
001E00
003C00
1FFC00
1FF000
1FE000
ENDCHAR
STARTCHAR 0164
ENCODING 356
SWIDTH 585 0
DWIDTH 39 0
BBX 34 61 10 0
BITMAP
007E007E00
003E00FC00
003F01F800
001F83F000
000FC7E000
0007CFC000
0007FF8000
0003FE0000
0001FC0000
0000F80000
0000000000
0000000000
0000000000
0000000000
7FFFFFFFC0
7FFFFFFFC0
7FFFFFFFC0
FFFFFFFFC0
FFFFFFFFC0
FFFFFFFF80
0003E00000
0007E00000
0007E00000
0007E00000
0007E00000
0007E00000
0007C00000
000FC00000
000FC00000
000FC00000
000FC00000
000FC00000
000F800000
001F800000
001F800000
001F800000
001F800000
001F000000
001F000000
003F000000
003F000000
003F000000
003F000000
003E000000
003E000000
007E000000
007E000000
007E000000
007E000000
007C000000
00FC000000
00FC000000
00FC000000
00FC000000
00FC000000
00F8000000
01F8000000
01F8000000
01F8000000
01F8000000
01F8000000
ENDCHAR
STARTCHAR 0165
ENCODING 357
SWIDTH 495 0
DWIDTH 33 0
BBX 26 52 7 0
BITMAP
00001F00
00003F80
00007FC0
00007FC0
00007FC0
003E7F80
007E3F80
007E0780
007E0380
007E0780
007C0700
007C0700
00FC0E00
00FC1C00
00FC7800
00FCF000
00F8C000
7FFFFC00
7FFFF800
7FFFF800
FFFFF800
01F80000
01F00000
01F00000
03F00000
03F00000
03F00000
03F00000
03E00000
07E00000
07E00000
07E00000
07E00000
07E00000
07C00000
0FC00000
0FC00000
0FC00000
0FC00000
0FC00000
0F800000
1F800000
1F800000
1F800000
1F800000
1F800000
1F800000
1FC00000
1FFF0000
1FFF0000
0FFF0000
07FF0000
ENDCHAR
STARTCHAR 0166
ENCODING 358
SWIDTH 585 0
DWIDTH 39 0
BBX 34 47 10 0
BITMAP
7FFFFFFFC0
7FFFFFFFC0
7FFFFFFFC0
FFFFFFFFC0
FFFFFFFFC0
FFFFFFFF80
0003E00000
0007E00000
0007E00000
0007E00000
0007E00000
0007E00000
0007C00000
000FC00000
000FC00000
000FC00000
000FC00000
000FC00000
000F800000
FFFFFFF000
FFFFFFF000
FFFFFFF000
FFFFFFF000
001F000000
001F000000
003F000000
003F000000
003F000000
003F000000
003E000000
003E000000
007E000000
007E000000
007E000000
007E000000
007C000000
00FC000000
00FC000000
00FC000000
00FC000000
00FC000000
00F8000000
01F8000000
01F8000000
01F8000000
01F8000000
01F8000000
ENDCHAR
STARTCHAR 0167
ENCODING 359
SWIDTH 390 0
DWIDTH 26 0
BBX 24 47 5 0
BITMAP
000F80
001F80
001F80
001F80
001F80
001F80
001F00
003F00
003F00
003F00
003F00
003E00
1FFFFF
1FFFFE
1FFFFE
1FFFFE
007E00
007E00
007C00
00FC00
00FC00
00FC00
00FC00
00F800
01F800
7FFFFC
7FFFF8
FFFFF8
FFFFF8
01F000
03F000
03F000
03F000
03F000
03F000
03E000
07E000
07E000
07E000
07E000
07E000
07E000
07F000
07FFC0
03FFC0
03FFC0
00FFC0
ENDCHAR
STARTCHAR 0168
ENCODING 360
SWIDTH 675 0
DWIDTH 45 0
BBX 42 61 7 -1
BITMAP
00001F807800
00007FE0F000
0000FFFFF000
0001FFFFE000
0001E0FFC000
0003C03F8000
000000000000
000000000000
000000000000
000000000000
000000000000
000000000000
000000000000
07E000000FC0
07E000000FC0
07E000000FC0
07C000000FC0
07C000000FC0
0FC000000F80
0FC000001F80
0FC000001F80
0FC000001F80
0F8000001F80
0F8000001F00
1F8000001F00
1F8000003F00
1F8000003F00
1F8000003F00
1F0000003F00
1F0000003E00
3F0000003E00
3F0000007E00
3F0000007E00
3F0000007E00
3E0000007E00
3E0000007C00
7E0000007C00
7E000000FC00
7E000000FC00
7E000000FC00
7C000000FC00
7C000000F800
FC000001F800
FC000001F800
FC000001F800
FC000003F000
FC000003F000
FC000007E000
7E000007E000
7E00000FC000
7F00001FC000
7F00001F8000
3F80007F8000
3FC000FF0000
1FF007FE0000
1FFFFFFC0000
0FFFFFF80000
07FFFFE00000
01FFFFC00000
007FFE000000
000380000000
ENDCHAR
STARTCHAR 0169
ENCODING 361
SWIDTH 600 0
DWIDTH 40 0
BBX 34 50 7 -1
BITMAP
0003C01E00
000FF01E00
001FFC3C00
003FFFFC00
007C7FF800
00781FF000
007003C000
0000000000
0000000000
0000000000
0000000000
0000000000
0000000000
0000000000
0F80000FC0
1F80000FC0
1F80000FC0
1F80000FC0
1F80000FC0
1F80000F80
1F00001F80
3F00001F80
3F00001F80
3F00001F80
3F00001F80
3F00001F00
3E00003F00
7E00003F00
7E00003F00
7E00003F00
7E00003F00
7E00003E00
7C00007E00
FC00007E00
FC00007E00
FC00007E00
FC0000FE00
FC0000FC00
FC0000FC00
FC0001FC00
FE0003FC00
FE0007FC00
FF000EFC00
7F803EF800
7FFFFDF800
3FFFF9F800
1FFFF1F800
0FFFC1F800
07FF01F800
0070000000
ENDCHAR
STARTCHAR 016A
ENCODING 362
SWIDTH 675 0
DWIDTH 45 0
BBX 42 57 7 -1
BITMAP
0001FFFFE000
0001FFFFE000
0001FFFFE000
000000000000
000000000000
000000000000
000000000000
000000000000
000000000000
07E000000FC0
07E000000FC0
07E000000FC0
07C000000FC0
07C000000FC0
0FC000000F80
0FC000001F80
0FC000001F80
0FC000001F80
0F8000001F80
0F8000001F00
1F8000001F00
1F8000003F00
1F8000003F00
1F8000003F00
1F0000003F00
1F0000003E00
3F0000003E00
3F0000007E00
3F0000007E00
3F0000007E00
3E0000007E00
3E0000007C00
7E0000007C00
7E000000FC00
7E000000FC00
7E000000FC00
7C000000FC00
7C000000F800
FC000001F800
FC000001F800
FC000001F800
FC000003F000
FC000003F000
FC000007E000
7E000007E000
7E00000FC000
7F00001FC000
7F00001F8000
3F80007F8000
3FC000FF0000
1FF007FE0000
1FFFFFFC0000
0FFFFFF80000
07FFFFE00000
01FFFFC00000
007FFE000000
000380000000
ENDCHAR
STARTCHAR 016B
ENCODING 363
SWIDTH 600 0
DWIDTH 40 0
BBX 34 46 7 -1
BITMAP
003FFFFC00
003FFFFC00
007FFFF800
0000000000
0000000000
0000000000
0000000000
0000000000
0000000000
0000000000
0F80000FC0
1F80000FC0
1F80000FC0
1F80000FC0
1F80000FC0
1F80000F80
1F00001F80
3F00001F80
3F00001F80
3F00001F80
3F00001F80
3F00001F00
3E00003F00
7E00003F00
7E00003F00
7E00003F00
7E00003F00
7E00003E00
7C00007E00
FC00007E00
FC00007E00
FC00007E00
FC0000FE00
FC0000FC00
FC0000FC00
FC0001FC00
FE0003FC00
FE0007FC00
FF000EFC00
7F803EF800
7FFFFDF800
3FFFF9F800
1FFFF1F800
0FFFC1F800
07FF01F800
0070000000
ENDCHAR
STARTCHAR 016E
ENCODING 366
SWIDTH 675 0
DWIDTH 45 0
BBX 42 65 7 -1
BITMAP
000000F80000
000001FC0000
000003FE0000
0000070F0000
00000E070000
00000E070000
00000E070000
00000E0E0000
00000F1E0000
000007FC0000
000003F80000
000000C00000
000000000000
000000000000
000000000000
000000000000
000000000000
07E000000FC0
07E000000FC0
07E000000FC0
07C000000FC0
07C000000FC0
0FC000000F80
0FC000001F80
0FC000001F80
0FC000001F80
0F8000001F80
0F8000001F00
1F8000001F00
1F8000003F00
1F8000003F00
1F8000003F00
1F0000003F00
1F0000003E00
3F0000003E00
3F0000007E00
3F0000007E00
3F0000007E00
3E0000007E00
3E0000007C00
7E0000007C00
7E000000FC00
7E000000FC00
7E000000FC00
7C000000FC00
7C000000F800
FC000001F800
FC000001F800
FC000001F800
FC000003F000
FC000003F000
FC000007E000
7E000007E000
7E00000FC000
7F00001FC000
7F00001F8000
3F80007F8000
3FC000FF0000
1FF007FE0000
1FFFFFFC0000
0FFFFFF80000
07FFFFE00000
01FFFFC00000
007FFE000000
000380000000
ENDCHAR
STARTCHAR 016F
ENCODING 367
SWIDTH 600 0
DWIDTH 40 0
BBX 34 53 7 -1
BITMAP
00003F0000
0000FF8000
0001E3C000
0001C1C000
000381C000
000381C000
000381C000
0003838000
0001FF0000
0001FE0000
0000FC0000
0000000000
0000000000
0000000000
0000000000
0000000000
0000000000
0F80000FC0
1F80000FC0
1F80000FC0
1F80000FC0
1F80000FC0
1F80000F80
1F00001F80
3F00001F80
3F00001F80
3F00001F80
3F00001F80
3F00001F00
3E00003F00
7E00003F00
7E00003F00
7E00003F00
7E00003F00
7E00003E00
7C00007E00
FC00007E00
FC00007E00
FC00007E00
FC0000FE00
FC0000FC00
FC0000FC00
FC0001FC00
FE0003FC00
FE0007FC00
FF000EFC00
7F803EF800
7FFFFDF800
3FFFF9F800
1FFFF1F800
0FFFC1F800
07FF01F800
0070000000
ENDCHAR
STARTCHAR 0172
ENCODING 370
SWIDTH 675 0
DWIDTH 45 0
BBX 42 58 7 -11
BITMAP
07E000000FC0
07E000000FC0
07E000000FC0
07C000000FC0
07C000000FC0
0FC000000F80
0FC000001F80
0FC000001F80
0FC000001F80
0F8000001F80
0F8000001F00
1F8000001F00
1F8000003F00
1F8000003F00
1F8000003F00
1F0000003F00
1F0000003E00
3F0000003E00
3F0000007E00
3F0000007E00
3F0000007E00
3E0000007E00
3E0000007C00
7E0000007C00
7E000000FC00
7E000000FC00
7E000000FC00
7C000000FC00
7C000000F800
FC000001F800
FC000001F800
FC000001F800
FC000003F000
FC000003F000
FC000007E000
7E000007E000
7E00000FC000
7F00001FC000
7F00001F8000
3F80007F8000
3FC000FF0000
1FF007FE0000
1FFFFFFC0000
0FFFFFF80000
07FFFFE00000
01FFFF800000
007FFE000000
0007E0000000
000F80000000
001F00000000
001E00000000
003C00000000
003C00000000
003C00000000
003E00000000
003FF0000000
001FF0000000
000FE0000000
ENDCHAR
STARTCHAR 0173
ENCODING 371
SWIDTH 600 0
DWIDTH 40 0
BBX 34 46 7 -11
BITMAP
0F80000FC0
1F80000FC0
1F80000FC0
1F80000FC0
1F80000FC0
1F80000F80
1F00001F80
3F00001F80
3F00001F80
3F00001F80
3F00001F80
3F00001F00
3E00003F00
7E00003F00
7E00003F00
7E00003F00
7E00003F00
7E00003E00
7C00007E00
FC00007E00
FC00007E00
FC00007E00
FC0000FE00
FC0000FC00
FC0000FC00
FC0001FC00
FE0003FC00
FE0007FC00
FF000EFC00
7F803EF800
7FFFFDF800
3FFFF9F800
1FFFF1F800
0FFFC1F800
07FF01F800
007007E000
00000F8000
00000F0000
00001E0000
00001E0000
00001E0000
00001E0000
00001FF800
00001FF000
00000FF000
000003E000
ENDCHAR
STARTCHAR 0174
ENCODING 372
SWIDTH 990 0
DWIDTH 66 0
BBX 64 61 9 0
BITMAP
00000000F8000000
00000001FC000000
00000003FE000000
0000000FFE000000
0000001FBF000000
0000003F1F800000
0000007E0FC00000
000000FC07C00000
000001F807E00000
000003F003F00000
0000000000000000
0000000000000000
0000000000000000
0000000000000000
FC000007E000003F
FC000007E000003F
FC00000FE000007E
FC00000FE000007E
FC00001FE000007C
FC00001FE00000FC
7C00003FF00000F8
7C00003FF00001F8
7C00007FF00001F8
7C00007FF00003F0
7E0000FDF00003F0
7E0000FDF00003E0
7E0001F9F80007E0
7E0001F9F80007C0
7E0003F1F8000FC0
7E0003F1F8000F80
3E0007E0F8001F80
3E0007E0F8001F80
3E000FC0F8001F00
3E000FC0FC003F00
3E001F80FC003E00
3F001F80FC007E00
3F003F00FC007C00
3F003F007C00FC00
3F007E007C00FC00
3F007E007E01F800
3F00FC007E01F800
1F00FC007E01F000
1F01F8007E03F000
1F01F8007E03E000
1F03F0003E07E000
1F03F0003E07C000
1F87E0003F0FC000
1F87E0003F0FC000
1F8FC0003F0F8000
1F8FC0003F1F8000
1F9F80003F1F0000
0F9F80001F3F0000
0FBF00001F3E0000
0FBF00001FFE0000
0FFE00001FFE0000
0FFE00001FFC0000
0FFC00001FFC0000
0FFC00000FF80000
0FF800000FF80000
0FF800000FF00000
0FF000000FF00000
ENDCHAR
STARTCHAR 0175
ENCODING 373
SWIDTH 810 0
DWIDTH 54 0
BBX 50 49 8 0
BITMAP
000000FE000000
000001FF000000
000003FF000000
000007FF800000
00000FCFC00000
00001F87C00000
00003F07E00000
00007E03F00000
0000FC01F80000
00010000000000
00000000000000
00000000000000
00000000000000
00000000000000
FC0003F00007C0
FC0003F0000FC0
FC0007F0000F80
7C0007F0001F80
7C000FF8001F00
7C000FF8003F00
7C001FF8003E00
7C001FF8003E00
7E001FF8007E00
7E003EF8007C00
7E003EF800FC00
7E007EFC00F800
3E007CFC01F800
3E00FCFC01F000
3E00F87C03F000
3E01F87C03E000
3E01F07C03E000
3E03F07C07C000
3F03E07E07C000
3F07E07E0FC000
3F07C07E0F8000
1F0FC03E1F8000
1F0F803E1F0000
1F1F803E3F0000
1F1F003E3E0000
1F3F003E3E0000
1F3E003F7C0000
1F7E003F7C0000
1FFC003FFC0000
1FFC001FF80000
1FF8001FF80000
0FF8001FF00000
0FF0001FF00000
0FF0001FE00000
0FF0001FE00000
ENDCHAR
STARTCHAR 0176
ENCODING 374
SWIDTH 600 0
DWIDTH 40 0
BBX 36 61 10 0
BITMAP
00003E0000
00007F0000
0000FF8000
0001FFC000
0003E7C000
0007C7E000
001F83F000
003F01F000
007E01F800
00FC00FC00
0000000000
0000000000
0000000000
0000000000
FE000003F0
7E000007F0
7E000007E0
7F00000FC0
3F00001FC0
3F00001F80
3F00003F00
1F80007F00
1F80007E00
1F8000FC00
0FC001F800
0FC001F800
0FC003F000
07E007E000
07E007E000
07E00FC000
03F01F8000
03F01F8000
03F03F0000
01F87E0000
01F87E0000
01F8FC0000
00FDF80000
00FDF80000
00FFF00000
007FE00000
007FE00000
007FC00000
003F800000
003F800000
003F000000
003F000000
003F000000
003F000000
003E000000
007E000000
007E000000
007E000000
007E000000
007E000000
007C000000
00FC000000
00FC000000
00FC000000
00FC000000
00FC000000
00F8000000
ENDCHAR
STARTCHAR 0177
ENCODING 375
SWIDTH 480 0
DWIDTH 32 0
BBX 40 63 -1 -14
BITMAP
000001F800
000007FC00
00000FFC00
00001FFE00
00003F3F00
00007E1F80
0000FC0F80
0001F80FC0
0003F007E0
0000000000
0000000000
0000000000
0000000000
0000000000
00FC00003F
00FC00007E
00FC0000FC
00FC0000FC
00FC0001F8
007E0001F8
007E0003F0
007E0003F0
007E0007E0
003E0007C0
003E000FC0
003F001F80
003F001F80
003F003F00
001F003E00
001F007E00
001F807C00
001F80FC00
000F80F800
000F81F800
000F81F000
000FC3E000
000FC7E000
0007C7C000
0007CFC000
0007CF8000
0007FF0000
0003FF0000
0003FE0000
0003FE0000
0003FC0000
0003FC0000
0001F80000
0001F00000
0003F00000
0007E00000
0007E00000
000FC00000
000F800000
001F800000
003F000000
003F000000
007E000000
01FC000000
7FFC000000
7FF8000000
7FE0000000
FFC0000000
3800000000
ENDCHAR
STARTCHAR 0178
ENCODING 376
SWIDTH 600 0
DWIDTH 40 0
BBX 36 61 10 0
BITMAP
0006003000
001F80FC00
003F80FC00
003F81FC00
003F81FC00
003F81FC00
003F01F800
001C00F000
0000000000
0000000000
0000000000
0000000000
0000000000
0000000000
FE000003F0
7E000007F0
7E000007E0
7F00000FC0
3F00001FC0
3F00001F80
3F00003F00
1F80007F00
1F80007E00
1F8000FC00
0FC001F800
0FC001F800
0FC003F000
07E007E000
07E007E000
07E00FC000
03F01F8000
03F01F8000
03F03F0000
01F87E0000
01F87E0000
01F8FC0000
00FDF80000
00FDF80000
00FFF00000
007FE00000
007FE00000
007FC00000
003F800000
003F800000
003F000000
003F000000
003F000000
003F000000
003E000000
007E000000
007E000000
007E000000
007E000000
007E000000
007C000000
00FC000000
00FC000000
00FC000000
00FC000000
00FC000000
00F8000000
ENDCHAR
STARTCHAR 0179
ENCODING 377
SWIDTH 600 0
DWIDTH 40 0
BBX 40 63 4 0
BITMAP
00000001F8
00000003F0
00000003E0
00000007E0
0000000FC0
0000001F80
0000001F00
0000003E00
0000007C00
0000007800
000000F800
000001F000
0000000000
0000000000
0000000000
0000000000
01FFFFFFFF
01FFFFFFFF
01FFFFFFFF
01FFFFFFFF
01FFFFFFFF
01FFFFFFFF
00000000FE
00000001FC
00000003F8
00000007F0
0000000FE0
0000001FC0
0000001F80
0000003F80
0000007F00
000000FE00
000001FC00
000003F800
000007F000
00000FE000
00001FC000
00003F8000
00003F0000
00007F0000
0000FE0000
0001FC0000
0003F80000
0007F00000
000FE00000
001FC00000
003F800000
007F000000
007E000000
00FE000000
01FC000000
03F8000000
07F0000000
0FE0000000
1FC0000000
3F80000000
7F00000000
FE00000000
FFFFFFFF80
FFFFFFFF80
FFFFFFFF80
FFFFFFFF80
FFFFFFFF80
ENDCHAR
STARTCHAR 017A
ENCODING 378
SWIDTH 495 0
DWIDTH 33 0
BBX 32 52 4 0
BITMAP
0000003F
0000007E
0000007C
000000FC
000001F8
000001F0
000003E0
000007C0
00000F80
00000F80
00001F00
00003E00
00000000
00000000
00000000
00000000
00000000
03FFFFFF
03FFFFFF
03FFFFFF
03FFFFFF
03FFFFFF
000000FE
000001FC
000003F8
000007F0
00000FE0
00001FC0
00003F80
00007F00
00007E00
0000FC00
0001F800
0003F000
0007E000
000FC000
001F8000
003F0000
007E0000
00FC0000
01F80000
03F00000
07E00000
0FC00000
1F800000
3F000000
7E000000
FFFFFFE0
FFFFFFE0
FFFFFFE0
FFFFFFE0
FFFFFFC0
ENDCHAR
STARTCHAR 017B
ENCODING 379
SWIDTH 600 0
DWIDTH 40 0
BBX 40 61 4 0
BITMAP
0000003000
000000F800
000001FC00
000003FC00
000003FC00
000003F800
000001F000
000000E000
0000000000
0000000000
0000000000
0000000000
0000000000
0000000000
01FFFFFFFF
01FFFFFFFF
01FFFFFFFF
01FFFFFFFF
01FFFFFFFF
01FFFFFFFF
00000000FE
00000001FC
00000003F8
00000007F0
0000000FE0
0000001FC0
0000001F80
0000003F80
0000007F00
000000FE00
000001FC00
000003F800
000007F000
00000FE000
00001FC000
00003F8000
00003F0000
00007F0000
0000FE0000
0001FC0000
0003F80000
0007F00000
000FE00000
001FC00000
003F800000
007F000000
007E000000
00FE000000
01FC000000
03F8000000
07F0000000
0FE0000000
1FC0000000
3F80000000
7F00000000
FE00000000
FFFFFFFF80
FFFFFFFF80
FFFFFFFF80
FFFFFFFF80
FFFFFFFF80
ENDCHAR
STARTCHAR 017C
ENCODING 380
SWIDTH 495 0
DWIDTH 33 0
BBX 32 49 4 0
BITMAP
00001E00
00003F00
00007F00
00007F00
00007F00
00007F00
00003C00
00000000
00000000
00000000
00000000
00000000
00000000
00000000
03FFFFFF
03FFFFFF
03FFFFFF
03FFFFFF
03FFFFFF
000000FE
000001FC
000003F8
000007F0
00000FE0
00001FC0
00003F80
00007F00
00007E00
0000FC00
0001F800
0003F000
0007E000
000FC000
001F8000
003F0000
007E0000
00FC0000
01F80000
03F00000
07E00000
0FC00000
1F800000
3F000000
7E000000
FFFFFFE0
FFFFFFE0
FFFFFFE0
FFFFFFE0
FFFFFFC0
ENDCHAR
STARTCHAR 017D
ENCODING 381
SWIDTH 600 0
DWIDTH 40 0
BBX 40 61 4 0
BITMAP
0000F800FC
00007C01F8
00007E03F0
00003F07E0
00001F0F80
00001FBF00
00000FFE00
000007FC00
000003F800
000003F000
0000000000
0000000000
0000000000
0000000000
01FFFFFFFF
01FFFFFFFF
01FFFFFFFF
01FFFFFFFF
01FFFFFFFF
01FFFFFFFF
00000000FE
00000001FC
00000003F8
00000007F0
0000000FE0
0000001FC0
0000001F80
0000003F80
0000007F00
000000FE00
000001FC00
000003F800
000007F000
00000FE000
00001FC000
00003F8000
00003F0000
00007F0000
0000FE0000
0001FC0000
0003F80000
0007F00000
000FE00000
001FC00000
003F800000
007F000000
007E000000
00FE000000
01FC000000
03F8000000
07F0000000
0FE0000000
1FC0000000
3F80000000
7F00000000
FE00000000
FFFFFFFF80
FFFFFFFF80
FFFFFFFF80
FFFFFFFF80
FFFFFFFF80
ENDCHAR
STARTCHAR 017E
ENCODING 382
SWIDTH 495 0
DWIDTH 33 0
BBX 32 49 4 0
BITMAP
001F003F
000F807E
000FC0FC
0007E1F8
0003E3F0
0003F7E0
0001FF80
0000FF00
00007E00
00000000
00000000
00000000
00000000
00000000
03FFFFFF
03FFFFFF
03FFFFFF
03FFFFFF
03FFFFFF
000000FE
000001FC
000003F8
000007F0
00000FE0
00001FC0
00003F80
00007F00
00007E00
0000FC00
0001F800
0003F000
0007E000
000FC000
001F8000
003F0000
007E0000
00FC0000
01F80000
03F00000
07E00000
0FC00000
1F800000
3F000000
7E000000
FFFFFFE0
FFFFFFE0
FFFFFFE0
FFFFFFE0
FFFFFFC0
ENDCHAR
STARTCHAR 01A0
ENCODING 416
SWIDTH 735 0
DWIDTH 49 0
BBX 44 53 7 0
BITMAP
0000000001F0
0000000001F0
0000000001F0
0000000001E0
0000000003E0
000001F803E0
00003FFFFFC0
0000FFFFFF80
0003FFFFFF00
000FFFFFFC00
001FFFFFFE00
003FE003FE00
007F8000FF00
00FF00007F80
01FC00003F80
03F800001FC0
07F000001FC0
07F000000FC0
0FE000000FC0
0FC000000FE0
1FC0000007E0
1F80000007E0
3F80000007E0
3F00000007E0
3F00000007E0
7E00000007E0
7E00000007E0
7E00000007E0
7E00000007E0
FC0000000FE0
FC0000000FC0
FC0000000FC0
FC0000000FC0
FC0000000FC0
FC0000001F80
FC0000001F80
FC0000003F80
FC0000003F00
FC0000007F00
FE0000007E00
FE000000FE00
7E000001FC00
7F000003F800
7F800007F800
3F80000FF000
3FC0001FE000
1FF0007FC000
0FFC01FF8000
0FFFFFFF0000
07FFFFFC0000
01FFFFF80000
00FFFFE00000
001FFF000000
ENDCHAR
STARTCHAR 01A1
ENCODING 417
SWIDTH 585 0
DWIDTH 39 0
BBX 38 41 5 0
BITMAP
000000003C
000000007C
000000007C
000000007C
00000000F8
0000FF81F8
0007FFFFF0
001FFFFFE0
007FFFFF80
00FFFFFE00
01FE01FE00
03F8007F00
07F0003F00
0FE0003F80
0FC0001F80
1F80001F80
1F80000FC0
3F00000FC0
3F00000FC0
7E00000FC0
7E00000FC0
7E00000FC0
7C00000FC0
FC00000F80
FC00001F80
FC00001F80
FC00001F80
FC00001F00
FC00003F00
FC00003F00
7E00007E00
7E0000FC00
7E0001FC00
7F0003F800
3F8007F000
3FC01FE000
1FFDFFC000
0FFFFF8000
07FFFF0000
03FFFC0000
00FFF00000
ENDCHAR
STARTCHAR 01AF
ENCODING 431
SWIDTH 675 0
DWIDTH 45 0
BBX 50 54 7 -1
BITMAP
000000000003C0
000000000003C0
000000000007C0
000000000007C0
00000000000780
00000000000F80
07E000000FFF00
07E000000FFE00
07E000000FFC00
07C000000FC000
07C000000F8000
0FC000000F8000
0FC000001F8000
0FC000001F8000
0FC000001F8000
0F8000001F8000
0F8000001F0000
1F8000001F0000
1F8000003F0000
1F8000003F0000
1F8000003F0000
1F0000003F0000
1F0000003E0000
3F0000003E0000
3F0000007E0000
3F0000007E0000
3F0000007E0000
3E0000007E0000
3E0000007C0000
7E0000007C0000
7E000000FC0000
7E000000FC0000
7E000000FC0000
7C000000FC0000
7C000000F80000
FC000001F80000
FC000001F80000
FC000001F80000
FC000003F00000
FC000003F00000
FC000007E00000
7E000007E00000
7E00000FC00000
7F00001FC00000
7F00001F800000
3F80007F800000
3FC000FF000000
1FF007FE000000
1FFFFFFC000000
0FFFFFF8000000
07FFFFE0000000
01FFFFC0000000
007FFE00000000
00038000000000
ENDCHAR
STARTCHAR 01B0
ENCODING 432
SWIDTH 600 0
DWIDTH 40 0
BBX 43 42 7 -1
BITMAP
0000000003E0
0000000003C0
0000000003C0
0000000007C0
0000000007C0
000000000F80
0F80000FFF00
1F80000FFE00
1F80000FF800
1F80000FC000
1F80000FC000
1F80000F8000
1F00001F8000
3F00001F8000
3F00001F8000
3F00001F8000
3F00001F8000
3F00001F0000
3E00003F0000
7E00003F0000
7E00003F0000
7E00003F0000
7E00003F0000
7E00003E0000
7C00007E0000
FC00007E0000
FC00007E0000
FC00007E0000
FC0000FE0000
FC0000FC0000
FC0000FC0000
FC0001FC0000
FE0003FC0000
FE0007FC0000
FF000EFC0000
7F803EF80000
7FFFFDF80000
3FFFF9F80000
1FFFF1F80000
0FFFC1F80000
07FF01F80000
007000000000
ENDCHAR
STARTCHAR 02C6
ENCODING 710
SWIDTH 405 0
DWIDTH 27 0
BBX 21 9 10 40
BITMAP
007E00
00FF00
01FF80
03EF80
0FCFC0
1F87E0
3F03F0
7E01F0
FC01F8
ENDCHAR
STARTCHAR 02C7
ENCODING 711
SWIDTH 390 0
DWIDTH 26 0
BBX 21 9 11 40
BITMAP
FC01F8
7C03F0
7E07E0
3F0FC0
1F9F80
0FBF00
0FFE00
07FC00
03F800
ENDCHAR
STARTCHAR 02D8
ENCODING 728
SWIDTH 390 0
DWIDTH 26 0
BBX 23 7 10 41
BITMAP
F8003E
FC007C
7C00F8
3F03F0
3FFFE0
1FFF80
07FE00
ENDCHAR
STARTCHAR 02D9
ENCODING 729
SWIDTH 165 0
DWIDTH 11 0
BBX 7 7 10 42
BITMAP
3C
7E
FE
FE
FE
FC
78
ENDCHAR
STARTCHAR 02DA
ENCODING 730
SWIDTH 225 0
DWIDTH 15 0
BBX 12 11 10 41
BITMAP
1FC0
3FE0
78E0
6070
E070
E070
E0E0
E0E0
FFC0
7F80
3F00
ENDCHAR
STARTCHAR 02DB
ENCODING 731
SWIDTH 210 0
DWIDTH 14 0
BBX 10 12 1 -12
BITMAP
0600
1F00
3E00
7C00
7800
F000
F000
F000
F800
FFC0
7FC0
3F80
ENDCHAR
STARTCHAR 02DC
ENCODING 732
SWIDTH 375 0
DWIDTH 25 0
BBX 23 7 9 42
BITMAP
03801E
0FF03C
1FFC7C
3FFFF8
7C7FF8
781FE0
F00780
ENDCHAR
STARTCHAR 0300
ENCODING 768
SWIDTH 0 0
DWIDTH 0 0
BBX 10 12 -6 41
BITMAP
FC00
7E00
7E00
3E00
3F00
1F00
1F00
0F80
0F80
07C0
07C0
03C0
ENDCHAR
STARTCHAR 0301
ENCODING 769
SWIDTH 0 0
DWIDTH 0 0
BBX 14 12 -6 41
BITMAP
00FC
01F8
01F0
03F0
07E0
0FC0
0F80
1F00
3E00
3C00
7C00
F800
ENDCHAR
STARTCHAR 0302
ENCODING 770
SWIDTH 0 0
DWIDTH 0 0
BBX 21 9 -16 40
BITMAP
007E00
00FF00
03FF00
07FF80
0FCFC0
1F87E0
3F03E0
7E03F0
FC01F8
ENDCHAR
STARTCHAR 0303
ENCODING 771
SWIDTH 0 0
DWIDTH 0 0
BBX 23 7 -15 42
BITMAP
03801E
0FF03C
3FFC7C
3FFFF8
7C7FF0
F81FE0
F00780
ENDCHAR
STARTCHAR 0304
ENCODING 772
SWIDTH 0 0
DWIDTH 0 0
BBX 21 3 -17 43
BITMAP
7FFFF8
7FFFF8
FFFFF0
ENDCHAR
STARTCHAR 0306
ENCODING 774
SWIDTH 0 0
DWIDTH 0 0
BBX 22 7 -16 41
BITMAP
F8007C
F8007C
7C01F8
7F07F0
3FFFE0
1FFF80
07FE00
ENDCHAR
STARTCHAR 0307
ENCODING 775
SWIDTH 0 0
DWIDTH 0 0
BBX 7 7 -4 42
BITMAP
3C
7E
FE
FE
FE
FC
78
ENDCHAR
STARTCHAR 0308
ENCODING 776
SWIDTH 0 0
DWIDTH 0 0
BBX 20 7 -17 42
BITMAP
3C01E0
7E03F0
FE07F0
FE07F0
FE07F0
FC07E0
7803C0
ENDCHAR
STARTCHAR 0309
ENCODING 777
SWIDTH 0 0
DWIDTH 0 0
BBX 14 13 -8 41
BITMAP
03E0
1FF8
3FFC
7FFC
F83C
F03C
003C
007C
0078
01F0
03E0
0F80
0F00
ENDCHAR
STARTCHAR 030A
ENCODING 778
SWIDTH 0 0
DWIDTH 0 0
BBX 12 11 -7 41
BITMAP
1FC0
3FE0
78E0
6070
E070
E070
E0E0
E0E0
FFC0
7F80
3F00
ENDCHAR
STARTCHAR 030C
ENCODING 780
SWIDTH 0 0
DWIDTH 0 0
BBX 21 9 -16 40
BITMAP
FC01F8
7C03F0
7E07E0
3F0FC0
1F9F80
0FBF00
0FFE00
07FC00
03F800
ENDCHAR
STARTCHAR 031B
ENCODING 795
SWIDTH 0 0
DWIDTH 0 0
BBX 13 9 -7 37
BITMAP
00F8
00F8
00F0
01F0
01F0
03E0
FFE0
FFC0
FF00
ENDCHAR
STARTCHAR 0323
ENCODING 803
SWIDTH 0 0
DWIDTH 0 0
BBX 7 8 -10 -15
BITMAP
08
7E
FE
FE
FE
FE
FC
70
ENDCHAR
STARTCHAR 0327
ENCODING 807
SWIDTH 0 0
DWIDTH 0 0
BBX 12 17 -16 -17
BITMAP
1E00
1C00
3C00
3800
3FC0
7FE0
7FF0
0070
0070
0070
0070
00F0
01E0
FFE0
FFC0
FF00
3000
ENDCHAR
STARTCHAR 0328
ENCODING 808
SWIDTH 0 0
DWIDTH 0 0
BBX 10 12 -14 -12
BITMAP
0600
0F80
1F00
3C00
7800
7800
F000
F800
F800
7FC0
7FC0
3FC0
ENDCHAR
STARTCHAR 1E80
ENCODING 7808
SWIDTH 990 0
DWIDTH 66 0
BBX 64 63 9 0
BITMAP
0000007E00000000
0000007E00000000
0000003F00000000
0000003F00000000
0000001F00000000
0000001F80000000
0000000F80000000
0000000F80000000
00000007C0000000
00000007C0000000
00000003E0000000
00000003E0000000
0000000000000000
0000000000000000
0000000000000000
0000000000000000
FC000007E000003F
FC000007E000003F
FC00000FE000007E
FC00000FE000007E
FC00001FE000007C
FC00001FE00000FC
7C00003FF00000F8
7C00003FF00001F8
7C00007FF00001F8
7C00007FF00003F0
7E0000FDF00003F0
7E0000FDF00003E0
7E0001F9F80007E0
7E0001F9F80007C0
7E0003F1F8000FC0
7E0003F1F8000F80
3E0007E0F8001F80
3E0007E0F8001F80
3E000FC0F8001F00
3E000FC0FC003F00
3E001F80FC003E00
3F001F80FC007E00
3F003F00FC007C00
3F003F007C00FC00
3F007E007C00FC00
3F007E007E01F800
3F00FC007E01F800
1F00FC007E01F000
1F01F8007E03F000
1F01F8007E03E000
1F03F0003E07E000
1F03F0003E07C000
1F87E0003F0FC000
1F87E0003F0FC000
1F8FC0003F0F8000
1F8FC0003F1F8000
1F9F80003F1F0000
0F9F80001F3F0000
0FBF00001F3E0000
0FBF00001FFE0000
0FFE00001FFE0000
0FFE00001FFC0000
0FFC00001FFC0000
0FFC00000FF80000
0FF800000FF80000
0FF800000FF00000
0FF000000FF00000
ENDCHAR
STARTCHAR 1E81
ENCODING 7809
SWIDTH 810 0
DWIDTH 54 0
BBX 50 52 8 0
BITMAP
00003F00000000
00003F00000000
00001F80000000
00001F80000000
00000F80000000
00000FC0000000
000007C0000000
000007E0000000
000003E0000000
000003E0000000
000001F0000000
000001F0000000
00000000000000
00000000000000
00000000000000
00000000000000
00000000000000
FC0003F00007C0
FC0003F0000FC0
FC0007F0000F80
7C0007F0001F80
7C000FF8001F00
7C000FF8003F00
7C001FF8003E00
7C001FF8003E00
7E001FF8007E00
7E003EF8007C00
7E003EF800FC00
7E007EFC00F800
3E007CFC01F800
3E00FCFC01F000
3E00F87C03F000
3E01F87C03E000
3E01F07C03E000
3E03F07C07C000
3F03E07E07C000
3F07E07E0FC000
3F07C07E0F8000
1F0FC03E1F8000
1F0F803E1F0000
1F1F803E3F0000
1F1F003E3E0000
1F3F003E3E0000
1F3E003F7C0000
1F7E003F7C0000
1FFC003FFC0000
1FFC001FF80000
1FF8001FF80000
0FF8001FF00000
0FF0001FF00000
0FF0001FE00000
0FF0001FE00000
ENDCHAR
STARTCHAR 1E82
ENCODING 7810
SWIDTH 990 0
DWIDTH 66 0
BBX 64 63 9 0
BITMAP
0000000001F80000
0000000003F00000
0000000007E00000
0000000007C00000
000000000F800000
000000001F000000
000000003F000000
000000003E000000
000000007C000000
00000000F8000000
00000000F0000000
00000001E0000000
0000000000000000
0000000000000000
0000000000000000
0000000000000000
FC000007E000003F
FC000007E000003F
FC00000FE000007E
FC00000FE000007E
FC00001FE000007C
FC00001FE00000FC
7C00003FF00000F8
7C00003FF00001F8
7C00007FF00001F8
7C00007FF00003F0
7E0000FDF00003F0
7E0000FDF00003E0
7E0001F9F80007E0
7E0001F9F80007C0
7E0003F1F8000FC0
7E0003F1F8000F80
3E0007E0F8001F80
3E0007E0F8001F80
3E000FC0F8001F00
3E000FC0FC003F00
3E001F80FC003E00
3F001F80FC007E00
3F003F00FC007C00
3F003F007C00FC00
3F007E007C00FC00
3F007E007E01F800
3F00FC007E01F800
1F00FC007E01F000
1F01F8007E03F000
1F01F8007E03E000
1F03F0003E07E000
1F03F0003E07C000
1F87E0003F0FC000
1F87E0003F0FC000
1F8FC0003F0F8000
1F8FC0003F1F8000
1F9F80003F1F0000
0F9F80001F3F0000
0FBF00001F3E0000
0FBF00001FFE0000
0FFE00001FFE0000
0FFE00001FFC0000
0FFC00001FFC0000
0FFC00000FF80000
0FF800000FF80000
0FF800000FF00000
0FF000000FF00000
ENDCHAR
STARTCHAR 1E83
ENCODING 7811
SWIDTH 810 0
DWIDTH 54 0
BBX 50 52 8 0
BITMAP
00000000FC0000
00000000FC0000
00000001F80000
00000003F00000
00000007E00000
00000007C00000
0000000F800000
0000001F800000
0000001F000000
0000003E000000
0000007C000000
000000F8000000
00000000000000
00000000000000
00000000000000
00000000000000
00000000000000
FC0003F00007C0
FC0003F0000FC0
FC0007F0000F80
7C0007F0001F80
7C000FF8001F00
7C000FF8003F00
7C001FF8003E00
7C001FF8003E00
7E001FF8007E00
7E003EF8007C00
7E003EF800FC00
7E007EFC00F800
3E007CFC01F800
3E00FCFC01F000
3E00F87C03F000
3E01F87C03E000
3E01F07C03E000
3E03F07C07C000
3F03E07E07C000
3F07E07E0FC000
3F07C07E0F8000
1F0FC03E1F8000
1F0F803E1F0000
1F1F803E3F0000
1F1F003E3E0000
1F3F003E3E0000
1F3E003F7C0000
1F7E003F7C0000
1FFC003FFC0000
1FFC001FF80000
1FF8001FF80000
0FF8001FF00000
0FF0001FF00000
0FF0001FE00000
0FF0001FE00000
ENDCHAR
STARTCHAR 1E84
ENCODING 7812
SWIDTH 990 0
DWIDTH 66 0
BBX 64 61 9 0
BITMAP
0000001800C00000
0000007E03F00000
000000FE07F00000
000000FE07F00000
000000FE07F00000
000000FE07F00000
000000FC07E00000
0000007003800000
0000000000000000
0000000000000000
0000000000000000
0000000000000000
0000000000000000
0000000000000000
FC000007E000003F
FC000007E000003F
FC00000FE000007E
FC00000FE000007E
FC00001FE000007C
FC00001FE00000FC
7C00003FF00000F8
7C00003FF00001F8
7C00007FF00001F8
7C00007FF00003F0
7E0000FDF00003F0
7E0000FDF00003E0
7E0001F9F80007E0
7E0001F9F80007C0
7E0003F1F8000FC0
7E0003F1F8000F80
3E0007E0F8001F80
3E0007E0F8001F80
3E000FC0F8001F00
3E000FC0FC003F00
3E001F80FC003E00
3F001F80FC007E00
3F003F00FC007C00
3F003F007C00FC00
3F007E007C00FC00
3F007E007E01F800
3F00FC007E01F800
1F00FC007E01F000
1F01F8007E03F000
1F01F8007E03E000
1F03F0003E07E000
1F03F0003E07C000
1F87E0003F0FC000
1F87E0003F0FC000
1F8FC0003F0F8000
1F8FC0003F1F8000
1F9F80003F1F0000
0F9F80001F3F0000
0FBF00001F3E0000
0FBF00001FFE0000
0FFE00001FFE0000
0FFE00001FFC0000
0FFC00001FFC0000
0FFC00000FF80000
0FF800000FF80000
0FF800000FF00000
0FF000000FF00000
ENDCHAR
STARTCHAR 1E85
ENCODING 7813
SWIDTH 810 0
DWIDTH 54 0
BBX 50 49 8 0
BITMAP
00001E00F00000
00003F01F80000
00007F03FC0000
00007F03FC0000
00007F03F80000
00007F03F80000
00003C01F00000
00000000000000
00000000000000
00000000000000
00000000000000
00000000000000
00000000000000
00000000000000
FC0003F00007C0
FC0003F0000FC0
FC0007F0000F80
7C0007F0001F80
7C000FF8001F00
7C000FF8003F00
7C001FF8003E00
7C001FF8003E00
7E001FF8007E00
7E003EF8007C00
7E003EF800FC00
7E007EFC00F800
3E007CFC01F800
3E00FCFC01F000
3E00F87C03F000
3E01F87C03E000
3E01F07C03E000
3E03F07C07C000
3F03E07E07C000
3F07E07E0FC000
3F07C07E0F8000
1F0FC03E1F8000
1F0F803E1F0000
1F1F803E3F0000
1F1F003E3E0000
1F3F003E3E0000
1F3E003F7C0000
1F7E003F7C0000
1FFC003FFC0000
1FFC001FF80000
1FF8001FF80000
0FF8001FF00000
0FF0001FF00000
0FF0001FE00000
0FF0001FE00000
ENDCHAR
STARTCHAR 1EA0
ENCODING 7840
SWIDTH 675 0
DWIDTH 45 0
BBX 40 62 3 -15
BITMAP
0000007C00
000000FE00
000000FE00
000001FE00
000001FE00
000003FE00
000007FF00
000007FF00
00000FDF00
00000F9F00
00001F9F00
00001F1F80
00003F1F80
00003E0F80
00007E0F80
00007C0F80
0000FC0FC0
0001F80FC0
0001F007C0
0003F007C0
0003E007E0
0007E007E0
0007C007E0
000FC003E0
000F8003E0
001F8003F0
001F0003F0
003F0003F0
007E0001F0
007FFFFFF0
00FFFFFFF8
00FFFFFFF8
01FFFFFFF8
01F00000F8
03F00000F8
03E00000FC
07E00000FC
07C00000FC
0FC000007C
1F8000007E
1F8000007E
3F0000007E
3F0000007E
7E0000003E
7E0000003F
FC0000003F
FC0000003F
0000000000
0000000000
0000000000
0000000000
0000000000
0000000000
0000000000
0000200000
0000F80000
0001F80000
0003FC0000
0003F80000
0003F80000
0003F00000
0000E00000
ENDCHAR
STARTCHAR 1EA1
ENCODING 7841
SWIDTH 600 0
DWIDTH 40 0
BBX 37 51 5 -15
BITMAP
0003FE0000
000FFF81F8
003FFFC1F0
007FFFE3F0
00FFFFF3F0
01FF01F3F0
03FC007BF0
07F0003FF0
0FE0001FE0
0FC0001FE0
1F80001FE0
1F80000FE0
3F00000FE0
3F00000FC0
7E00000FC0
7E00000FC0
7E00000FC0
7E00000FC0
FC00000FC0
FC00001F80
FC00001F80
FC00001F80
FC00001F80
FC00003F80
FC00003F80
FE00007F00
FE0000FF00
7E0001FF00
7F0003FF00
7F8007BF00
3FC01F3F00
3FFFFF3E00
1FFFFC7E00
0FFFF87E00
07FFF07E00
01FFC07E00
0000000000
0000000000
0000000000
0000000000
0000000000
0000000000
0000000000
0004000000
001F000000
003F800000
003F800000
007F800000
003F000000
003F000000
001C000000
ENDCHAR
STARTCHAR 1EA2
ENCODING 7842
SWIDTH 675 0
DWIDTH 45 0
BBX 40 64 3 0
BITMAP
0000000780
0000003FE0
0000007FF0
000000FFF8
000001F0F8
000003E0F8
00000000F8
00000000F0
00000001F0
00000003E0
0000000F80
0000001F00
0000003E00
0000000000
0000000000
0000000000
0000000000
0000007C00
000000FE00
000000FE00
000001FE00
000001FE00
000003FE00
000007FF00
000007FF00
00000FDF00
00000F9F00
00001F9F00
00001F1F80
00003F1F80
00003E0F80
00007E0F80
00007C0F80
0000FC0FC0
0001F80FC0
0001F007C0
0003F007C0
0003E007E0
0007E007E0
0007C007E0
000FC003E0
000F8003E0
001F8003F0
001F0003F0
003F0003F0
007E0001F0
007FFFFFF0
00FFFFFFF8
00FFFFFFF8
01FFFFFFF8
01F00000F8
03F00000F8
03E00000FC
07E00000FC
07C00000FC
0FC000007C
1F8000007E
1F8000007E
3F0000007E
3F0000007E
7E0000003E
7E0000003F
FC0000003F
FC0000003F
ENDCHAR
STARTCHAR 1EA3
ENCODING 7843
SWIDTH 600 0
DWIDTH 40 0
BBX 37 52 5 0
BITMAP
00000FE000
00003FF800
00007FFC00
00007C7C00
0000F83C00
0000003C00
0000003C00
0000007800
000000F000
000003E000
000007C000
00000F8000
0000000000
0000000000
0000000000
0000000000
0003FE0000
000FFF81F8
003FFFC1F0
007FFFE3F0
00FFFFF3F0
01FF01F3F0
03FC007BF0
07F0003FF0
0FE0001FE0
0FC0001FE0
1F80001FE0
1F80000FE0
3F00000FE0
3F00000FC0
7E00000FC0
7E00000FC0
7E00000FC0
7E00000FC0
FC00000FC0
FC00001F80
FC00001F80
FC00001F80
FC00001F80
FC00003F80
FC00003F80
FE00007F00
FE0000FF00
7E0001FF00
7F0003FF00
7F8007BF00
3FC01F3F00
3FFFFF3E00
1FFFFC7E00
0FFFF87E00
07FFF07E00
01FFC07E00
ENDCHAR
STARTCHAR 1EA4
ENCODING 7844
SWIDTH 675 0
DWIDTH 45 0
BBX 52 71 3 0
BITMAP
000000000007F0
000000000007C0
00000000000FC0
00000000001F80
00000000003F00
00000000003E00
00000000007C00
0000000000F800
0000000000F800
0000000001F000
0000001F83E000
0000003F87C000
0000007FC00000
000000FFE00000
000001FBF00000
000003F1F00000
000007C1F80000
00000F80FC0000
00001F007C0000
00003E007E0000
00000000000000
00000000000000
00000000000000
00000000000000
0000007C000000
000000FE000000
000000FE000000
000001FE000000
000001FE000000
000003FE000000
000007FF000000
000007FF000000
00000FDF000000
00000F9F000000
00001F9F000000
00001F1F800000
00003F1F800000
00003E0F800000
00007E0F800000
00007C0F800000
0000FC0FC00000
0001F80FC00000
0001F007C00000
0003F007C00000
0003E007E00000
0007E007E00000
0007C007E00000
000FC003E00000
000F8003E00000
001F8003F00000
001F0003F00000
003F0003F00000
007E0001F00000
007FFFFFF00000
00FFFFFFF80000
00FFFFFFF80000
01FFFFFFF80000
01F00000F80000
03F00000F80000
03E00000FC0000
07E00000FC0000
07C00000FC0000
0FC000007C0000
1F8000007E0000
1F8000007E0000
3F0000007E0000
3F0000007E0000
7E0000003E0000
7E0000003F0000
FC0000003F0000
FC0000003F0000
ENDCHAR
STARTCHAR 1EA5
ENCODING 7845
SWIDTH 600 0
DWIDTH 40 0
BBX 45 60 5 0
BITMAP
0000000001F8
0000000003F0
0000000003E0
0000000007E0
000000000FC0
000000001F80
000000001F00
000000003E00
000000007C00
000000007C00
00000000F800
00000FC1F000
00001FE00000
00003FF00000
00007FF80000
0000F8F80000
0001F0FC0000
0003E07E0000
000FC03E0000
001F803F0000
000000000000
000000000000
000000000000
000000000000
0003FE000000
000FFF81F800
003FFFC1F000
007FFFE3F000
00FFFFF3F000
01FF01F3F000
03FC007BF000
07F0003FF000
0FE0001FE000
0FC0001FE000
1F80001FE000
1F80000FE000
3F00000FE000
3F00000FC000
7E00000FC000
7E00000FC000
7E00000FC000
7E00000FC000
FC00000FC000
FC00001F8000
FC00001F8000
FC00001F8000
FC00001F8000
FC00003F8000
FC00003F8000
FE00007F0000
FE0000FF0000
7E0001FF0000
7F0003FF0000
7F8007BF0000
3FC01F3F0000
3FFFFF3E0000
1FFFFC7E0000
0FFFF87E0000
07FFF07E0000
01FFC07E0000
ENDCHAR
STARTCHAR 1EA6
ENCODING 7846
SWIDTH 675 0
DWIDTH 45 0
BBX 42 71 3 0
BITMAP
00000000FC00
00000000FC00
000000007E00
000000007E00
000000003E00
000000003F00
000000001F00
000000001F80
000000000F80
000000000F80
0000001F87C0
0000003F87C0
0000007FC000
000000FFE000
000001FBF000
000003F1F000
000007C1F800
00000F80FC00
00001F007E00
00003E007E00
000000000000
000000000000
000000000000
000000000000
0000007C0000
000000FE0000
000000FE0000
000001FE0000
000001FE0000
000003FE0000
000007FF0000
000007FF0000
00000FDF0000
00000F9F0000
00001F9F0000
00001F1F8000
00003F1F8000
00003E0F8000
00007E0F8000
00007C0F8000
0000FC0FC000
0001F80FC000
0001F007C000
0003F007C000
0003E007E000
0007E007E000
0007C007E000
000FC003E000
000F8003E000
001F8003F000
001F0003F000
003F0003F000
007E0001F000
007FFFFFF000
00FFFFFFF800
00FFFFFFF800
01FFFFFFF800
01F00000F800
03F00000F800
03E00000FC00
07E00000FC00
07C00000FC00
0FC000007C00
1F8000007E00
1F8000007E00
3F0000007E00
3F0000007E00
7E0000003E00
7E0000003F00
FC0000003F00
FC0000003F00
ENDCHAR
STARTCHAR 1EA7
ENCODING 7847
SWIDTH 600 0
DWIDTH 40 0
BBX 37 60 5 0
BITMAP
0000007E00
0000007E00
0000003F00
0000003F00
0000001F80
0000001F80
0000000F80
0000000FC0
00000007C0
00000007C0
00000003E0
00000FC3E0
00001FE000
00003FF000
00007DF000
0000F9F800
0001F0FC00
0007E07E00
000FC03E00
001F803F00
0000000000
0000000000
0000000000
0000000000
0003FE0000
000FFF81F8
003FFFC1F0
007FFFE3F0
00FFFFF3F0
01FF01F3F0
03FC007BF0
07F0003FF0
0FE0001FE0
0FC0001FE0
1F80001FE0
1F80000FE0
3F00000FE0
3F00000FC0
7E00000FC0
7E00000FC0
7E00000FC0
7E00000FC0
FC00000FC0
FC00001F80
FC00001F80
FC00001F80
FC00001F80
FC00003F80
FC00003F80
FE00007F00
FE0000FF00
7E0001FF00
7F0003FF00
7F8007BF00
3FC01F3F00
3FFFFF3E00
1FFFFC7E00
0FFFF87E00
07FFF07E00
01FFC07E00
ENDCHAR
STARTCHAR 1EA8
ENCODING 7848
SWIDTH 675 0
DWIDTH 45 0
BBX 48 72 3 0
BITMAP
0000000003F8
000000000FFE
000000001FFE
000000001F3F
000000003E1F
000000003C0F
00000000001F
00000000001E
00000000003C
000000000078
0000000001F0
0000001F83E0
0000003F8000
0000007FC000
000000FFE000
000001FBF000
000003F1F000
000007C1F800
00000F80FC00
00001F007C00
00003E007E00
000000000000
000000000000
000000000000
000000000000
0000007C0000
000000FE0000
000000FE0000
000001FE0000
000001FE0000
000003FE0000
000007FF0000
000007FF0000
00000FDF0000
00000F9F0000
00001F9F0000
00001F1F8000
00003F1F8000
00003E0F8000
00007E0F8000
00007C0F8000
0000FC0FC000
0001F80FC000
0001F007C000
0003F007C000
0003E007E000
0007E007E000
0007C007E000
000FC003E000
000F8003E000
001F8003F000
001F0003F000
003F0003F000
007E0001F000
007FFFFFF000
00FFFFFFF800
00FFFFFFF800
01FFFFFFF800
01F00000F800
03F00000F800
03E00000FC00
07E00000FC00
07C00000FC00
0FC000007C00
1F8000007E00
1F8000007E00
3F0000007E00
3F0000007E00
7E0000003E00
7E0000003F00
FC0000003F00
FC0000003F00
ENDCHAR
STARTCHAR 1EA9
ENCODING 7849
SWIDTH 600 0
DWIDTH 40 0
BBX 41 61 5 0
BITMAP
000000002000
00000001FE00
00000007FF00
0000000FFF80
0000000F0F80
0000001F0780
000000000780
000000000780
000000000F00
000000001E00
000000007C00
00000000F800
00000FC1F000
00001FE00000
00003FF00000
00007FF80000
0000F8F80000
0001F0FC0000
0003E07E0000
000FC03E0000
001F803F0000
000000000000
000000000000
000000000000
000000000000
0003FE000000
000FFF81F800
003FFFC1F000
007FFFE3F000
00FFFFF3F000
01FF01F3F000
03FC007BF000
07F0003FF000
0FE0001FE000
0FC0001FE000
1F80001FE000
1F80000FE000
3F00000FE000
3F00000FC000
7E00000FC000
7E00000FC000
7E00000FC000
7E00000FC000
FC00000FC000
FC00001F8000
FC00001F8000
FC00001F8000
FC00001F8000
FC00003F8000
FC00003F8000
FE00007F0000
FE0000FF0000
7E0001FF0000
7F0003FF0000
7F8007BF0000
3FC01F3F0000
3FFFFF3E0000
1FFFFC7E0000
0FFFF87E0000
07FFF07E0000
01FFC07E0000
ENDCHAR
STARTCHAR 1EAA
ENCODING 7850
SWIDTH 675 0
DWIDTH 45 0
BBX 41 71 3 0
BITMAP
000000700380
000003FE0780
000007FF0F80
00000FFFFF00
00000F9FFE00
00001E07FC00
00001E01F000
000000000000
000000000000
000000000000
0000001F8000
0000003F8000
0000007FC000
000000FFE000
000001FBF000
000003F1F000
000007C1F800
00000F80FC00
00001F007C00
00003E007E00
000000000000
000000000000
000000000000
000000000000
0000007C0000
000000FE0000
000000FE0000
000001FE0000
000001FE0000
000003FE0000
000007FF0000
000007FF0000
00000FDF0000
00000F9F0000
00001F9F0000
00001F1F8000
00003F1F8000
00003E0F8000
00007E0F8000
00007C0F8000
0000FC0FC000
0001F80FC000
0001F007C000
0003F007C000
0003E007E000
0007E007E000
0007C007E000
000FC003E000
000F8003E000
001F8003F000
001F0003F000
003F0003F000
007E0001F000
007FFFFFF000
00FFFFFFF800
00FFFFFFF800
01FFFFFFF800
01F00000F800
03F00000F800
03E00000FC00
07E00000FC00
07C00000FC00
0FC000007C00
1F8000007E00
1F8000007E00
3F0000007E00
3F0000007E00
7E0000003E00
7E0000003F00
FC0000003F00
FC0000003F00
ENDCHAR
STARTCHAR 1EAB
ENCODING 7851
SWIDTH 600 0
DWIDTH 40 0
BBX 37 59 5 0
BITMAP
00007E01E0
0001FF83C0
0003FFFFC0
0007FFFF80
000783FF00
000F00FE00
0000000000
0000000000
0000000000
0000000000
00000FC000
00001FE000
00003FF000
00007FF800
0000F8F800
0001F0FC00
0003E07E00
000FC03E00
001F803F00
0000000000
0000000000
0000000000
0000000000
0003FE0000
000FFF81F8
003FFFC1F0
007FFFE3F0
00FFFFF3F0
01FF01F3F0
03FC007BF0
07F0003FF0
0FE0001FE0
0FC0001FE0
1F80001FE0
1F80000FE0
3F00000FE0
3F00000FC0
7E00000FC0
7E00000FC0
7E00000FC0
7E00000FC0
FC00000FC0
FC00001F80
FC00001F80
FC00001F80
FC00001F80
FC00003F80
FC00003F80
FE00007F00
FE0000FF00
7E0001FF00
7F0003FF00
7F8007BF00
3FC01F3F00
3FFFFF3E00
1FFFFC7E00
0FFFF87E00
07FFF07E00
01FFC07E00
ENDCHAR
STARTCHAR 1EAC
ENCODING 7852
SWIDTH 675 0
DWIDTH 45 0
BBX 40 76 3 -15
BITMAP
0000001F80
0000003F80
0000007FC0
000000FFE0
000001FBF0
000003F1F0
000007E1F8
00000F80FC
00001F007E
00003E003E
0000000000
0000000000
0000000000
0000000000
0000007C00
000000FE00
000000FE00
000001FE00
000001FE00
000003FE00
000007FF00
000007FF00
00000FDF00
00000F9F00
00001F9F00
00001F1F80
00003F1F80
00003E0F80
00007E0F80
00007C0F80
0000FC0FC0
0001F80FC0
0001F007C0
0003F007C0
0003E007E0
0007E007E0
0007C007E0
000FC003E0
000F8003E0
001F8003F0
001F0003F0
003F0003F0
007E0001F0
007FFFFFF0
00FFFFFFF8
00FFFFFFF8
01FFFFFFF8
01F00000F8
03F00000F8
03E00000FC
07E00000FC
07C00000FC
0FC000007C
1F8000007E
1F8000007E
3F0000007E
3F0000007E
7E0000003E
7E0000003F
FC0000003F
FC0000003F
0000000000
0000000000
0000000000
0000000000
0000000000
0000000000
0000000000
0000200000
0000F80000
0001F80000
0003FC0000
0003F80000
0003F80000
0003F00000
0000E00000
ENDCHAR
STARTCHAR 1EAD
ENCODING 7853
SWIDTH 600 0
DWIDTH 40 0
BBX 37 64 5 -15
BITMAP
00000FC000
00001FE000
00003FF000
00007FF800
0000F8F800
0001F0FC00
0003E07E00
000FC03E00
001F803F00
0000000000
0000000000
0000000000
0000000000
0003FE0000
000FFF81F8
003FFFC1F0
007FFFE3F0
00FFFFF3F0
01FF01F3F0
03FC007BF0
07F0003FF0
0FE0001FE0
0FC0001FE0
1F80001FE0
1F80000FE0
3F00000FE0
3F00000FC0
7E00000FC0
7E00000FC0
7E00000FC0
7E00000FC0
FC00000FC0
FC00001F80
FC00001F80
FC00001F80
FC00001F80
FC00003F80
FC00003F80
FE00007F00
FE0000FF00
7E0001FF00
7F0003FF00
7F8007BF00
3FC01F3F00
3FFFFF3E00
1FFFFC7E00
0FFFF87E00
07FFF07E00
01FFC07E00
0000000000
0000000000
0000000000
0000000000
0000000000
0000000000
0000000000
0004000000
001F000000
003F800000
003F800000
007F800000
003F000000
003F000000
001C000000
ENDCHAR
STARTCHAR 1EAE
ENCODING 7854
SWIDTH 675 0
DWIDTH 45 0
BBX 42 73 3 0
BITMAP
000000000FC0
000000001F80
000000001F80
000000003F00
000000007E00
000000007C00
00000000F800
00000001F000
00000003E000
00000003E000
00000007C000
0000000F8000
000000000000
000000000000
00001F001F00
00001F001F00
00000F807E00
00000FFFFC00
000007FFF000
000001FFE000
0000007F0000
000000000000
000000000000
000000000000
000000000000
000000000000
0000007C0000
000000FE0000
000000FE0000
000001FE0000
000001FE0000
000003FE0000
000007FF0000
000007FF0000
00000FDF0000
00000F9F0000
00001F9F0000
00001F1F8000
00003F1F8000
00003E0F8000
00007E0F8000
00007C0F8000
0000FC0FC000
0001F80FC000
0001F007C000
0003F007C000
0003E007E000
0007E007E000
0007C007E000
000FC003E000
000F8003E000
001F8003F000
001F0003F000
003F0003F000
007E0001F000
007FFFFFF000
00FFFFFFF800
00FFFFFFF800
01FFFFFFF800
01F00000F800
03F00000F800
03E00000FC00
07E00000FC00
07C00000FC00
0FC000007C00
1F8000007E00
1F8000007E00
3F0000007E00
3F0000007E00
7E0000003E00
7E0000003F00
FC0000003F00
FC0000003F00
ENDCHAR
STARTCHAR 1EAF
ENCODING 7855
SWIDTH 600 0
DWIDTH 40 0
BBX 37 61 5 0
BITMAP
00000007E0
0000000FC0
0000000F80
0000001F80
0000003F00
0000003E00
0000007C00
000000F800
000001F000
000001F000
000003E000
000007C000
0000000000
000F8007C0
000F800FC0
0007C01F80
0007F07F00
0003FFFE00
0001FFF800
00007FE000
0000000000
0000000000
0000000000
0000000000
0000000000
0003FE0000
000FFF81F8
003FFFC1F0
007FFFE3F0
00FFFFF3F0
01FF01F3F0
03FC007BF0
07F0003FF0
0FE0001FE0
0FC0001FE0
1F80001FE0
1F80000FE0
3F00000FE0
3F00000FC0
7E00000FC0
7E00000FC0
7E00000FC0
7E00000FC0
FC00000FC0
FC00001F80
FC00001F80
FC00001F80
FC00001F80
FC00003F80
FC00003F80
FE00007F00
FE0000FF00
7E0001FF00
7F0003FF00
7F8007BF00
3FC01F3F00
3FFFFF3E00
1FFFFC7E00
0FFFF87E00
07FFF07E00
01FFC07E00
ENDCHAR
STARTCHAR 1EB0
ENCODING 7856
SWIDTH 675 0
DWIDTH 45 0
BBX 41 73 3 0
BITMAP
000003F00000
000003F00000
000001F80000
000001F80000
000000F80000
000000FC0000
0000007C0000
0000007E0000
0000003E0000
0000003E0000
0000001F0000
0000001F0000
000000000000
000000000000
00001F000F80
00001F001F00
00000FC07E00
000007FFFC00
000007FFF800
000001FFE000
0000007F0000
000000000000
000000000000
000000000000
000000000000
000000000000
0000007C0000
000000FE0000
000000FE0000
000001FE0000
000001FE0000
000003FE0000
000007FF0000
000007FF0000
00000FDF0000
00000F9F0000
00001F9F0000
00001F1F8000
00003F1F8000
00003E0F8000
00007E0F8000
00007C0F8000
0000FC0FC000
0001F80FC000
0001F007C000
0003F007C000
0003E007E000
0007E007E000
0007C007E000
000FC003E000
000F8003E000
001F8003F000
001F0003F000
003F0003F000
007E0001F000
007FFFFFF000
00FFFFFFF800
00FFFFFFF800
01FFFFFFF800
01F00000F800
03F00000F800
03E00000FC00
07E00000FC00
07C00000FC00
0FC000007C00
1F8000007E00
1F8000007E00
3F0000007E00
3F0000007E00
7E0000003E00
7E0000003F00
FC0000003F00
FC0000003F00
ENDCHAR
STARTCHAR 1EB1
ENCODING 7857
SWIDTH 600 0
DWIDTH 40 0
BBX 37 61 5 0
BITMAP
0001F80000
0000FC0000
0000FC0000
00007C0000
00007E0000
00003E0000
00003F0000
00001F0000
00001F0000
00000F8000
00000F8000
0000078000
0000000000
000F8007C0
000F8007C0
0007C01F80
0007F07F00
0003FFFE00
0001FFF800
00007FE000
0000000000
0000000000
0000000000
0000000000
0000000000
0003FE0000
000FFF81F8
003FFFC1F0
007FFFE3F0
00FFFFF3F0
01FF01F3F0
03FC007BF0
07F0003FF0
0FE0001FE0
0FC0001FE0
1F80001FE0
1F80000FE0
3F00000FE0
3F00000FC0
7E00000FC0
7E00000FC0
7E00000FC0
7E00000FC0
FC00000FC0
FC00001F80
FC00001F80
FC00001F80
FC00001F80
FC00003F80
FC00003F80
FE00007F00
FE0000FF00
7E0001FF00
7F0003FF00
7F8007BF00
3FC01F3F00
3FFFFF3E00
1FFFFC7E00
0FFFF87E00
07FFF07E00
01FFC07E00
ENDCHAR
STARTCHAR 1EB2
ENCODING 7858
SWIDTH 675 0
DWIDTH 45 0
BBX 40 73 3 0
BITMAP
0000000FF0
0000001FF8
0000003FFC
0000007C7C
000000F83C
000000003C
000000003C
000000007C
00000000F8
00000001F0
00000007C0
0000000F80
0000000000
0000000000
00001F001F
00001F001F
00000F807E
00000FFFFC
000007FFF0
000001FFE0
0000007F00
0000000000
0000000000
0000000000
0000000000
0000000000
0000007C00
000000FE00
000000FE00
000001FE00
000001FE00
000003FE00
000007FF00
000007FF00
00000FDF00
00000F9F00
00001F9F00
00001F1F80
00003F1F80
00003E0F80
00007E0F80
00007C0F80
0000FC0FC0
0001F80FC0
0001F007C0
0003F007C0
0003E007E0
0007E007E0
0007C007E0
000FC003E0
000F8003E0
001F8003F0
001F0003F0
003F0003F0
007E0001F0
007FFFFFF0
00FFFFFFF8
00FFFFFFF8
01FFFFFFF8
01F00000F8
03F00000F8
03E00000FC
07E00000FC
07C00000FC
0FC000007C
1F8000007E
1F8000007E
3F0000007E
3F0000007E
7E0000003E
7E0000003F
FC0000003F
FC0000003F
ENDCHAR
STARTCHAR 1EB3
ENCODING 7859
SWIDTH 600 0
DWIDTH 40 0
BBX 37 62 5 0
BITMAP
000000E000
000007FC00
00001FFE00
00001FFE00
00003E1F00
00007C1F00
0000001E00
0000001E00
0000003E00
0000007C00
000001F000
000003E000
000007C000
0000000000
000F8007C0
000F800FC0
0007C01F80
0007F07F00
0003FFFE00
0001FFF800
00007FE000
0000000000
0000000000
0000000000
0000000000
0000000000
0003FE0000
000FFF81F8
003FFFC1F0
007FFFE3F0
00FFFFF3F0
01FF01F3F0
03FC007BF0
07F0003FF0
0FE0001FE0
0FC0001FE0
1F80001FE0
1F80000FE0
3F00000FE0
3F00000FC0
7E00000FC0
7E00000FC0
7E00000FC0
7E00000FC0
FC00000FC0
FC00001F80
FC00001F80
FC00001F80
FC00001F80
FC00003F80
FC00003F80
FE00007F00
FE0000FF00
7E0001FF00
7F0003FF00
7F8007BF00
3FC01F3F00
3FFFFF3E00
1FFFFC7E00
0FFFF87E00
07FFF07E00
01FFC07E00
ENDCHAR
STARTCHAR 1EB4
ENCODING 7860
SWIDTH 675 0
DWIDTH 45 0
BBX 42 70 3 0
BITMAP
0000007803C0
000001FE03C0
000003FF8780
000007FFFF80
00000F8FFF00
00000F03FE00
00000E007800
000000000000
000000000000
000000000000
000000000000
00003F001F00
00001F003F00
00000F807E00
00000FFFFC00
000007FFF000
000001FFE000
0000007F0000
000000000000
000000000000
000000000000
000000000000
000000000000
0000007C0000
000000FE0000
000000FE0000
000001FE0000
000001FE0000
000003FE0000
000007FF0000
000007FF0000
00000FDF0000
00000F9F0000
00001F9F0000
00001F1F8000
00003F1F8000
00003E0F8000
00007E0F8000
00007C0F8000
0000FC0FC000
0001F80FC000
0001F007C000
0003F007C000
0003E007E000
0007E007E000
0007C007E000
000FC003E000
000F8003E000
001F8003F000
001F0003F000
003F0003F000
007E0001F000
007FFFFFF000
00FFFFFFF800
00FFFFFFF800
01FFFFFFF800
01F00000F800
03F00000F800
03E00000FC00
07E00000FC00
07C00000FC00
0FC000007C00
1F8000007E00
1F8000007E00
3F0000007E00
3F0000007E00
7E0000003E00
7E0000003F00
FC0000003F00
FC0000003F00
ENDCHAR
STARTCHAR 1EB5
ENCODING 7861
SWIDTH 600 0
DWIDTH 40 0
BBX 37 58 5 0
BITMAP
00007F01E0
0000FF81E0
0001FFFFC0
0003FFFFC0
0007C3FF80
000780FE00
0000000000
0000000000
0000000000
0000000000
000F8007C0
000F800F80
000FC01F00
0007F07E00
0003FFFC00
0001FFF800
00007FE000
0000000000
0000000000
0000000000
0000000000
0000000000
0003FE0000
000FFF81F8
003FFFC1F0
007FFFE3F0
00FFFFF3F0
01FF01F3F0
03FC007BF0
07F0003FF0
0FE0001FE0
0FC0001FE0
1F80001FE0
1F80000FE0
3F00000FE0
3F00000FC0
7E00000FC0
7E00000FC0
7E00000FC0
7E00000FC0
FC00000FC0
FC00001F80
FC00001F80
FC00001F80
FC00001F80
FC00003F80
FC00003F80
FE00007F00
FE0000FF00
7E0001FF00
7F0003FF00
7F8007BF00
3FC01F3F00
3FFFFF3E00
1FFFFC7E00
0FFFF87E00
07FFF07E00
01FFC07E00
ENDCHAR
STARTCHAR 1EB6
ENCODING 7862
SWIDTH 675 0
DWIDTH 45 0
BBX 40 74 3 -15
BITMAP
00001F001F
00001F001F
00000F807E
00000FFFFC
000007FFF0
000001FFE0
0000007F00
0000000000
0000000000
0000000000
0000000000
0000000000
0000007C00
000000FE00
000000FE00
000001FE00
000001FE00
000003FE00
000007FF00
000007FF00
00000FDF00
00000F9F00
00001F9F00
00001F1F80
00003F1F80
00003E0F80
00007E0F80
00007C0F80
0000FC0FC0
0001F80FC0
0001F007C0
0003F007C0
0003E007E0
0007E007E0
0007C007E0
000FC003E0
000F8003E0
001F8003F0
001F0003F0
003F0003F0
007E0001F0
007FFFFFF0
00FFFFFFF8
00FFFFFFF8
01FFFFFFF8
01F00000F8
03F00000F8
03E00000FC
07E00000FC
07C00000FC
0FC000007C
1F8000007E
1F8000007E
3F0000007E
3F0000007E
7E0000003E
7E0000003F
FC0000003F
FC0000003F
0000000000
0000000000
0000000000
0000000000
0000000000
0000000000
0000000000
0000200000
0000F80000
0001F80000
0003FC0000
0003F80000
0003F80000
0003F00000
0000E00000
ENDCHAR
STARTCHAR 1EB7
ENCODING 7863
SWIDTH 600 0
DWIDTH 40 0
BBX 37 63 5 -15
BITMAP
000F8007C0
000F800F80
0007C01F80
0007F07F00
0003FFFE00
0001FFF800
00007FE000
0000000000
0000000000
0000000000
0000000000
0000000000
0003FE0000
000FFF81F8
003FFFC1F0
007FFFE3F0
00FFFFF3F0
01FF01F3F0
03FC007BF0
07F0003FF0
0FE0001FE0
0FC0001FE0
1F80001FE0
1F80000FE0
3F00000FE0
3F00000FC0
7E00000FC0
7E00000FC0
7E00000FC0
7E00000FC0
FC00000FC0
FC00001F80
FC00001F80
FC00001F80
FC00001F80
FC00003F80
FC00003F80
FE00007F00
FE0000FF00
7E0001FF00
7F0003FF00
7F8007BF00
3FC01F3F00
3FFFFF3E00
1FFFFC7E00
0FFFF87E00
07FFF07E00
01FFC07E00
0000000000
0000000000
0000000000
0000000000
0000000000
0000000000
0000000000
0004000000
001F000000
003F800000
003F800000
007F800000
003F000000
003F000000
001C000000
ENDCHAR
STARTCHAR 1EB8
ENCODING 7864
SWIDTH 555 0
DWIDTH 37 0
BBX 37 62 5 -15
BITMAP
00FFFFFFF8
00FFFFFFF8
00FFFFFFF0
01FFFFFFF0
01FFFFFFF0
01FFFFFFF0
01F8000000
01F8000000
01F0000000
03F0000000
03F0000000
03F0000000
03F0000000
03F0000000
03E0000000
07E0000000
07E0000000
07E0000000
07E0000000
07E0000000
0FC0000000
0FFFFFFC00
0FFFFFFC00
0FFFFFFC00
0FFFFFFC00
0FFFFFFC00
1F80000000
1F80000000
1F80000000
1F80000000
1F80000000
1F00000000
3F00000000
3F00000000
3F00000000
3F00000000
3F00000000
3E00000000
7E00000000
7E00000000
7E00000000
7E00000000
7FFFFFF800
7FFFFFF800
FFFFFFF800
FFFFFFF800
FFFFFFF800
0000000000
0000000000
0000000000
0000000000
0000000000
0000000000
0000000000
0004000000
003F000000
007F000000
007F000000
007F000000
007F000000
007E000000
003C000000
ENDCHAR
STARTCHAR 1EB9
ENCODING 7865
SWIDTH 555 0
DWIDTH 37 0
BBX 33 51 5 -15
BITMAP
0001FFE000
000FFFF800
003FFFFC00
007FFFFE00
00FF83FF00
03FC007F00
03F0003F80
07E0001F80
0FC0001F80
1F80000F80
1F80001F80
3F00001F80
3F00001F80
3E00003F00
7E00007F00
7E000FFE00
7FFFFFFC00
7FFFFFF000
7FFFFFC000
FFFFF80000
FC00000000
FC00000000
FC00000000
FC00000000
7C00000000
7E00007E00
7E00007C00
7E0000FC00
3F0001F800
3F8007F800
1FE00FF000
1FFFFFE000
0FFFFFC000
07FFFF0000
01FFFE0000
007FF00000
0000000000
0000000000
0000000000
0000000000
0000000000
0000000000
0000000000
0001000000
0007C00000
000FE00000
000FE00000
001FE00000
001FC00000
000FC00000
0007000000
ENDCHAR
STARTCHAR 1EBA
ENCODING 7866
SWIDTH 555 0
DWIDTH 37 0
BBX 37 64 5 0
BITMAP
000000E000
00000FFC00
00001FFE00
00003FFE00
00003C1E00
00007C1E00
0000001E00
0000001E00
0000003C00
0000007800
000001F000
000003E000
000007C000
0000000000
0000000000
0000000000
0000000000
00FFFFFFF8
00FFFFFFF8
00FFFFFFF0
01FFFFFFF0
01FFFFFFF0
01FFFFFFF0
01F8000000
01F8000000
01F0000000
03F0000000
03F0000000
03F0000000
03F0000000
03F0000000
03E0000000
07E0000000
07E0000000
07E0000000
07E0000000
07E0000000
0FC0000000
0FFFFFFC00
0FFFFFFC00
0FFFFFFC00
0FFFFFFC00
0FFFFFFC00
1F80000000
1F80000000
1F80000000
1F80000000
1F80000000
1F00000000
3F00000000
3F00000000
3F00000000
3F00000000
3F00000000
3E00000000
7E00000000
7E00000000
7E00000000
7E00000000
7FFFFFF800
7FFFFFF800
FFFFFFF800
FFFFFFF800
FFFFFFF800
ENDCHAR
STARTCHAR 1EBB
ENCODING 7867
SWIDTH 555 0
DWIDTH 37 0
BBX 33 52 5 0
BITMAP
00000FF000
00003FF800
00007FFC00
00007C7C00
0000F83C00
0000003C00
0000003C00
0000007800
000000F800
000001E000
000007C000
00000F8000
0000000000
0000000000
0000000000
0000000000
0001FFE000
000FFFF800
003FFFFC00
007FFFFE00
00FF83FF00
03FC007F00
03F0003F80
07E0001F80
0FC0001F80
1F80000F80
1F80001F80
3F00001F80
3F00001F80
3E00003F00
7E00007F00
7E000FFE00
7FFFFFFC00
7FFFFFF000
7FFFFFC000
FFFFF80000
FC00000000
FC00000000
FC00000000
FC00000000
7C00000000
7E00007E00
7E00007C00
7E0000FC00
3F0001F800
3F8007F800
1FE00FF000
1FFFFFE000
0FFFFFC000
07FFFF0000
01FFFE0000
007FF00000
ENDCHAR
ENDFONT
